{"glyphs":{"0":{"ha":736,"x_min":47,"x_max":689,"o":"m 47 492 q 64 682 47 592 q 118 839 81 771 q 217 945 156 906 q 368 985 279 985 q 519 945 458 985 q 618 838 581 905 q 672 681 656 770 q 689 492 689 591 q 672 294 689 384 q 617 138 655 203 q 517 36 578 73 q 368 0 456 0 q 219 36 280 0 q 120 138 158 73 q 64 293 81 203 q 47 492 47 383 m 536 492 q 533 592 535 551 q 530 655 532 633 q 514 754 525 707 q 485 837 504 801 q 437 893 466 872 q 368 914 409 914 q 283 882 315 912 q 233 796 251 851 q 209 664 215 741 q 200 492 202 587 q 203 383 201 426 q 207 317 205 340 q 222 217 212 262 q 252 140 233 172 q 300 90 271 108 q 368 71 328 72 q 432 86 404 71 q 479 132 459 102 q 510 201 498 161 q 527 290 522 241 q 532 366 530 315 q 536 492 534 416 z "},"1":{"ha":736,"x_min":104,"x_max":650,"o":"m 328 889 l 174 831 q 140 823 153 823 q 114 836 123 823 q 104 864 104 848 q 134 895 104 884 l 329 971 q 404 985 368 985 q 458 968 441 985 q 475 916 475 952 l 475 74 l 595 74 q 638 63 627 74 q 650 33 650 52 q 608 0 650 0 l 195 0 q 153 33 153 0 q 208 74 153 74 l 328 74 l 328 889 z "},"2":{"ha":736,"x_min":49,"x_max":660,"o":"m 125 688 q 80 704 94 688 q 65 757 65 720 l 65 840 q 72 875 65 864 q 97 899 79 886 q 167 939 134 922 q 235 965 201 955 q 303 980 269 975 q 378 985 338 985 q 500 965 449 985 q 584 911 551 945 q 632 832 616 877 q 647 737 647 787 q 624 603 647 673 q 544 453 600 533 q 395 279 488 372 q 164 74 302 186 l 526 74 l 526 160 q 545 230 526 209 q 600 250 564 250 q 660 180 660 250 l 660 45 q 640 10 660 20 q 576 0 619 0 l 83 0 q 58 11 66 0 q 49 39 49 22 q 69 86 49 68 l 89 104 q 281 302 206 213 q 399 461 355 392 q 461 580 443 531 q 484 656 479 629 q 489 687 487 671 q 490 717 490 702 q 484 782 490 747 q 461 846 478 817 q 413 895 444 876 q 334 914 382 914 q 199 878 267 914 l 199 778 q 182 708 199 728 q 125 688 165 688 z "},"3":{"ha":736,"x_min":41,"x_max":661,"o":"m 102 296 q 158 275 141 296 q 175 205 175 255 l 175 106 q 317 71 235 71 q 392 83 357 71 q 452 122 427 96 q 491 188 477 149 q 505 279 505 227 q 491 374 505 336 q 449 434 476 412 q 385 466 422 456 q 301 475 347 475 l 261 475 q 245 486 252 475 q 239 513 239 498 q 245 539 239 528 q 261 551 252 551 l 301 551 q 476 746 476 551 q 465 821 476 789 q 433 873 454 852 q 383 904 412 894 q 318 914 354 914 q 189 880 250 914 l 189 781 q 173 711 189 731 q 115 690 156 690 q 56 760 56 690 l 56 843 q 62 881 56 867 q 87 905 69 894 q 216 966 153 947 q 353 985 279 985 q 475 967 422 985 q 561 918 527 949 q 612 843 595 886 q 629 746 629 799 q 615 666 629 703 q 578 601 602 629 q 522 554 554 572 q 454 528 490 535 l 454 515 q 538 492 500 509 q 604 446 576 475 q 646 376 631 417 q 661 281 661 335 q 637 165 661 217 q 571 77 614 113 q 467 20 528 40 q 334 0 407 0 q 74 72 195 0 q 41 143 41 91 l 41 227 q 56 279 41 263 q 102 296 71 296 z "},"4":{"ha":736,"x_min":-9,"x_max":722,"o":"m 326 74 l 433 74 l 433 240 l 29 240 q -9 273 -9 240 q 0 307 -9 286 l 412 933 q 510 985 445 985 q 564 968 547 985 q 581 916 581 952 l 581 314 l 667 314 q 711 303 699 314 q 722 273 722 292 q 681 240 722 240 l 581 240 l 581 74 l 660 74 q 715 33 715 74 q 673 0 715 0 l 313 0 q 271 33 271 0 q 326 74 271 74 m 433 314 l 433 803 l 107 314 l 433 314 z "},"5":{"ha":736,"x_min":78,"x_max":664,"o":"m 586 861 l 248 861 l 225 574 q 404 639 293 639 q 664 340 664 639 q 657 264 664 303 q 634 186 650 224 q 594 115 618 149 q 533 55 569 81 q 450 15 497 30 q 342 0 402 0 q 110 57 204 0 q 78 127 78 75 l 78 191 q 93 243 78 227 q 138 260 107 260 q 194 239 178 260 q 211 170 211 219 l 211 90 q 335 71 256 71 q 404 89 372 71 q 459 140 436 106 q 495 222 482 174 q 509 332 509 271 q 495 438 509 396 q 458 506 481 481 q 407 540 435 530 q 350 550 378 550 q 268 530 305 550 q 210 476 231 511 q 186 456 201 463 q 153 449 172 449 q 114 492 114 449 l 146 945 q 159 975 147 964 q 195 985 171 985 l 602 985 q 648 930 648 985 q 645 906 648 918 q 633 883 641 893 q 614 867 625 873 q 586 861 602 861 z "},"6":{"ha":736,"x_min":69,"x_max":681,"o":"m 586 746 q 529 765 546 746 q 513 832 513 785 l 513 900 q 427 914 479 914 q 356 899 393 914 q 289 843 319 883 q 238 734 258 803 q 218 558 218 665 l 218 500 q 259 558 235 534 q 311 595 283 581 q 369 616 339 610 q 427 623 398 623 q 535 601 488 623 q 615 540 583 579 q 664 446 648 501 q 681 323 681 391 q 660 189 681 249 q 600 87 638 130 q 507 23 561 45 q 386 0 452 0 q 271 17 320 0 q 187 65 222 35 q 129 136 152 95 q 93 226 106 178 q 75 329 80 275 q 69 437 69 382 q 83 637 69 552 q 121 784 96 723 q 178 883 145 844 q 250 945 211 922 q 333 976 290 968 q 421 985 376 985 q 589 954 504 985 q 608 946 597 951 q 626 933 618 941 q 640 913 635 926 q 646 884 646 901 l 646 812 q 631 762 646 778 q 586 746 616 746 m 386 533 q 325 518 353 533 q 275 475 296 503 q 241 405 254 446 q 229 313 229 364 q 236 231 229 274 q 261 153 243 189 q 308 94 278 117 q 382 71 337 71 q 529 325 529 71 q 492 484 529 435 q 386 533 455 533 z "},"7":{"ha":736,"x_min":72,"x_max":672,"o":"m 72 933 q 92 974 72 964 q 155 985 112 985 l 621 985 q 660 971 648 985 q 672 936 672 957 q 668 908 672 922 q 657 882 665 894 q 545 675 591 777 q 466 475 498 574 q 412 282 433 377 q 375 93 391 186 q 370 59 371 75 q 361 29 368 42 q 339 8 355 16 q 289 0 323 0 q 226 11 244 0 q 208 41 208 21 q 227 138 208 68 q 294 358 256 250 q 374 566 331 467 q 464 753 416 666 q 559 911 511 841 l 205 911 l 205 832 q 189 762 205 783 q 132 742 172 742 q 86 758 101 742 q 72 811 72 774 l 72 933 z "},"8":{"ha":736,"x_min":52,"x_max":685,"o":"m 519 743 q 506 824 519 791 q 470 877 492 857 q 421 906 448 897 q 368 914 394 914 q 316 906 342 914 q 267 878 289 897 q 231 825 245 858 q 216 743 216 792 q 228 664 216 697 q 260 609 240 631 q 309 576 281 587 q 368 566 336 566 q 428 576 401 566 q 476 609 456 587 q 508 665 496 631 q 519 743 519 698 m 205 288 q 218 194 205 234 q 252 126 230 153 q 304 84 274 98 q 368 71 334 71 q 433 84 403 71 q 484 125 463 98 q 518 193 506 153 q 530 288 530 234 q 516 386 530 346 q 479 451 502 427 q 427 487 456 476 q 368 498 398 498 q 309 488 338 498 q 257 452 280 477 q 220 387 234 427 q 205 288 205 347 m 510 539 l 510 528 q 585 496 553 518 q 640 443 618 474 q 674 373 663 412 q 685 290 685 334 q 663 167 685 221 q 599 76 640 113 q 499 19 558 39 q 368 0 441 0 q 237 19 296 0 q 137 76 178 39 q 74 167 96 113 q 52 290 52 221 q 63 371 52 333 q 96 440 74 410 q 151 494 118 471 q 227 528 184 516 l 227 539 q 164 566 193 547 q 114 611 135 585 q 80 670 92 637 q 68 739 68 703 q 83 828 68 784 q 135 907 99 872 q 228 963 170 942 q 368 985 285 985 q 509 963 452 985 q 602 906 566 941 q 652 828 637 871 q 668 741 668 784 q 656 671 668 704 q 623 610 644 637 q 572 565 602 583 q 510 539 543 546 z "},"9":{"ha":736,"x_min":56,"x_max":667,"o":"m 150 239 q 207 219 191 239 q 224 153 224 200 l 224 85 q 314 71 257 71 q 386 89 349 71 q 451 148 422 106 q 499 257 481 189 q 518 427 518 326 l 518 485 q 480 430 503 453 q 430 392 457 407 q 373 370 404 377 q 311 363 342 363 q 201 385 249 363 q 121 447 154 407 q 72 543 89 487 q 56 665 56 598 q 79 801 56 741 q 143 901 102 860 q 241 963 184 942 q 366 985 298 985 q 483 967 434 985 q 565 918 532 949 q 618 845 598 886 q 649 755 638 803 q 663 657 660 708 q 667 557 667 606 q 315 0 667 0 q 147 31 233 0 q 106 55 121 40 q 90 102 90 71 l 90 172 q 150 239 90 239 m 351 452 q 413 467 385 452 q 463 511 441 483 q 495 581 484 540 q 507 672 507 621 q 502 753 507 711 q 481 830 496 795 q 437 889 465 866 q 364 914 410 913 q 249 853 292 914 q 207 664 207 792 q 351 452 207 452 z "}," ":{"ha":416,"x_min":0,"x_max":0,"o":""},"!":{"ha":428,"x_min":118,"x_max":311,"o":"m 288 914 l 288 313 q 265 280 288 292 q 212 268 243 268 q 162 279 183 268 q 140 313 140 291 l 140 916 q 210 985 140 985 q 269 967 251 985 q 288 914 288 949 m 118 96 q 126 133 118 115 q 148 164 134 151 q 178 185 161 178 q 214 193 195 193 q 251 185 233 193 q 282 164 269 178 q 303 133 296 151 q 311 96 311 115 q 303 60 311 77 q 282 30 296 43 q 251 8 269 16 q 214 0 233 0 q 177 8 195 0 q 147 29 160 16 q 126 59 134 42 q 118 96 118 77 z "},"\"":{"ha":575,"x_min":83,"x_max":492,"o":"m 127 715 l 83 990 q 106 1021 83 1010 q 165 1032 129 1032 q 225 1021 201 1032 q 249 990 249 1009 l 203 715 q 165 696 199 696 q 139 701 151 696 q 127 715 128 706 m 371 715 l 326 990 q 349 1021 326 1010 q 408 1032 372 1032 q 468 1021 445 1032 q 492 990 492 1009 l 446 715 q 408 696 442 696 q 382 701 393 696 q 371 715 372 706 z "},"#":{"ha":736,"x_min":-82,"x_max":818,"o":"m 522 253 l 484 28 q 464 7 481 15 q 425 0 447 0 q 376 28 376 0 l 418 253 l 233 253 l 189 28 q 169 7 186 15 q 131 0 152 0 q 82 28 82 0 l 123 253 l -65 253 q -82 281 -82 253 q -79 304 -82 292 q -70 329 -75 317 q -57 347 -64 340 q -41 354 -50 354 l 144 354 l 189 595 l 0 595 q -18 627 -18 595 q -15 651 -18 639 q -7 674 -12 664 q 5 692 -2 685 q 20 699 12 699 l 210 699 l 249 920 q 269 939 251 932 q 309 946 287 946 q 358 920 358 946 l 318 699 l 504 699 l 545 920 q 564 939 547 932 q 604 946 582 946 q 641 939 627 946 q 654 920 654 932 l 610 699 l 800 699 q 818 667 818 699 q 815 642 818 654 q 807 618 812 629 q 795 602 802 608 q 781 595 789 595 l 590 595 l 546 354 l 734 354 q 753 323 753 354 q 750 300 753 312 q 742 277 747 288 q 729 260 736 267 q 714 253 722 253 l 522 253 m 250 354 l 437 354 l 482 595 l 297 595 l 250 354 z "},"$":{"ha":736,"x_min":45,"x_max":692,"o":"m 578 732 q 522 751 539 732 q 504 818 504 771 l 504 889 q 494 891 500 890 q 482 896 489 893 q 443 905 460 901 q 410 911 425 909 l 410 542 q 526 492 474 515 q 615 439 578 468 q 672 371 652 410 q 692 279 692 333 q 674 178 692 224 q 621 95 656 131 q 533 36 586 59 q 410 4 480 12 l 410 -134 q 397 -155 410 -147 q 367 -163 385 -163 q 337 -155 350 -163 q 325 -134 325 -147 l 325 0 q 246 7 289 1 q 165 24 203 14 q 97 47 127 35 q 58 71 68 59 q 49 113 49 84 l 49 196 q 103 262 49 262 q 159 242 140 262 q 178 175 178 222 l 178 100 q 325 71 250 73 l 325 452 l 255 480 q 170 521 209 499 q 104 572 132 543 q 60 641 76 602 q 45 733 45 680 q 64 832 45 787 q 119 909 83 877 q 207 961 155 942 q 325 983 258 980 l 325 1100 q 337 1121 325 1114 q 367 1129 350 1129 q 397 1122 385 1129 q 410 1100 410 1114 l 410 982 q 487 970 445 979 q 581 945 530 960 q 606 934 595 939 q 622 921 616 928 q 631 904 628 914 q 633 879 633 894 l 633 799 q 578 732 633 732 m 187 742 q 194 687 187 710 q 216 644 200 663 q 258 608 232 625 q 325 575 285 592 l 325 911 q 266 889 291 905 q 222 849 240 872 q 196 798 205 826 q 187 742 187 770 m 549 254 q 541 304 549 282 q 517 345 534 326 q 474 381 500 364 q 410 415 448 397 l 410 81 q 469 107 444 90 q 513 148 495 125 q 539 198 530 171 q 549 254 549 225 z "},"%":{"ha":1251,"x_min":83,"x_max":1168,"o":"m 737 151 q 722 269 722 200 q 732 370 722 326 q 760 446 743 414 q 799 500 777 478 q 847 535 822 522 q 897 554 871 548 q 946 559 923 559 q 994 554 968 559 q 1044 535 1019 549 q 1091 500 1068 522 q 1131 447 1114 479 q 1158 371 1147 414 q 1168 269 1168 327 q 1158 167 1168 211 q 1130 91 1147 123 q 1090 37 1113 58 q 1043 3 1068 16 q 994 -16 1019 -10 q 946 -21 968 -21 q 889 -13 920 -21 q 829 14 859 -5 q 776 66 800 33 q 737 151 751 100 m 842 269 q 851 153 842 197 q 877 82 861 108 q 910 48 892 57 q 946 39 928 39 q 981 48 963 39 q 1015 82 1000 57 q 1040 152 1030 107 q 1050 269 1050 197 q 1041 383 1050 338 q 1017 454 1031 428 q 983 490 1002 480 q 946 500 964 500 q 911 491 929 500 q 877 457 892 482 q 852 388 862 433 q 842 269 842 342 m 307 1007 q 355 1002 330 1007 q 405 983 380 996 q 452 948 429 970 q 492 894 475 926 q 519 818 509 862 q 529 717 529 774 q 507 575 529 631 q 452 486 486 519 q 380 440 419 453 q 307 427 342 427 q 234 439 273 427 q 162 484 195 452 q 106 573 128 517 q 83 717 83 629 q 105 859 83 803 q 161 948 127 916 q 234 994 195 981 q 307 1007 273 1007 m 203 717 q 213 598 203 644 q 238 529 223 553 q 272 495 254 504 q 307 486 290 486 q 344 496 326 486 q 378 532 363 506 q 402 603 393 558 q 411 717 411 648 q 401 834 411 789 q 375 905 391 880 q 342 939 360 930 q 307 947 323 947 q 273 939 291 947 q 239 906 254 931 q 213 836 223 882 q 203 717 203 791 m 975 1015 l 340 -107 q 321 -115 334 -115 q 301 -112 312 -115 q 281 -104 290 -109 q 265 -92 271 -98 q 258 -78 258 -85 q 260 -71 258 -75 l 893 1059 q 909 1067 897 1067 q 930 1063 919 1067 q 952 1052 942 1059 q 969 1037 962 1045 q 977 1022 977 1029 q 975 1015 977 1019 z "},"&":{"ha":900,"x_min":77,"x_max":838,"o":"m 667 257 q 687 293 675 270 q 711 349 698 315 q 733 382 721 371 q 762 393 745 393 q 794 384 782 393 q 806 361 806 375 q 800 333 806 349 q 788 301 795 317 q 773 272 781 285 q 762 251 766 258 q 725 197 748 227 l 823 74 q 838 40 838 56 q 822 11 838 22 q 779 0 806 0 q 747 2 761 0 q 722 9 733 4 q 702 21 711 14 q 685 39 693 28 l 637 98 q 582 53 610 72 q 523 23 553 35 q 457 5 492 11 q 380 0 422 0 q 254 20 310 0 q 158 75 198 39 q 98 161 119 111 q 77 273 77 212 q 88 355 77 318 q 124 426 99 393 q 189 490 149 459 q 289 551 230 520 q 254 604 271 576 q 225 662 238 633 q 206 718 213 690 q 199 766 199 745 q 215 853 199 813 q 262 922 231 893 q 335 968 292 951 q 432 985 378 985 q 523 970 483 985 q 589 931 562 956 q 630 872 616 906 q 644 802 644 839 q 631 722 644 758 q 593 657 618 687 q 532 601 568 627 q 450 547 496 574 l 667 257 m 392 72 q 499 97 453 72 q 586 165 545 122 l 336 490 q 274 438 297 461 q 238 389 250 414 q 222 334 226 364 q 218 260 218 303 q 231 190 218 224 q 268 130 244 156 q 322 88 291 104 q 392 72 354 72 m 338 778 q 403 603 338 691 q 505 690 473 645 q 538 796 538 735 q 530 844 538 822 q 510 881 523 865 q 480 906 498 897 q 443 916 463 916 q 398 905 418 916 q 365 876 378 895 q 345 832 352 858 q 338 778 338 807 z "},"'":{"ha":332,"x_min":83,"x_max":249,"o":"m 127 715 l 83 990 q 106 1021 83 1010 q 165 1032 129 1032 q 225 1021 201 1032 q 249 990 249 1009 l 203 715 q 165 696 199 696 q 139 701 151 696 q 127 715 128 706 z "},"(":{"ha":526,"x_min":111,"x_max":429,"o":"m 359 -195 l 338 -168 q 261 -63 301 -124 q 188 73 222 -2 q 133 237 155 149 q 111 427 111 326 q 133 615 111 526 q 188 780 155 704 q 261 916 222 855 q 338 1021 301 977 l 359 1047 q 385 1059 369 1059 q 415 1048 401 1059 q 429 1023 429 1038 q 427 1010 429 1017 l 408 972 q 301 690 336 826 q 267 427 267 553 q 302 163 267 298 q 408 -119 336 27 l 427 -157 q 429 -171 429 -165 q 416 -195 429 -185 q 386 -205 402 -205 q 359 -195 368 -205 z "},")":{"ha":526,"x_min":97,"x_max":415,"o":"m 189 -168 l 167 -195 q 140 -205 158 -205 q 111 -195 124 -205 q 97 -171 97 -185 q 100 -157 97 -165 l 118 -119 q 225 163 190 26 q 260 427 260 299 q 224 690 259 553 q 118 972 190 826 l 100 1010 q 97 1023 97 1017 q 111 1048 97 1038 q 140 1059 124 1059 q 167 1047 157 1059 l 189 1021 q 259 927 220 984 q 333 795 298 871 q 391 628 368 720 q 415 427 415 535 q 392 231 415 322 q 335 64 369 140 q 261 -70 301 -12 q 189 -168 222 -129 z "},"*":{"ha":625,"x_min":69,"x_max":555,"o":"m 366 961 l 350 789 l 354 786 l 494 885 q 503 888 499 888 q 520 880 511 888 q 537 862 529 873 q 550 838 545 850 q 555 817 555 826 q 547 800 555 804 l 382 725 l 382 721 l 542 648 q 551 631 551 644 q 546 609 551 621 q 534 585 541 596 q 517 567 526 574 q 501 559 509 559 q 493 562 498 559 l 355 665 l 351 663 l 366 489 q 313 465 366 465 q 260 489 260 465 l 273 663 l 269 665 l 134 562 q 125 559 129 559 q 108 567 117 559 q 92 585 100 574 q 80 609 85 596 q 75 631 75 621 q 85 648 75 644 l 243 721 l 243 725 l 79 800 q 69 817 69 803 q 75 839 69 826 q 88 862 80 851 q 106 880 96 873 q 123 888 115 888 q 132 885 126 888 l 271 786 l 275 789 l 260 961 l 260 963 q 276 979 260 974 q 313 984 293 984 q 349 979 332 984 q 366 963 366 974 l 366 961 z "},"+":{"ha":1000,"x_min":125,"x_max":874,"o":"m 444 429 l 153 429 l 151 429 q 131 447 138 429 q 125 485 125 464 q 131 523 125 506 q 151 541 138 541 l 153 541 l 444 541 l 444 832 q 461 852 444 846 q 500 859 478 859 q 538 852 522 859 q 555 832 555 846 l 555 541 l 847 541 q 867 524 861 541 q 874 485 874 507 q 867 446 874 463 q 847 429 861 429 l 555 429 l 555 138 l 555 136 q 538 116 555 123 q 500 110 521 110 q 461 116 479 110 q 444 136 444 123 l 444 138 l 444 429 z "},",":{"ha":378,"x_min":83,"x_max":294,"o":"m 117 -94 l 170 17 q 125 33 142 21 q 99 59 109 45 q 86 89 90 74 q 83 117 83 104 q 93 160 83 141 q 118 191 102 178 q 153 210 134 203 q 193 216 173 216 q 231 210 212 216 q 263 192 249 203 q 286 162 277 180 q 294 123 294 145 q 265 18 294 81 l 207 -106 q 155 -143 191 -143 q 126 -132 138 -143 q 114 -107 114 -121 q 117 -94 114 -102 z "},"-":{"ha":607,"x_min":69,"x_max":537,"o":"m 510 298 l 97 298 l 95 298 q 76 316 82 298 q 69 354 69 333 q 76 392 69 375 q 95 410 82 410 l 97 410 l 510 410 q 530 393 524 410 q 537 354 537 376 q 530 315 537 332 q 510 298 524 298 z "},".":{"ha":378,"x_min":83,"x_max":294,"o":"m 83 107 q 92 151 83 131 q 114 185 100 171 q 148 208 128 200 q 189 216 167 216 q 231 208 212 216 q 264 185 250 200 q 286 150 278 170 q 294 107 294 130 q 287 65 294 85 q 264 32 279 46 q 231 8 250 17 q 189 0 212 0 q 148 8 168 0 q 115 31 129 16 q 92 64 100 45 q 83 107 83 84 z "},"/":{"ha":930,"x_min":56,"x_max":861,"o":"m 860 985 l 142 -278 q 123 -286 136 -286 q 102 -282 114 -286 q 80 -271 90 -277 q 63 -257 70 -264 q 56 -241 56 -249 q 57 -235 56 -239 l 774 1035 q 791 1043 778 1043 q 813 1038 801 1043 q 836 1026 825 1034 q 854 1010 846 1019 q 861 993 861 1001 q 860 985 861 989 z "},":":{"ha":378,"x_min":83,"x_max":294,"o":"m 83 578 q 92 622 83 602 q 114 657 100 642 q 148 680 128 671 q 189 688 167 688 q 231 679 212 688 q 264 656 250 671 q 286 621 278 641 q 294 578 294 601 q 287 536 294 555 q 264 502 279 517 q 231 479 250 488 q 189 471 212 471 q 148 479 168 471 q 115 501 129 487 q 92 535 100 515 q 83 578 83 555 m 83 107 q 92 151 83 131 q 114 185 100 171 q 148 208 128 200 q 189 216 167 216 q 231 208 212 216 q 264 185 250 200 q 286 150 278 170 q 294 107 294 130 q 287 65 294 85 q 264 32 279 46 q 231 8 250 17 q 189 0 212 0 q 148 8 168 0 q 115 31 129 16 q 92 64 100 45 q 83 107 83 84 z "},";":{"ha":383,"x_min":83,"x_max":296,"o":"m 85 578 q 93 622 85 602 q 115 657 101 642 q 149 680 130 671 q 191 688 168 688 q 232 679 213 688 q 266 656 252 671 q 288 621 279 641 q 296 578 296 601 q 288 536 296 555 q 266 502 280 517 q 232 479 252 488 q 191 471 213 471 q 150 479 169 471 q 116 501 130 487 q 93 535 102 515 q 85 578 85 555 m 114 -94 l 167 17 q 124 32 140 21 q 99 58 108 43 q 86 88 90 73 q 83 117 83 104 q 93 160 83 141 q 118 191 102 178 q 153 210 134 203 q 193 216 173 216 q 231 210 212 216 q 263 192 249 203 q 286 162 277 180 q 294 123 294 145 q 265 18 294 79 l 207 -106 q 155 -143 191 -143 q 124 -132 138 -143 q 111 -107 111 -121 q 114 -94 111 -100 z "},"<":{"ha":1046,"x_min":77,"x_max":907,"o":"m 852 68 l 93 444 q 77 482 77 452 q 93 519 77 511 l 852 896 q 860 897 857 897 q 876 889 867 897 q 891 870 884 882 q 902 844 898 858 q 907 819 907 831 q 896 796 907 801 l 248 482 l 896 168 q 907 143 907 163 q 902 119 907 132 q 891 94 898 106 q 876 74 884 82 q 860 66 868 66 q 852 68 857 66 z "},"=":{"ha":972,"x_min":125,"x_max":846,"o":"m 819 561 l 153 561 l 151 561 q 131 578 138 561 q 125 616 125 595 q 131 655 125 637 q 151 672 138 672 l 153 672 l 819 672 q 840 655 833 672 q 846 616 846 638 q 840 578 846 595 q 819 561 833 561 m 819 315 l 153 315 l 151 315 q 131 333 138 315 q 125 371 125 350 q 131 409 125 392 q 151 427 138 427 l 153 427 l 819 427 q 840 410 833 427 q 846 371 846 393 q 840 332 846 349 q 819 315 833 315 z "},">":{"ha":1095,"x_min":132,"x_max":962,"o":"m 946 444 l 186 68 q 179 66 182 66 q 162 74 170 66 q 147 94 153 82 q 136 118 140 105 q 132 143 132 132 q 143 168 132 163 l 791 482 l 143 796 q 132 819 132 801 q 136 845 132 831 q 147 870 140 859 q 162 889 154 882 q 179 897 171 897 q 186 896 182 897 l 946 519 q 962 482 962 511 q 946 444 962 453 z "},"?":{"ha":653,"x_min":41,"x_max":597,"o":"m 102 700 q 56 716 71 700 q 41 770 41 733 l 41 850 q 50 887 41 873 q 77 913 58 901 q 194 967 134 949 q 319 985 255 985 q 453 965 399 985 q 538 913 507 945 q 584 845 570 882 q 597 774 597 808 q 593 727 597 749 q 580 684 588 704 q 563 647 572 664 q 543 619 553 631 q 518 592 534 609 q 486 558 503 576 q 453 523 469 540 q 429 496 437 506 q 395 449 409 471 q 371 406 380 428 q 357 361 361 385 q 353 307 353 337 q 333 278 353 289 q 286 268 313 268 q 244 278 261 268 q 227 307 227 288 q 233 378 227 347 q 250 436 239 409 q 276 488 260 463 q 311 542 292 513 q 355 597 332 573 q 397 647 378 622 q 428 703 416 673 q 440 778 440 734 q 403 883 440 852 q 293 914 366 914 q 175 885 241 914 l 175 790 q 158 720 175 741 q 102 700 141 700 m 196 96 q 204 133 196 115 q 224 164 212 151 q 255 185 237 177 q 292 193 272 193 q 329 185 311 193 q 360 164 347 178 q 381 133 373 151 q 389 96 389 115 q 381 59 389 77 q 360 29 373 42 q 329 8 347 16 q 292 0 311 0 q 255 8 272 0 q 224 30 237 16 q 203 60 211 43 q 196 96 196 77 z "},"@":{"ha":1139,"x_min":83,"x_max":1090,"o":"m 325 355 q 350 498 325 432 q 418 613 374 564 q 521 689 462 661 q 650 717 581 717 q 719 712 687 717 q 775 700 751 708 q 813 680 800 692 q 827 652 827 667 q 818 606 827 648 q 791 481 808 564 q 755 314 755 320 q 802 272 755 272 q 865 289 832 272 q 925 337 898 305 q 970 416 952 370 q 987 524 987 463 q 972 610 987 568 q 931 690 958 652 q 867 759 904 728 q 787 812 831 790 q 695 847 744 835 q 597 860 647 860 q 495 846 546 860 q 399 806 445 831 q 314 743 353 780 q 247 660 275 706 q 202 561 218 614 q 186 449 186 508 q 215 297 186 371 q 299 164 244 222 q 431 71 353 106 q 604 36 508 36 q 854 115 739 36 q 871 121 862 121 q 888 116 880 121 q 904 102 897 111 q 915 84 911 94 q 920 64 920 74 q 904 36 920 46 q 829 -10 864 9 q 759 -42 794 -29 q 684 -60 723 -54 q 597 -66 646 -66 q 481 -52 541 -66 q 364 -8 421 -37 q 256 64 307 21 q 166 165 205 108 q 106 293 128 222 q 83 449 83 364 q 102 587 83 521 q 155 710 121 653 q 237 814 189 768 q 340 893 284 861 q 461 944 397 926 q 593 962 525 962 q 719 948 657 962 q 837 907 781 934 q 938 842 892 880 q 1019 754 985 803 q 1072 647 1053 705 q 1090 524 1090 589 q 1065 381 1090 444 q 996 274 1039 318 q 897 207 953 230 q 781 183 841 183 q 746 186 765 183 q 708 196 726 189 q 673 219 689 204 q 650 257 658 233 q 476 191 599 191 q 412 202 440 191 q 365 236 385 214 q 335 288 345 258 q 325 355 325 318 m 522 283 q 635 329 593 283 l 701 621 q 647 635 677 635 q 575 614 610 635 q 513 558 541 593 q 470 474 486 522 q 453 372 453 427 q 471 305 453 327 q 522 283 490 283 z "},"A":{"ha":937,"x_min":58,"x_max":873,"o":"m 252 264 l 180 74 q 142 15 163 30 q 96 0 121 0 q 67 11 76 0 q 58 39 58 22 q 65 72 58 53 l 392 951 q 419 976 398 968 q 468 985 439 985 q 522 975 498 985 q 553 947 546 965 l 871 66 q 873 46 873 55 q 861 13 873 26 q 819 0 848 0 q 715 74 742 0 l 642 264 l 252 264 m 621 336 l 453 821 l 444 821 l 273 336 l 621 336 z "},"B":{"ha":930,"x_min":139,"x_max":847,"o":"m 139 916 q 203 985 139 985 l 488 985 q 796 737 796 985 q 785 670 796 703 q 753 608 774 636 q 704 559 733 580 q 639 529 675 538 l 639 522 q 733 490 694 512 q 798 439 772 469 q 835 372 823 409 q 847 294 847 335 q 830 184 847 231 q 784 105 812 138 q 718 52 755 73 q 642 20 681 31 q 565 4 603 8 q 494 0 526 0 l 203 0 q 139 69 139 0 l 139 916 m 461 479 l 289 479 l 289 74 l 475 74 q 544 83 507 74 q 614 115 582 92 q 669 178 647 138 q 690 281 690 218 q 669 373 690 335 q 614 434 648 410 q 540 469 581 458 q 461 479 500 479 m 437 911 l 289 911 l 289 553 l 449 553 q 514 563 480 553 q 575 596 548 573 q 621 654 603 618 q 639 742 639 690 q 619 823 639 791 q 569 875 600 855 q 504 903 539 895 q 437 911 469 911 z "},"C":{"ha":807,"x_min":74,"x_max":779,"o":"m 699 734 q 638 755 658 734 q 618 825 618 777 l 618 903 q 517 914 562 914 q 398 886 451 914 q 308 804 345 859 q 251 668 271 749 q 231 481 231 587 q 251 285 231 363 q 309 159 271 206 q 401 92 347 111 q 526 72 456 72 q 614 82 569 71 q 708 113 659 93 l 734 123 q 746 126 743 126 q 769 113 760 126 q 779 85 779 100 q 761 57 779 64 l 737 47 q 617 12 678 24 q 488 0 555 0 q 304 32 382 0 q 175 125 226 64 q 99 277 124 187 q 74 484 74 368 q 106 707 74 612 q 195 863 138 802 q 330 955 252 925 q 498 985 408 985 q 572 981 533 985 q 646 971 611 978 q 709 955 682 964 q 747 932 736 945 q 758 888 758 918 l 758 804 q 744 751 758 768 q 699 734 729 734 z "},"D":{"ha":962,"x_min":139,"x_max":889,"o":"m 139 916 q 203 985 139 985 l 401 985 q 889 497 889 985 q 867 327 888 401 q 808 197 845 252 q 724 104 772 142 q 622 43 675 66 q 514 10 569 20 q 408 0 458 0 l 203 0 q 139 69 139 0 l 139 916 m 385 911 l 289 911 l 289 74 l 385 74 q 520 100 457 76 q 631 175 584 124 q 705 305 677 225 q 732 497 732 385 q 705 688 732 610 q 632 817 679 767 q 522 888 585 866 q 385 911 458 911 z "},"E":{"ha":835,"x_min":139,"x_max":779,"o":"m 699 743 q 637 764 657 743 q 618 833 618 785 l 618 911 l 289 911 l 289 547 l 581 547 q 609 536 599 547 q 619 509 619 524 q 616 495 619 502 q 607 483 612 488 q 595 474 602 477 q 581 471 588 471 l 289 471 l 289 74 l 639 74 l 639 151 q 659 221 639 200 q 720 241 678 241 q 765 225 750 241 q 779 172 779 209 l 779 52 q 759 11 779 21 q 696 0 739 0 l 203 0 q 139 69 139 0 l 139 916 q 203 985 139 985 l 675 985 q 738 974 718 985 q 758 933 758 964 l 758 812 q 744 760 758 776 q 699 743 729 743 z "},"F":{"ha":772,"x_min":139,"x_max":758,"o":"m 581 464 l 289 464 l 289 90 q 268 21 289 41 q 203 0 248 0 q 139 69 139 0 l 139 916 q 203 985 139 985 l 675 985 q 738 974 718 985 q 758 933 758 964 l 758 827 q 744 773 758 790 q 699 757 729 757 q 638 778 658 757 q 618 847 618 798 l 618 911 l 289 911 l 289 541 l 581 541 q 609 529 600 541 q 619 501 619 517 q 616 488 619 494 q 607 476 612 481 q 594 467 602 471 q 581 464 587 464 z "},"G":{"ha":945,"x_min":74,"x_max":847,"o":"m 742 734 q 681 755 701 734 q 661 825 661 777 l 661 903 q 549 914 616 914 q 421 886 479 914 q 320 803 363 858 q 254 668 278 749 q 231 482 231 587 q 251 286 231 365 q 310 159 271 207 q 406 91 349 111 q 534 71 463 71 q 701 98 632 71 l 701 399 l 546 399 q 520 410 529 399 q 511 436 511 421 q 521 464 511 452 q 550 475 531 475 l 786 475 q 835 461 823 475 q 847 419 847 448 l 847 132 q 844 99 847 113 q 836 76 842 85 q 823 61 831 67 q 803 52 814 56 q 509 0 671 0 q 311 34 393 0 q 176 130 229 67 q 99 282 123 193 q 74 485 74 372 q 110 707 74 613 q 208 863 146 802 q 353 955 270 924 q 532 985 437 985 q 604 981 564 985 q 682 971 644 978 q 748 954 719 964 q 790 930 778 944 q 802 886 802 916 l 802 804 q 742 734 802 734 z "},"H":{"ha":1031,"x_min":139,"x_max":892,"o":"m 828 985 q 892 916 892 985 l 892 69 q 878 15 892 31 q 831 0 863 0 q 765 27 787 0 q 742 107 742 54 l 742 471 l 289 471 l 289 90 q 268 21 289 41 q 203 0 248 0 q 139 69 139 0 l 139 916 q 153 969 139 954 q 200 985 168 985 q 266 958 243 985 q 289 878 289 930 l 289 547 l 742 547 l 742 895 q 763 964 742 943 q 828 985 783 985 z "},"I":{"ha":567,"x_min":28,"x_max":539,"o":"m 497 0 l 69 0 q 28 33 28 0 q 39 63 28 52 q 83 74 51 74 l 208 74 l 208 911 l 83 911 q 39 922 51 911 q 28 951 28 932 q 69 985 28 985 l 497 985 q 539 951 539 985 q 484 911 539 911 l 358 911 l 358 74 l 484 74 q 539 33 539 74 q 497 0 539 0 z "},"J":{"ha":672,"x_min":49,"x_max":567,"o":"m 503 985 q 551 968 535 985 q 567 916 567 952 l 567 363 q 564 297 567 335 q 549 219 560 259 q 517 140 538 179 q 460 69 496 100 q 371 19 424 38 q 244 0 318 0 q 201 3 226 0 q 152 9 176 5 q 107 19 128 14 q 77 29 87 24 q 49 72 49 43 l 49 165 q 63 218 49 202 q 109 235 78 235 q 169 214 149 235 q 189 144 189 193 l 189 77 q 218 73 203 74 q 248 72 233 72 q 330 92 297 72 q 381 142 362 111 q 409 212 401 174 q 416 289 416 251 l 416 895 q 437 964 416 943 q 503 985 458 985 z "},"K":{"ha":848,"x_min":139,"x_max":842,"o":"m 289 878 l 289 530 l 720 957 q 775 985 745 985 q 811 971 796 985 q 825 940 825 957 q 818 924 825 931 l 421 542 l 822 92 q 837 71 831 80 q 842 52 842 61 q 826 15 842 31 q 785 0 810 0 q 753 3 768 0 q 723 14 738 6 q 692 34 708 21 q 660 68 677 47 l 314 464 l 289 437 l 289 90 q 268 21 289 41 q 203 0 248 0 q 139 69 139 0 l 139 916 q 153 969 139 954 q 200 985 168 985 q 266 958 243 985 q 289 878 289 930 z "},"L":{"ha":793,"x_min":139,"x_max":745,"o":"m 685 260 q 745 191 745 260 l 745 45 q 724 10 745 20 q 661 0 704 0 l 203 0 q 139 69 139 0 l 139 916 q 153 969 139 954 q 200 985 168 985 q 266 958 243 985 q 289 878 289 930 l 289 74 l 604 74 l 604 170 q 624 239 604 218 q 685 260 644 260 z "},"M":{"ha":1218,"x_min":139,"x_max":1078,"o":"m 1021 0 q 958 27 979 0 q 938 107 938 54 l 938 780 l 928 780 l 644 52 q 585 0 624 0 q 551 13 566 0 q 526 52 535 26 l 258 780 l 249 780 l 249 78 q 243 41 249 56 q 230 17 238 26 q 212 4 222 7 q 192 0 201 0 q 155 14 172 0 q 139 62 139 28 l 139 911 q 147 943 139 929 q 167 966 155 957 q 196 980 180 975 q 228 985 212 985 q 256 981 241 985 q 286 970 271 978 q 313 949 300 962 q 332 918 325 937 l 600 181 l 606 181 l 895 911 q 915 946 903 932 q 943 968 928 960 q 974 981 958 977 q 1007 985 991 985 q 1061 967 1044 985 q 1078 911 1078 949 l 1078 70 q 1066 16 1078 31 q 1021 0 1054 0 z "},"N":{"ha":1032,"x_min":139,"x_max":893,"o":"m 139 62 l 139 909 q 163 965 139 945 q 222 985 187 985 q 277 972 253 985 q 322 926 300 960 l 777 205 l 783 205 l 783 907 q 801 966 783 947 q 840 985 818 985 q 878 970 863 985 q 893 922 893 955 l 893 81 q 870 21 893 42 q 812 0 847 0 q 711 56 746 0 l 257 779 l 249 779 l 249 78 q 232 19 249 37 q 192 0 214 0 q 154 15 170 0 q 139 62 139 30 z "},"O":{"ha":994,"x_min":74,"x_max":921,"o":"m 921 492 q 916 407 921 456 q 897 302 911 357 q 853 193 882 247 q 778 96 825 139 q 662 27 731 54 q 496 0 593 0 q 329 27 398 0 q 213 98 260 54 q 138 196 166 142 q 96 306 111 251 q 78 409 82 360 q 74 492 74 458 q 79 578 74 528 q 98 684 83 629 q 141 792 113 739 q 216 889 170 846 q 332 958 263 932 q 496 985 400 985 q 660 958 591 985 q 777 888 729 931 q 852 790 824 844 q 896 681 881 736 q 916 576 911 627 q 921 492 921 526 m 496 914 q 394 893 437 914 q 322 838 352 872 q 275 759 293 804 q 247 668 257 715 q 234 575 237 621 q 231 492 231 529 q 233 416 231 460 q 245 326 236 372 q 271 233 254 279 q 318 151 288 187 q 391 93 347 115 q 496 71 434 71 q 598 92 555 72 q 671 146 642 113 q 719 222 701 179 q 747 312 737 265 q 760 405 757 358 q 764 492 764 451 q 761 568 764 524 q 750 660 759 612 q 724 752 741 707 q 677 834 707 798 q 603 892 647 870 q 496 914 558 914 z "},"P":{"ha":857,"x_min":139,"x_max":808,"o":"m 433 382 l 289 382 l 289 90 q 268 21 289 41 q 203 0 248 0 q 139 69 139 0 l 139 916 q 153 969 139 954 q 200 985 168 985 l 432 985 q 486 984 456 985 q 550 978 516 983 q 621 962 584 973 q 694 928 657 950 q 739 892 718 913 q 775 843 760 871 q 800 779 791 815 q 808 697 808 743 q 785 573 808 631 q 715 473 762 516 q 598 406 669 431 q 433 382 528 382 m 432 911 l 289 911 l 289 456 l 432 456 q 594 514 536 456 q 652 697 652 573 q 640 789 652 749 q 601 856 627 829 q 533 897 574 883 q 432 911 491 911 z "},"Q":{"ha":994,"x_min":74,"x_max":921,"o":"m 764 492 q 761 568 764 524 q 750 660 759 612 q 724 752 741 707 q 677 834 707 798 q 603 892 647 870 q 496 914 558 914 q 394 893 437 914 q 322 838 352 872 q 275 759 293 804 q 247 668 257 715 q 234 575 237 621 q 231 492 231 529 q 233 416 231 460 q 245 326 236 372 q 271 233 254 279 q 318 151 288 187 q 391 93 347 115 q 496 71 434 71 q 590 87 550 71 l 489 210 q 476 230 479 220 q 472 248 472 240 q 487 278 472 266 q 525 290 503 290 q 610 244 574 290 l 681 160 q 764 492 764 271 m 921 492 q 914 392 921 447 q 888 281 907 337 q 835 173 869 225 q 749 79 802 120 l 838 -28 q 846 -49 846 -38 q 828 -75 846 -64 q 786 -86 811 -86 q 740 -76 760 -87 q 703 -45 720 -65 l 646 22 q 496 0 578 0 q 329 27 398 0 q 213 98 260 54 q 138 196 166 142 q 96 306 111 251 q 78 409 82 360 q 74 492 74 458 q 79 578 74 528 q 98 684 83 629 q 141 792 113 739 q 216 889 170 846 q 332 958 263 932 q 496 985 400 985 q 660 958 591 985 q 777 888 729 931 q 852 790 824 844 q 896 681 881 736 q 916 576 911 627 q 921 492 921 526 z "},"R":{"ha":893,"x_min":139,"x_max":814,"o":"m 139 69 l 139 916 q 153 969 139 954 q 200 985 168 985 l 463 985 q 598 973 534 985 q 709 931 661 962 q 784 849 756 901 q 814 717 812 798 q 793 622 814 667 q 739 542 772 577 q 661 484 705 507 q 571 453 617 460 l 802 82 q 814 46 814 62 q 796 13 814 25 q 743 0 778 0 q 648 53 680 0 l 415 443 l 289 443 l 289 90 q 268 21 289 41 q 203 0 248 0 q 139 69 139 0 m 449 911 l 289 911 l 289 517 l 437 517 q 515 528 475 517 q 586 564 554 539 q 637 628 617 589 q 657 725 657 668 q 647 799 657 768 q 620 850 637 829 q 582 883 604 871 q 536 901 559 895 q 491 909 513 907 q 449 911 468 911 z "},"S":{"ha":876,"x_min":85,"x_max":793,"o":"m 669 732 q 608 751 628 732 q 589 818 589 771 l 589 889 q 580 891 586 890 q 566 896 574 893 q 497 910 532 905 q 425 914 462 914 q 342 899 377 914 q 285 858 308 883 q 251 803 262 833 q 240 742 240 772 q 249 681 240 706 q 278 636 257 656 q 336 598 300 616 q 428 561 372 581 q 485 540 463 548 q 525 526 507 532 q 561 511 543 519 q 605 493 578 504 q 647 474 631 482 q 675 459 663 467 q 698 444 687 452 q 724 424 709 435 q 775 361 757 399 q 793 269 793 323 q 767 161 793 210 q 691 76 741 111 q 569 20 641 40 q 404 0 496 0 q 316 6 364 0 q 223 23 267 13 q 145 46 179 33 q 100 71 111 58 q 89 113 89 83 l 89 196 q 149 262 89 262 q 209 242 189 262 q 229 175 229 222 l 229 100 q 399 71 317 71 q 499 86 455 71 q 574 127 544 101 q 621 185 605 153 q 637 254 637 218 q 622 318 637 291 q 570 370 606 346 q 478 417 534 394 q 342 469 422 441 l 287 491 q 258 503 270 498 q 236 514 246 509 q 216 526 226 520 q 193 540 205 532 q 145 576 165 557 q 113 620 125 596 q 93 672 100 644 q 85 733 87 700 q 107 837 85 790 q 173 916 130 883 q 277 967 216 949 q 415 985 338 985 q 672 945 532 985 q 700 934 689 939 q 717 921 711 928 q 726 904 724 914 q 729 879 729 894 l 729 799 q 669 732 729 732 z "},"T":{"ha":903,"x_min":28,"x_max":875,"o":"m 734 911 l 526 911 l 526 83 q 506 18 526 36 q 440 0 486 0 q 376 69 376 0 l 376 911 l 168 911 l 168 812 q 148 743 168 764 q 87 722 128 722 q 28 791 28 722 l 28 933 q 48 974 28 964 q 111 985 68 985 l 791 985 q 855 974 835 985 q 875 933 875 964 l 875 791 q 860 739 875 755 q 815 722 846 722 q 754 743 774 722 q 734 812 734 764 l 734 911 z "},"U":{"ha":997,"x_min":129,"x_max":868,"o":"m 279 878 l 279 304 q 296 203 279 248 q 345 127 313 159 q 422 80 376 96 q 525 64 467 64 q 622 82 578 64 q 695 133 665 100 q 742 211 726 166 q 758 310 758 256 l 758 907 q 775 966 758 947 q 815 985 793 985 q 853 970 838 985 q 868 922 868 955 l 868 353 q 863 282 868 322 q 844 201 859 243 q 805 120 830 159 q 738 48 779 80 q 637 -2 696 17 q 497 -21 578 -21 q 354 -3 414 -21 q 254 46 294 16 q 188 115 213 76 q 150 195 163 154 q 133 276 137 236 q 129 349 129 316 l 129 916 q 143 969 129 954 q 191 985 157 985 q 257 958 234 985 q 279 878 279 930 z "},"V":{"ha":829,"x_min":25,"x_max":810,"o":"m 436 157 l 688 911 q 704 948 695 933 q 722 970 712 962 q 743 982 732 979 q 766 985 754 985 q 798 974 786 985 q 810 947 810 963 q 808 931 810 939 q 803 913 806 922 l 500 56 q 412 0 479 0 q 329 50 347 0 l 31 903 q 25 933 25 919 q 40 970 25 956 q 85 985 54 985 q 180 911 156 985 l 428 157 l 436 157 z "},"W":{"ha":1179,"x_min":36,"x_max":1149,"o":"m 847 157 l 1029 911 q 1044 948 1036 934 q 1062 971 1053 963 q 1083 982 1072 979 q 1107 985 1095 985 q 1137 974 1125 985 q 1149 947 1149 963 q 1141 913 1149 931 l 909 56 q 823 0 895 0 q 772 12 796 0 q 742 50 749 24 l 596 718 l 593 718 l 432 56 q 346 0 418 0 q 294 12 317 0 q 264 50 271 24 l 41 903 q 36 933 36 919 q 51 970 36 956 q 94 985 65 985 q 189 911 166 985 l 361 157 l 370 157 l 534 897 q 563 964 546 944 q 610 985 579 985 q 681 901 663 985 l 839 157 l 847 157 z "},"X":{"ha":818,"x_min":41,"x_max":777,"o":"m 432 603 l 610 911 q 653 967 632 950 q 699 985 674 985 q 728 976 715 985 q 741 951 741 966 q 725 909 741 932 l 492 530 l 765 83 q 773 65 770 74 q 777 45 777 56 q 762 13 777 26 q 722 0 747 0 q 686 4 702 0 q 657 17 670 8 q 632 39 644 25 q 610 72 621 52 l 401 427 l 396 427 l 178 75 q 152 38 164 52 q 129 15 140 23 q 106 3 117 6 q 83 0 96 0 q 52 9 62 0 q 41 31 41 18 q 57 75 41 48 l 335 509 l 97 904 q 87 937 87 918 q 103 970 87 956 q 142 985 119 985 q 203 966 176 985 q 250 911 229 947 l 424 603 l 432 603 z "},"Y":{"ha":760,"x_min":25,"x_max":741,"o":"m 372 0 q 307 69 307 0 l 307 372 l 33 901 q 25 936 25 920 q 39 971 25 957 q 75 985 53 985 q 109 981 94 985 q 136 969 123 978 q 160 947 149 961 q 182 913 172 933 l 403 476 l 408 476 l 616 911 q 701 985 652 985 q 731 971 721 985 q 741 939 741 958 q 733 908 741 925 l 457 372 l 457 83 q 437 18 457 35 q 372 0 417 0 z "},"Z":{"ha":822,"x_min":56,"x_max":766,"o":"m 684 0 l 118 0 q 71 20 87 0 q 56 68 56 39 q 66 118 56 101 l 599 911 l 227 911 l 227 833 q 207 764 227 785 q 146 743 187 743 q 101 760 115 743 q 86 812 86 776 l 86 933 q 106 974 86 964 q 170 985 126 985 l 693 985 q 740 964 724 985 q 755 914 755 943 q 745 867 755 883 l 200 74 l 627 74 l 627 151 q 646 221 627 200 q 707 241 666 241 q 752 225 737 241 q 766 172 766 209 l 766 52 q 747 11 766 21 q 684 0 727 0 z "},"[":{"ha":469,"x_min":111,"x_max":421,"o":"m 111 -178 l 111 945 q 175 1014 111 1014 l 397 1014 q 415 999 408 1014 q 421 965 421 985 q 415 932 421 947 q 397 918 408 918 l 237 918 l 237 -151 l 397 -151 q 415 -166 408 -151 q 421 -200 421 -180 q 415 -233 421 -219 q 397 -248 408 -248 l 175 -248 q 127 -231 142 -248 q 111 -178 111 -214 z "},"\\":{"ha":930,"x_min":69,"x_max":875,"o":"m 789 -278 l 71 985 q 69 993 69 989 q 77 1010 69 1001 q 95 1026 84 1019 q 117 1038 105 1034 q 139 1043 130 1043 q 157 1035 153 1043 l 873 -235 q 875 -241 875 -239 q 868 -257 875 -249 q 850 -271 861 -264 q 828 -282 840 -277 q 807 -286 817 -286 q 789 -278 795 -286 z "},"]":{"ha":469,"x_min":49,"x_max":358,"o":"m 358 945 l 358 -178 q 342 -231 358 -214 q 294 -248 327 -248 l 72 -248 q 55 -233 61 -248 q 49 -200 49 -219 q 55 -165 49 -180 q 72 -151 61 -151 l 232 -151 l 232 918 l 72 918 q 55 932 61 918 q 49 965 49 947 q 55 1000 49 985 q 72 1014 61 1014 l 294 1014 q 342 998 327 1014 q 358 945 358 981 z "},"^":{"ha":708,"x_min":106,"x_max":602,"o":"m 354 825 l 244 697 q 208 675 232 683 q 158 667 184 667 q 121 673 136 667 q 106 688 106 679 q 110 697 106 691 l 309 932 q 353 956 327 956 q 399 932 377 956 l 597 697 q 602 688 602 691 q 586 672 602 678 q 549 665 570 665 q 498 674 522 665 q 461 697 473 682 l 354 825 z "},"_":{"ha":815,"x_min":-28,"x_max":842,"o":"m 815 -302 l 0 -302 l -2 -302 q -21 -286 -15 -302 q -28 -248 -28 -269 q -21 -209 -28 -227 q -2 -192 -15 -192 l 0 -192 l 815 -192 q 836 -209 829 -192 q 842 -248 842 -226 q 836 -286 842 -270 q 815 -302 829 -302 z "},"`":{"ha":840,"x_min":195,"x_max":424,"o":"m 335 814 l 199 994 q 195 1007 195 998 q 215 1031 195 1021 q 269 1040 235 1040 q 319 1031 296 1040 q 349 1004 341 1022 l 421 831 q 424 818 424 826 q 413 799 424 806 q 386 791 402 791 q 335 814 352 791 z "},"a":{"ha":758,"x_min":60,"x_max":657,"o":"m 518 131 l 514 132 q 410 32 469 63 q 269 0 351 0 q 178 13 218 0 q 113 51 139 26 q 73 110 86 75 q 60 187 60 144 q 75 276 60 232 q 130 354 90 319 q 237 410 169 389 q 410 431 304 431 l 511 431 l 511 469 q 503 550 511 517 q 478 603 495 583 q 435 632 462 623 q 372 642 409 642 q 250 583 303 642 q 165 534 205 534 q 129 548 142 534 q 117 582 117 562 q 142 630 117 608 q 207 666 167 651 q 298 689 248 681 q 400 697 349 697 q 525 682 475 697 q 604 635 574 666 q 645 556 633 604 q 657 446 657 509 l 657 65 q 646 16 657 32 q 603 0 634 0 q 538 31 557 0 q 518 131 518 62 m 513 372 l 432 372 q 204 207 204 372 q 325 93 204 93 q 384 103 351 93 q 445 134 416 113 q 493 184 474 154 q 513 256 513 215 l 513 372 z "},"b":{"ha":786,"x_min":111,"x_max":713,"o":"m 256 942 l 256 570 l 258 570 q 475 697 329 697 q 565 684 522 697 q 640 637 608 671 q 692 541 673 602 q 713 383 712 479 q 690 219 713 290 q 625 99 667 147 q 520 25 582 50 q 382 0 459 0 q 203 32 286 0 q 164 50 181 40 q 136 74 147 60 q 118 107 124 88 q 111 153 111 126 l 111 990 q 123 1040 111 1025 q 167 1055 134 1055 q 235 1029 214 1055 q 256 942 256 1003 m 254 447 l 254 129 q 263 101 254 114 q 288 77 272 87 q 328 61 304 67 q 382 56 352 56 q 562 372 562 56 q 551 491 562 446 q 520 562 540 536 q 475 595 501 587 q 419 604 449 604 q 363 590 392 604 q 310 554 334 576 q 270 504 286 532 q 254 447 254 475 z "},"c":{"ha":681,"x_min":69,"x_max":653,"o":"m 586 175 q 621 191 602 191 q 643 182 633 191 q 653 161 653 174 q 635 114 653 136 q 383 0 542 0 q 237 26 297 0 q 140 98 177 52 q 86 208 102 144 q 69 347 69 272 q 95 510 69 444 q 165 618 120 577 q 270 679 210 660 q 399 697 330 697 q 490 685 446 697 q 566 652 533 673 q 618 605 599 631 q 637 549 637 578 q 632 526 637 536 q 619 509 627 516 q 601 498 611 502 q 579 494 590 494 q 531 509 549 494 q 504 553 513 524 q 488 589 496 573 q 466 617 479 606 q 436 635 453 629 q 396 642 419 642 q 320 628 353 642 q 265 580 288 614 q 231 489 243 546 q 220 347 220 433 q 229 222 220 276 q 260 133 239 168 q 316 79 281 97 q 399 61 350 61 q 456 68 431 61 q 501 88 481 75 q 537 118 521 101 q 568 153 553 134 l 586 175 z "},"d":{"ha":782,"x_min":69,"x_max":671,"o":"m 400 697 q 526 673 467 697 l 526 942 q 547 1029 526 1003 q 615 1055 568 1055 q 659 1040 648 1055 q 671 990 671 1025 l 671 65 q 660 16 671 31 q 616 0 648 0 q 532 144 532 0 l 528 146 q 488 90 509 116 q 441 43 467 63 q 381 12 414 23 q 307 0 349 0 q 220 16 262 0 q 143 68 177 31 q 90 166 110 106 q 69 318 69 227 q 91 486 69 415 q 156 604 113 557 q 259 674 198 651 q 400 697 321 697 m 220 329 q 230 221 220 266 q 259 148 241 176 q 304 106 278 119 q 363 93 331 93 q 420 109 391 93 q 473 151 450 125 q 512 208 497 176 q 528 269 528 239 l 528 559 q 518 589 528 574 q 493 616 509 604 q 452 634 476 627 q 400 642 429 642 q 326 628 359 642 q 269 578 293 614 q 233 482 245 543 q 220 329 220 422 z "},"e":{"ha":729,"x_min":69,"x_max":673,"o":"m 604 175 q 620 186 610 182 q 639 191 629 191 q 661 182 651 191 q 671 161 671 174 q 653 114 671 136 q 397 0 560 0 q 254 23 316 0 q 152 89 193 45 q 90 193 111 132 q 69 332 69 254 q 152 604 69 511 q 395 697 235 697 q 509 679 458 697 q 597 625 560 661 q 653 537 633 589 q 673 418 673 485 q 595 350 673 350 l 221 350 q 220 337 220 345 q 220 319 220 329 q 231 212 220 260 q 267 131 243 164 q 327 79 290 97 q 412 61 363 61 q 482 72 453 61 q 532 97 511 82 q 567 130 553 113 q 591 159 581 146 l 604 175 m 386 642 q 276 585 319 642 q 225 408 234 528 l 485 408 q 520 417 509 408 q 532 449 532 426 q 520 532 532 496 q 488 592 508 568 q 441 629 468 616 q 386 642 415 642 z "},"f":{"ha":490,"x_min":33,"x_max":606,"o":"m 33 647 q 77 685 33 682 l 155 685 q 169 801 158 752 q 194 886 179 850 q 229 946 210 922 q 268 986 248 970 q 469 1055 352 1055 q 524 1049 499 1055 q 567 1032 549 1042 q 595 1008 585 1021 q 606 979 606 994 q 591 944 606 957 q 550 930 576 930 q 488 971 521 930 q 458 993 475 986 q 421 1000 441 1000 q 376 991 398 1000 q 337 960 354 983 q 309 900 319 938 q 298 803 298 861 l 298 685 l 453 685 q 489 676 477 685 q 501 654 501 667 q 488 629 501 640 q 453 618 475 618 l 298 618 l 298 94 q 294 46 298 64 q 278 18 289 28 q 251 4 268 7 q 210 0 234 0 q 166 16 178 0 q 154 65 154 32 l 154 618 l 78 618 q 33 647 33 618 z "},"g":{"ha":789,"x_min":72,"x_max":725,"o":"m 366 -250 q 452 -236 412 -250 q 520 -198 491 -222 q 566 -145 549 -175 q 582 -83 582 -115 q 562 -24 582 -47 q 510 13 543 -1 q 436 34 477 27 q 350 46 394 41 q 264 55 307 51 q 188 68 222 60 q 103 110 135 82 q 72 178 72 137 q 79 210 72 196 q 99 236 86 224 q 132 258 113 248 q 174 278 151 268 q 216 297 199 289 q 243 313 233 306 l 243 317 q 198 345 217 327 q 165 384 178 362 q 146 430 153 406 q 140 478 140 454 q 164 579 140 538 q 227 647 188 621 q 316 685 266 673 q 419 697 366 697 q 464 694 439 697 q 511 686 488 692 q 556 672 535 680 q 593 654 578 665 q 604 667 600 658 q 609 688 607 676 q 614 714 611 701 q 623 738 616 727 q 642 756 629 749 q 676 764 654 764 q 710 746 696 764 q 725 705 725 729 q 646 614 725 661 q 697 486 697 558 q 675 401 697 439 q 614 335 652 362 q 526 292 576 307 q 421 277 476 277 q 310 289 349 277 q 280 269 294 277 q 255 252 266 260 q 237 235 244 244 q 231 211 231 225 q 237 193 231 201 q 259 176 243 184 q 306 163 276 168 q 385 155 336 157 q 534 135 470 151 q 640 94 597 119 q 704 33 683 68 q 725 -43 725 -1 q 696 -148 725 -100 q 616 -232 668 -197 q 491 -286 564 -267 q 328 -306 418 -306 q 224 -293 271 -306 q 145 -257 178 -280 q 95 -203 113 -235 q 77 -135 77 -172 q 91 -76 77 -102 q 124 -31 105 -50 q 164 -3 144 -13 q 199 7 185 7 q 222 -1 214 7 q 231 -21 231 -9 q 223 -35 231 -26 q 208 -56 216 -43 q 192 -85 199 -68 q 184 -125 184 -102 q 198 -176 184 -153 q 237 -216 212 -199 q 294 -241 261 -233 q 366 -250 328 -250 m 554 489 q 545 551 554 523 q 518 599 536 579 q 476 630 501 619 q 419 642 451 642 q 320 600 356 642 q 283 484 283 557 q 293 421 283 449 q 319 373 302 393 q 361 342 336 353 q 419 332 387 332 q 475 343 450 332 q 517 376 500 355 q 545 426 535 397 q 554 489 554 454 z "},"h":{"ha":806,"x_min":111,"x_max":694,"o":"m 256 942 l 256 555 l 258 555 q 302 612 277 587 q 358 657 328 638 q 423 687 388 676 q 498 697 458 697 q 694 488 694 697 l 694 65 q 683 16 694 32 q 639 0 671 0 q 571 26 592 0 q 550 114 550 52 l 550 461 q 432 604 550 604 q 375 591 406 604 q 317 554 344 577 q 273 499 291 530 q 256 431 256 467 l 256 98 q 251 50 256 68 q 236 20 246 31 q 208 4 225 9 q 167 0 191 0 q 123 16 134 0 q 111 65 111 32 l 111 990 q 123 1040 111 1025 q 167 1055 134 1055 q 235 1029 214 1055 q 256 942 256 1003 z "},"i":{"ha":380,"x_min":102,"x_max":273,"o":"m 262 603 l 262 94 q 258 46 262 64 q 242 18 253 28 q 215 4 232 7 q 174 0 198 0 q 130 16 141 0 q 118 65 118 32 l 118 632 q 130 681 118 665 q 174 697 141 697 q 241 674 219 697 q 262 603 262 652 m 127 812 q 102 873 102 838 q 109 906 102 890 q 127 934 115 922 q 154 952 138 945 q 187 960 170 960 q 220 952 204 960 q 248 934 236 945 q 266 906 259 922 q 273 873 273 890 q 267 840 273 856 q 248 813 260 825 q 220 794 236 801 q 187 787 205 787 q 127 812 152 787 z "},"j":{"ha":380,"x_min":-24,"x_max":273,"o":"m 118 632 q 130 681 118 665 q 174 697 141 697 q 241 674 219 697 q 262 603 262 652 l 262 168 q 249 24 262 94 q 210 -104 235 -45 q 151 -209 185 -163 q 78 -282 117 -255 q 18 -306 44 -306 q -12 -298 1 -306 q -24 -277 -24 -291 q -20 -255 -24 -264 q -7 -239 -16 -246 q 14 -223 1 -231 q 45 -203 27 -215 q 78 -174 64 -191 q 101 -126 92 -156 q 114 -51 110 -96 q 118 61 118 -5 l 118 632 m 127 812 q 102 873 102 838 q 109 906 102 890 q 127 934 115 922 q 154 952 138 945 q 187 960 170 960 q 220 952 204 960 q 248 934 236 945 q 266 906 259 922 q 273 873 273 890 q 267 840 273 856 q 248 813 260 825 q 220 794 236 801 q 187 787 205 787 q 127 812 152 787 z "},"k":{"ha":713,"x_min":111,"x_max":685,"o":"m 256 942 l 256 387 l 487 600 q 536 643 515 625 q 575 674 557 662 q 609 691 593 686 q 643 697 625 697 q 684 660 684 697 q 679 640 684 648 q 663 621 674 631 q 635 600 652 612 q 591 572 617 588 l 545 542 q 519 525 531 533 q 494 506 507 516 q 466 483 481 496 q 430 454 450 471 l 372 407 q 412 361 387 390 q 467 297 437 332 q 528 225 496 262 q 587 156 559 188 q 634 101 614 124 q 660 71 654 78 q 685 26 685 41 q 683 16 685 21 q 674 8 681 12 q 654 2 667 4 q 618 0 640 0 q 579 2 595 0 q 552 10 564 5 q 531 23 540 15 q 513 43 522 31 q 501 57 515 40 q 464 101 487 73 q 413 164 441 129 q 357 233 385 199 q 306 295 330 267 q 271 338 283 323 l 256 321 l 256 98 q 251 50 256 68 q 236 20 246 31 q 208 4 225 9 q 167 0 191 0 q 123 16 134 0 q 111 65 111 32 l 111 990 q 123 1040 111 1025 q 167 1055 134 1055 q 235 1029 214 1055 q 256 942 256 1003 z "},"l":{"ha":380,"x_min":118,"x_max":262,"o":"m 262 942 l 262 94 q 258 46 262 64 q 242 18 253 28 q 215 4 232 7 q 174 0 198 0 q 130 16 141 0 q 118 65 118 32 l 118 990 q 130 1040 118 1025 q 174 1055 141 1055 q 241 1029 220 1055 q 262 942 262 1003 z "},"m":{"ha":1152,"x_min":111,"x_max":1040,"o":"m 897 114 l 897 461 q 872 572 897 540 q 796 604 847 604 q 744 589 770 604 q 696 550 718 574 q 661 494 675 526 q 647 431 647 463 l 647 98 q 642 49 647 68 q 627 19 637 30 q 600 4 616 8 q 559 0 583 0 q 516 16 528 0 q 504 65 504 32 l 504 461 q 479 572 504 540 q 403 604 454 604 q 350 591 376 604 q 302 556 323 578 q 268 505 281 534 q 254 444 254 476 l 254 98 q 250 50 254 68 q 235 19 245 31 q 208 4 224 8 q 167 0 191 0 q 123 16 134 0 q 111 65 111 32 l 111 637 q 125 684 111 671 q 171 697 138 697 q 252 578 252 697 l 252 568 l 254 568 q 290 618 271 595 q 334 660 309 642 q 392 687 359 677 q 469 697 425 697 q 642 554 618 697 l 644 554 q 685 611 663 585 q 732 656 706 637 q 790 686 758 675 q 863 697 822 697 q 1040 488 1040 697 l 1040 65 q 1029 16 1040 32 q 985 0 1017 0 q 918 26 938 0 q 897 114 897 52 z "},"n":{"ha":806,"x_min":111,"x_max":694,"o":"m 111 65 l 111 637 q 125 684 111 671 q 171 697 138 697 q 231 667 210 697 q 253 578 253 637 l 253 568 l 256 568 q 354 662 292 627 q 498 697 415 697 q 694 488 694 697 l 694 65 q 683 16 694 32 q 639 0 671 0 q 571 26 592 0 q 550 114 550 52 l 550 461 q 432 604 550 604 q 370 591 401 604 q 314 556 339 578 q 272 505 288 534 q 256 444 256 476 l 256 98 q 251 50 256 68 q 236 20 246 31 q 208 4 225 9 q 167 0 191 0 q 123 16 134 0 q 111 65 111 32 z "},"o":{"ha":775,"x_min":69,"x_max":705,"o":"m 387 0 q 253 22 312 0 q 153 87 193 43 q 91 196 112 131 q 69 349 69 261 q 92 503 69 437 q 155 611 114 568 q 255 676 197 654 q 387 697 314 697 q 520 676 461 697 q 621 611 579 654 q 684 502 662 568 q 705 349 705 437 q 684 196 705 261 q 623 87 663 131 q 523 22 582 43 q 387 0 463 0 m 387 56 q 455 68 425 56 q 509 113 486 81 q 543 203 531 146 q 555 349 555 260 q 543 491 555 435 q 508 582 530 548 q 455 628 486 615 q 387 642 424 642 q 321 628 352 642 q 268 582 291 615 q 233 491 245 548 q 220 349 220 435 q 231 207 220 263 q 265 116 243 150 q 318 69 287 83 q 387 56 349 56 z "},"p":{"ha":786,"x_min":111,"x_max":713,"o":"m 111 -240 l 111 637 q 165 697 111 697 q 231 669 210 697 q 253 578 252 641 l 253 567 l 254 567 q 295 622 273 597 q 343 663 317 646 q 402 688 370 680 q 475 697 435 697 q 713 383 713 697 q 690 216 713 288 q 625 96 667 144 q 520 24 582 48 q 382 0 459 0 q 256 26 311 0 l 256 -207 q 251 -256 256 -237 q 236 -287 246 -275 q 208 -302 225 -298 q 167 -306 191 -306 q 123 -290 134 -306 q 111 -240 111 -275 m 562 372 q 552 486 562 441 q 522 557 541 531 q 477 594 503 583 q 419 604 450 604 q 361 590 391 604 q 309 553 332 576 q 270 501 285 530 q 254 441 254 472 l 254 140 q 263 110 254 125 q 289 82 272 94 q 329 63 305 71 q 382 56 353 56 q 456 71 422 56 q 513 124 490 87 q 549 221 536 161 q 562 372 562 282 z "},"q":{"ha":782,"x_min":69,"x_max":671,"o":"m 671 545 l 671 -233 q 659 -283 671 -268 q 615 -298 648 -298 q 574 -294 591 -298 q 547 -280 557 -290 q 531 -250 536 -269 q 526 -200 526 -231 l 526 127 l 524 127 q 307 0 453 0 q 69 314 69 0 q 92 483 69 411 q 156 603 114 555 q 260 674 199 650 q 400 697 321 697 q 471 692 435 697 q 540 679 507 688 q 601 655 573 669 q 646 623 629 642 q 671 545 671 597 m 528 250 l 528 568 q 519 596 528 583 q 494 620 510 610 q 454 636 477 630 q 400 642 430 642 q 326 627 359 642 q 269 576 293 612 q 233 479 245 540 q 220 325 220 418 q 230 211 220 256 q 260 140 241 166 q 305 103 279 114 q 363 93 332 93 q 419 107 390 93 q 472 143 448 121 q 512 194 496 165 q 528 250 528 222 z "},"r":{"ha":549,"x_min":111,"x_max":561,"o":"m 561 637 q 507 583 561 583 l 461 583 q 368 568 407 583 q 304 529 329 553 q 267 473 279 505 q 256 410 256 442 l 256 98 q 251 50 256 68 q 236 20 246 31 q 208 4 225 9 q 167 0 191 0 q 123 16 134 0 q 111 65 111 32 l 111 637 q 125 684 111 671 q 171 697 138 697 q 231 667 210 697 q 253 578 253 637 l 253 543 l 256 543 q 287 590 268 564 q 333 641 306 616 q 396 681 360 665 q 479 697 433 697 l 496 697 q 545 683 530 697 q 561 637 559 668 z "},"s":{"ha":686,"x_min":68,"x_max":627,"o":"m 485 170 q 457 238 481 212 q 382 285 433 264 l 302 314 l 249 332 q 183 360 214 345 q 129 395 153 374 q 92 444 106 415 q 78 513 78 472 q 92 581 78 552 q 127 631 105 610 q 178 665 150 652 q 234 685 205 677 q 290 694 263 692 q 335 697 316 697 q 443 687 396 697 q 523 659 490 676 q 572 618 555 641 q 589 570 589 595 q 572 533 589 547 q 534 519 556 519 q 490 532 508 519 q 460 570 471 545 q 336 642 425 642 q 249 614 281 642 q 216 532 216 587 q 223 499 216 514 q 243 473 231 485 q 270 452 255 461 q 300 437 285 443 l 338 420 l 385 404 q 422 392 404 397 q 458 379 440 386 q 493 364 476 372 q 528 345 511 355 q 566 319 548 333 q 597 290 583 306 q 618 253 610 273 q 627 207 627 233 q 606 122 627 161 q 547 57 585 84 q 456 15 509 30 q 339 0 403 0 q 240 9 288 0 q 153 36 191 18 q 91 79 115 54 q 68 136 68 104 q 73 157 68 147 q 85 173 77 166 q 102 183 92 180 q 122 187 112 187 q 199 138 176 187 q 215 109 205 123 q 241 82 225 94 q 282 63 258 71 q 342 56 306 56 q 398 62 372 56 q 444 83 425 69 q 474 119 463 98 q 485 170 485 140 z "},"t":{"ha":591,"x_min":31,"x_max":578,"o":"m 296 796 l 296 697 l 450 697 q 487 688 475 697 q 498 667 498 680 q 485 642 498 652 q 450 631 472 631 l 296 631 l 296 187 q 302 131 296 155 q 320 91 309 106 q 347 68 332 76 q 379 61 362 61 q 425 71 406 61 q 456 95 444 81 q 478 126 469 109 q 496 158 488 144 q 516 182 505 172 q 542 192 526 192 q 568 183 558 192 q 578 158 578 174 q 571 131 578 147 q 557 106 564 115 q 471 26 522 53 q 363 0 420 0 q 260 16 301 0 q 195 61 220 32 q 161 130 171 90 q 151 220 151 171 l 151 631 l 75 631 q 41 637 51 631 q 31 660 31 644 q 47 683 31 674 q 89 705 64 692 q 144 743 115 719 q 201 813 174 768 q 217 841 210 829 q 229 859 223 852 q 242 869 235 866 q 258 872 249 872 q 289 856 282 872 q 296 796 296 839 z "},"u":{"ha":806,"x_min":111,"x_max":694,"o":"m 256 583 l 256 236 q 374 93 256 93 q 435 106 404 93 q 492 141 467 119 q 534 192 517 163 q 550 253 550 220 l 550 597 q 555 648 550 629 q 571 678 560 667 q 598 693 581 689 q 639 697 615 697 q 683 681 671 697 q 694 632 694 665 l 694 60 q 681 14 694 27 q 635 0 667 0 q 553 119 553 0 l 553 129 l 550 129 q 451 35 513 70 q 307 0 389 0 q 111 210 111 0 l 111 632 q 123 681 111 665 q 167 697 134 697 q 235 671 214 697 q 256 583 256 645 z "},"v":{"ha":711,"x_min":41,"x_max":669,"o":"m 625 697 q 669 665 669 697 q 663 628 669 642 l 431 35 q 350 0 417 0 q 277 35 290 0 l 49 628 q 41 660 41 644 q 93 697 41 697 q 159 674 130 697 q 207 604 189 652 l 375 136 l 382 136 l 476 387 q 547 611 507 471 q 575 675 559 652 q 625 697 591 697 z "},"w":{"ha":1067,"x_min":41,"x_max":1025,"o":"m 555 697 q 585 692 573 697 q 606 673 597 687 q 623 633 614 659 q 642 567 631 608 l 754 136 l 761 136 l 825 323 q 848 398 836 355 q 870 484 859 441 q 889 561 881 527 q 901 608 897 595 q 914 644 907 627 q 929 672 920 660 q 951 690 939 684 q 981 697 963 697 q 1025 665 1025 697 q 1018 628 1025 642 l 810 35 q 729 0 798 0 q 656 35 669 0 l 536 468 l 528 468 l 380 35 q 300 0 368 0 q 227 35 239 0 l 49 628 q 41 660 41 644 q 93 697 41 697 q 129 692 111 697 q 162 675 147 686 q 190 646 178 663 q 207 604 201 628 l 325 136 l 332 136 l 396 325 q 418 398 407 356 q 445 493 430 439 l 476 607 q 492 652 485 635 q 508 680 500 670 q 528 693 517 690 q 555 697 539 697 z "},"x":{"ha":671,"x_min":49,"x_max":623,"o":"m 66 69 l 269 339 l 93 610 q 78 638 83 625 q 74 664 74 652 q 87 689 74 681 q 118 697 100 697 q 185 681 160 697 q 232 628 211 664 l 353 427 l 358 427 l 497 652 q 531 688 513 678 q 576 697 548 697 q 611 671 611 697 q 596 628 611 653 l 411 371 l 606 77 q 623 36 623 49 q 571 0 623 0 q 532 4 548 0 q 504 16 516 8 q 482 37 492 24 q 461 66 472 50 l 326 277 l 323 277 l 167 40 q 135 9 152 18 q 86 0 117 0 q 49 28 49 0 q 66 69 49 46 z "},"y":{"ha":711,"x_min":41,"x_max":669,"o":"m 663 628 l 422 11 q 393 -60 409 -23 q 357 -132 377 -97 q 314 -198 338 -167 q 264 -254 291 -230 q 205 -292 237 -278 q 138 -306 174 -306 q 90 -291 109 -306 q 71 -256 71 -277 q 146 -193 71 -193 q 212 -182 184 -193 q 259 -150 239 -172 q 294 -93 279 -127 q 323 -12 309 -59 l 49 628 q 43 643 45 635 q 41 660 41 650 q 93 697 41 697 q 158 674 127 697 q 207 604 188 652 l 389 150 l 396 150 l 479 393 q 507 478 490 425 q 545 610 523 532 q 573 674 555 650 q 625 697 591 697 q 669 665 669 697 q 663 628 669 648 z "},"z":{"ha":659,"x_min":41,"x_max":616,"o":"m 115 697 l 566 697 q 604 685 592 697 q 616 657 616 673 q 611 624 616 639 q 596 596 606 609 l 196 65 l 479 65 l 479 98 q 483 144 479 127 q 496 171 487 161 q 519 184 505 180 q 555 187 534 187 q 596 173 585 187 q 607 129 607 159 l 607 43 q 562 0 607 0 l 94 0 q 54 12 66 0 q 41 40 41 24 q 62 102 41 72 l 460 632 l 199 632 l 199 599 q 195 554 199 572 q 183 527 192 537 q 159 514 174 517 q 122 510 144 510 q 82 524 94 510 q 71 568 71 538 l 71 654 q 115 697 71 697 z "},"{":{"ha":561,"x_min":111,"x_max":505,"o":"m 245 -3 q 246 36 245 15 q 248 78 247 57 q 250 117 249 99 q 250 147 250 136 q 244 212 250 176 q 224 278 238 247 q 188 330 210 309 q 134 351 166 351 q 117 363 123 351 q 111 390 111 374 q 117 418 111 406 q 134 429 123 429 q 189 451 166 429 q 224 503 211 472 q 244 569 238 534 q 250 633 250 605 q 250 663 250 645 q 248 703 249 682 q 246 745 247 724 q 245 783 245 766 q 248 829 245 803 q 259 882 251 854 q 283 935 268 909 q 322 982 298 961 q 381 1015 347 1002 q 464 1028 416 1028 q 495 1018 484 1028 q 505 993 505 1008 q 496 967 505 979 q 471 951 487 956 q 376 829 376 929 q 377 810 376 825 q 378 775 377 795 q 380 732 379 755 q 381 690 380 709 q 383 657 382 671 q 383 642 383 644 q 378 560 383 598 q 359 490 373 522 q 320 434 345 458 q 256 393 295 410 l 256 387 q 319 348 294 372 q 358 292 344 323 q 378 222 372 261 q 383 139 383 184 q 383 124 383 137 q 381 91 382 111 q 380 48 380 71 q 378 6 379 26 q 377 -30 377 -14 q 376 -49 376 -45 q 471 -171 376 -149 q 496 -186 487 -175 q 505 -212 505 -198 q 495 -238 505 -228 q 464 -248 484 -248 q 382 -235 416 -248 q 323 -202 347 -222 q 284 -155 299 -181 q 260 -102 269 -129 q 249 -49 252 -75 q 245 -3 245 -23 z "},"|":{"ha":364,"x_min":125,"x_max":239,"o":"m 125 -49 l 125 993 q 142 1019 125 1009 q 182 1028 159 1028 q 221 1018 204 1028 q 239 993 239 1008 l 239 -49 q 222 -74 239 -65 q 182 -83 205 -83 q 141 -74 158 -83 q 125 -49 125 -65 z "},"}":{"ha":561,"x_min":56,"x_max":450,"o":"m 315 -3 q 312 -48 315 -22 q 301 -101 309 -74 q 278 -154 293 -128 q 239 -201 263 -180 q 179 -235 214 -222 q 97 -248 144 -248 q 66 -238 77 -248 q 56 -212 56 -228 q 65 -186 56 -198 q 90 -171 74 -175 q 184 -49 184 -149 q 184 -30 184 -45 q 183 6 184 -14 q 181 48 182 26 q 179 91 180 71 q 178 124 178 111 q 178 139 178 137 q 183 223 178 184 q 204 293 189 262 q 243 348 218 324 q 306 387 268 372 l 306 393 q 242 434 267 410 q 203 489 217 458 q 183 559 189 521 q 178 642 178 597 q 178 657 178 644 q 179 690 178 671 q 181 732 180 709 q 183 775 182 755 q 184 810 184 795 q 184 829 184 825 q 90 951 184 929 q 65 967 74 956 q 56 993 56 979 q 66 1018 56 1008 q 97 1028 77 1028 q 178 1016 144 1028 q 237 982 213 1003 q 277 936 262 962 q 301 882 292 909 q 312 829 309 855 q 315 783 315 803 q 315 745 315 766 q 313 703 314 724 q 312 663 313 682 q 311 633 311 645 q 314 591 311 614 q 322 546 317 569 q 337 503 328 524 q 359 465 346 481 q 389 439 372 449 q 428 429 406 429 q 445 418 439 429 q 450 390 450 406 q 445 363 450 374 q 428 351 439 351 q 389 342 406 351 q 359 316 372 332 q 337 279 347 300 q 322 235 328 258 q 314 190 317 212 q 311 147 311 167 q 312 117 311 136 q 313 78 313 99 q 315 36 314 57 q 315 -3 315 15 z "},"~":{"ha":1015,"x_min":125,"x_max":890,"o":"m 782 576 q 843 612 798 612 q 878 602 865 612 q 890 578 890 592 q 886 555 890 566 q 834 457 862 494 q 776 402 806 421 q 718 378 747 383 q 663 372 688 372 q 568 389 613 372 q 483 427 522 406 q 411 464 444 447 q 354 481 378 481 q 282 459 309 481 q 233 389 254 437 q 223 374 230 380 q 208 363 216 368 q 189 356 199 359 q 171 354 180 354 q 125 390 125 354 q 131 421 125 399 q 164 494 142 463 q 214 547 186 526 q 277 579 243 568 q 347 590 311 590 q 419 580 384 590 q 486 555 454 570 q 548 526 519 541 q 602 499 577 510 q 671 482 642 482 q 733 504 708 482 q 782 576 759 526 z "},"":{"ha":416,"x_min":0,"x_max":0,"o":"z "},"":{"ha":428,"x_min":118,"x_max":311,"o":"m 142 71 l 142 672 q 148 691 142 683 q 164 705 154 699 q 189 713 175 711 q 217 716 202 716 q 243 713 231 716 q 267 706 256 711 q 283 693 277 701 q 289 675 289 685 l 289 672 l 289 69 q 220 0 289 0 q 160 18 178 0 q 142 71 142 35 m 311 889 q 303 852 311 869 q 282 821 296 834 q 252 800 269 808 q 215 791 234 791 q 178 799 195 791 q 147 820 160 807 q 126 851 134 833 q 118 889 118 869 q 126 925 118 908 q 148 956 134 943 q 178 977 161 969 q 215 985 196 985 q 252 977 234 985 q 282 955 269 968 q 303 925 296 942 q 311 889 311 907 z "},"":{"ha":736,"x_min":83,"x_max":667,"o":"m 600 175 q 615 186 606 182 q 635 191 625 191 q 657 182 647 191 q 667 161 667 174 q 662 137 667 148 q 648 114 657 125 q 436 1 566 10 l 436 -121 l 436 -122 q 422 -138 436 -133 q 392 -143 408 -143 q 360 -138 374 -143 q 347 -121 347 -132 l 347 3 q 228 37 277 9 q 145 108 178 64 q 98 213 113 153 q 83 347 83 273 q 102 489 83 428 q 155 592 121 550 q 238 660 189 635 q 347 693 287 684 l 347 800 q 361 816 347 811 q 392 821 374 821 q 423 816 410 821 q 436 800 436 811 l 436 696 q 516 681 477 694 q 585 648 555 668 q 633 602 615 627 q 652 549 652 576 q 647 526 652 536 q 633 509 642 516 q 614 498 625 502 q 593 494 604 494 q 545 509 562 494 q 518 553 528 524 q 489 607 507 583 q 436 639 471 631 l 436 62 q 512 86 481 68 q 564 131 543 105 l 584 155 l 600 175 m 233 347 q 260 162 233 231 q 347 71 286 93 l 347 632 q 297 602 318 623 q 261 546 275 581 q 240 462 247 511 q 233 347 233 413 z "},"":{"ha":736,"x_min":28,"x_max":708,"o":"m 57 547 l 134 547 l 134 654 q 155 802 134 740 q 217 905 177 865 q 315 965 258 946 q 446 985 373 985 q 477 983 458 985 q 517 979 496 982 q 561 971 538 976 q 603 961 583 967 q 638 948 623 956 q 661 932 653 941 q 672 888 672 918 l 672 811 q 657 758 672 774 q 612 742 643 742 q 554 762 572 742 q 536 832 536 783 l 536 903 q 486 911 508 908 q 446 914 463 914 q 279 685 279 914 l 279 547 l 530 547 q 552 536 544 547 q 559 509 559 524 q 552 482 559 494 q 530 471 544 471 l 279 471 l 279 74 l 572 74 l 572 163 q 592 232 572 212 q 653 253 612 253 q 696 237 684 253 q 708 183 708 220 l 708 45 q 688 10 708 20 q 625 0 668 0 l 75 0 q 49 36 49 0 q 75 74 49 74 l 134 74 l 134 471 l 57 471 q 36 482 43 471 q 28 509 28 494 q 36 536 28 524 q 57 547 43 547 z "},"":{"ha":736,"x_min":12,"x_max":724,"o":"m 550 732 l 644 827 q 661 833 651 833 q 682 827 671 833 q 702 812 692 821 q 718 791 711 802 q 724 771 724 781 q 717 754 724 761 l 624 661 q 682 478 682 576 q 623 296 682 378 l 715 203 q 722 184 722 196 q 716 164 722 175 q 702 145 711 154 q 682 130 692 136 q 661 123 671 123 q 643 131 648 123 l 550 224 q 368 164 460 164 q 184 222 275 164 l 92 129 q 75 122 85 122 q 55 128 66 122 q 34 143 43 134 q 18 164 24 153 q 12 184 12 175 q 20 201 12 194 l 113 294 q 56 478 56 376 q 113 661 56 574 l 21 753 q 14 771 14 758 q 20 791 14 781 q 35 811 26 802 q 55 826 44 821 q 75 832 66 832 q 93 825 86 832 l 186 732 q 368 790 275 790 q 550 732 461 790 m 368 692 q 286 674 325 692 q 218 628 247 657 q 171 560 189 599 q 154 478 154 521 q 171 395 154 434 q 217 327 188 356 q 286 280 247 297 q 368 262 324 262 q 452 279 413 262 q 520 326 492 296 q 566 394 549 355 q 583 478 583 433 q 566 560 583 522 q 519 628 549 599 q 451 674 490 657 q 368 692 412 692 z "},"":{"ha":736,"x_min":25,"x_max":711,"o":"m 103 292 l 294 292 l 294 372 l 103 372 q 82 384 90 372 q 74 410 74 395 q 82 437 74 426 q 103 449 90 449 l 257 449 l 33 901 q 25 936 25 920 q 39 971 25 957 q 74 985 52 985 q 132 969 109 985 q 175 913 155 954 l 386 476 l 392 476 l 593 911 q 673 985 626 985 q 702 971 692 985 q 711 939 711 958 q 709 924 711 931 q 704 908 708 916 l 476 449 l 635 449 q 656 437 648 449 q 664 410 664 426 q 656 384 664 395 q 635 372 648 372 l 439 372 l 439 292 l 635 292 q 656 280 648 292 q 664 253 664 269 q 656 227 664 238 q 635 215 648 215 l 439 215 l 439 83 q 419 18 439 35 q 357 0 400 0 q 294 69 294 0 l 294 215 l 103 215 q 82 227 90 215 q 74 253 74 238 q 82 280 74 269 q 103 292 90 292 z "},"":{"ha":364,"x_min":125,"x_max":239,"o":"m 125 596 l 125 993 q 142 1019 125 1009 q 182 1028 159 1028 q 221 1018 204 1028 q 239 993 239 1008 l 239 596 q 222 570 239 579 q 182 561 205 561 q 141 570 158 561 q 125 596 125 579 m 125 -49 l 125 349 q 142 374 125 365 q 182 383 159 383 q 221 374 204 383 q 239 349 239 364 l 239 -49 q 222 -74 239 -65 q 182 -83 205 -83 q 141 -74 158 -83 q 125 -49 125 -65 z "},"":{"ha":798,"x_min":111,"x_max":686,"o":"m 211 5 q 269 -14 250 5 q 288 -81 288 -34 l 288 -153 q 372 -161 318 -161 q 414 -153 395 -161 q 446 -131 433 -145 q 465 -97 458 -117 q 472 -53 472 -77 q 465 -7 472 -28 q 444 34 457 15 q 414 70 431 54 q 378 100 397 86 l 301 153 q 217 216 253 186 q 158 274 182 245 q 123 333 135 302 q 111 401 111 364 q 118 459 111 432 q 142 513 125 486 q 185 570 159 541 q 250 633 212 599 q 184 796 184 697 q 197 866 184 832 q 237 926 210 900 q 311 969 265 953 q 421 985 356 985 q 492 981 454 985 q 564 967 531 977 q 620 938 597 956 q 642 892 642 920 l 642 814 q 628 763 642 779 q 585 747 615 747 q 528 767 546 747 q 510 833 510 787 l 510 905 q 422 914 479 914 q 349 889 374 914 q 325 815 325 864 q 366 707 325 757 l 393 678 q 407 665 397 673 q 427 648 416 657 q 447 632 437 640 q 462 621 457 624 l 501 593 q 577 536 543 562 q 636 483 612 510 q 673 427 660 456 q 686 358 686 397 q 649 237 686 294 q 541 119 612 180 q 564 92 552 106 q 587 59 576 77 q 603 17 597 40 q 610 -35 610 -5 q 595 -106 610 -71 q 551 -170 581 -142 q 477 -215 522 -198 q 372 -232 433 -232 q 303 -228 340 -232 q 232 -214 265 -224 q 177 -185 199 -203 q 155 -139 155 -168 l 155 -61 q 169 -10 155 -26 q 211 5 182 5 m 309 575 q 225 427 225 512 q 245 365 225 394 q 300 307 265 336 q 384 246 336 278 q 486 175 431 214 q 574 317 574 251 q 564 356 574 336 q 538 394 555 375 q 498 432 522 413 q 449 471 475 451 l 376 523 q 339 551 355 538 q 309 575 322 564 z "},"":{"ha":758,"x_min":158,"x_max":600,"o":"m 158 872 q 165 905 158 889 q 183 932 172 920 q 211 950 195 943 q 243 957 226 957 q 275 950 260 957 q 302 931 290 943 q 321 904 314 920 q 328 872 328 889 q 321 840 328 855 q 302 813 314 825 q 275 794 291 801 q 243 787 260 787 q 211 794 226 787 q 183 813 195 801 q 165 840 172 825 q 158 872 158 855 m 431 872 q 437 904 431 889 q 456 931 444 920 q 483 950 468 943 q 515 957 498 957 q 548 950 532 957 q 574 931 563 943 q 593 904 586 920 q 600 872 600 889 q 593 840 600 855 q 574 813 586 825 q 548 794 563 801 q 515 787 532 787 q 483 794 498 787 q 456 813 467 801 q 437 840 444 825 q 431 872 431 855 z "},"":{"ha":1166,"x_min":69,"x_max":1097,"o":"m 191 660 q 158 493 158 579 q 173 378 158 433 q 217 274 189 322 q 284 186 245 226 q 370 119 323 147 q 471 75 417 91 q 583 60 526 60 q 699 76 644 60 q 801 121 753 92 q 886 191 848 151 q 952 279 925 231 q 994 382 979 328 q 1008 493 1008 436 q 993 607 1008 552 q 950 710 978 662 q 884 798 922 758 q 798 866 845 838 q 696 911 750 895 q 583 926 642 926 q 456 906 516 926 q 345 851 395 886 q 255 766 294 815 q 191 660 216 718 m 726 596 q 659 660 659 596 l 659 710 q 623 715 640 715 q 482 490 482 715 q 618 273 482 273 q 659 280 635 273 q 703 294 682 286 q 740 309 724 302 q 760 315 756 315 q 784 307 774 315 q 793 288 793 299 q 784 266 793 276 q 759 248 774 256 q 725 234 744 240 q 685 224 705 229 q 645 218 665 220 q 608 216 625 216 q 411 287 477 216 q 345 492 345 357 q 365 621 345 568 q 421 707 385 674 q 506 754 457 739 q 612 768 555 768 q 669 765 640 768 q 725 754 699 762 q 767 734 750 747 q 783 704 783 722 l 783 648 q 726 596 783 596 m 583 999 q 716 982 652 999 q 839 932 781 964 q 943 855 896 901 q 1025 754 991 810 q 1078 632 1059 698 q 1097 493 1097 566 q 1080 361 1097 425 q 1029 241 1062 298 q 951 139 997 185 q 848 59 905 92 q 724 6 791 25 q 583 -12 657 -12 q 447 5 513 -12 q 325 56 382 23 q 220 134 267 88 q 140 236 174 180 q 88 357 106 292 q 69 493 69 422 q 88 629 69 564 q 140 751 106 694 q 221 853 174 807 q 326 931 269 899 q 448 981 382 964 q 583 999 513 999 z "},"":{"ha":572,"x_min":49,"x_max":496,"o":"m 446 484 q 397 502 413 484 q 378 559 382 521 q 210 484 314 484 q 90 522 130 484 q 49 623 49 559 q 309 794 49 794 l 374 794 l 374 818 q 352 909 374 882 q 282 936 330 936 q 203 896 247 936 q 135 861 170 861 q 89 897 89 861 q 107 933 89 917 q 155 960 125 949 q 223 978 185 972 q 301 985 261 985 q 395 974 357 985 q 454 940 432 962 q 486 882 477 917 q 496 802 496 848 l 496 534 q 486 495 496 507 q 446 484 475 484 m 374 745 l 325 745 q 171 633 171 745 q 249 555 171 555 q 290 563 268 555 q 331 586 312 571 q 361 621 349 600 q 374 668 374 642 l 374 745 z "},"":{"ha":766,"x_min":97,"x_max":669,"o":"m 458 596 l 252 326 l 458 62 q 465 45 465 54 q 460 29 465 37 q 446 15 454 21 q 428 4 438 8 q 410 0 418 0 q 389 8 395 0 l 109 298 q 97 326 97 310 q 109 354 97 342 l 389 650 q 410 659 397 659 q 428 655 418 659 q 446 645 438 651 q 460 631 454 639 q 465 614 465 623 q 458 596 465 605 m 665 526 l 525 314 l 665 111 q 669 98 669 105 q 664 83 669 90 q 650 70 659 75 q 631 61 641 64 q 611 58 621 58 q 597 64 601 58 l 400 283 q 387 314 387 297 q 400 346 387 331 l 597 574 q 611 579 603 579 q 630 576 620 579 q 649 567 640 573 q 664 554 658 562 q 669 539 669 547 q 665 526 669 532 z "},"":{"ha":1069,"x_min":83,"x_max":958,"o":"m 110 546 l 914 546 q 947 532 935 546 q 958 498 958 517 l 958 224 q 941 203 958 210 q 901 196 924 196 q 861 203 878 196 q 844 224 844 210 l 844 441 l 110 441 q 90 457 97 441 q 83 493 83 472 q 90 530 83 515 q 110 546 97 546 z "},"":{"ha":607,"x_min":69,"x_max":537,"o":"m 510 298 l 97 298 l 95 298 q 76 316 82 298 q 69 354 69 333 q 76 392 69 375 q 95 410 82 410 l 97 410 l 510 410 q 530 393 524 410 q 537 354 537 376 q 530 315 537 332 q 510 298 524 298 z "},"":{"ha":1166,"x_min":69,"x_max":1097,"o":"m 583 999 q 716 982 652 999 q 839 932 781 964 q 943 855 896 901 q 1025 754 991 810 q 1078 632 1059 698 q 1097 493 1097 566 q 1080 361 1097 425 q 1029 241 1062 298 q 951 139 997 185 q 848 59 905 92 q 724 6 791 25 q 583 -12 657 -12 q 447 5 513 -12 q 325 56 382 23 q 220 134 267 88 q 140 236 174 180 q 88 357 106 292 q 69 493 69 422 q 88 629 69 564 q 140 751 106 694 q 221 853 174 807 q 326 931 269 899 q 448 981 382 964 q 583 999 513 999 m 191 660 q 158 493 158 579 q 173 378 158 433 q 217 274 189 322 q 284 186 245 226 q 370 119 323 147 q 471 75 417 91 q 583 60 526 60 q 699 76 644 60 q 801 121 753 92 q 886 191 848 151 q 952 279 925 231 q 994 382 979 328 q 1008 493 1008 436 q 993 607 1008 552 q 950 710 978 662 q 884 798 922 758 q 798 866 845 838 q 696 911 750 895 q 583 926 642 926 q 456 906 516 926 q 345 851 395 886 q 255 766 294 815 q 191 660 216 718 m 387 261 l 387 724 q 400 758 387 748 q 443 768 412 768 l 590 768 q 807 614 807 768 q 796 563 807 587 q 767 519 785 538 q 724 487 748 500 q 673 468 700 473 l 796 272 q 806 245 806 252 q 745 216 806 216 q 673 249 694 216 l 546 458 l 517 458 l 517 273 q 499 229 517 242 q 446 216 482 216 q 387 261 387 216 m 582 715 l 517 715 l 517 513 l 576 513 q 613 519 595 513 q 645 538 631 525 q 667 570 659 551 q 675 618 675 590 q 582 715 675 715 z "},"":{"ha":766,"x_min":180,"x_max":586,"o":"m 558 819 l 208 819 q 188 832 195 819 q 180 869 180 846 q 188 908 180 892 q 208 924 195 924 l 558 924 q 578 908 571 924 q 586 869 586 891 q 578 832 586 846 q 558 819 571 819 z "},"":{"ha":461,"x_min":69,"x_max":392,"o":"m 69 844 q 82 908 69 878 q 117 960 95 938 q 169 995 140 982 q 232 1007 199 1007 q 294 994 264 1007 q 345 959 323 981 q 379 907 366 937 q 392 844 392 878 q 379 784 392 812 q 345 733 367 755 q 294 699 323 711 q 232 686 265 686 q 169 699 198 686 q 117 733 139 711 q 82 783 95 755 q 69 844 69 812 m 146 843 q 153 812 146 827 q 171 786 159 798 q 198 768 182 774 q 231 761 213 761 q 263 768 248 761 q 290 786 279 774 q 309 812 302 798 q 315 843 315 827 q 308 879 315 863 q 288 907 300 895 q 260 925 275 919 q 231 932 245 932 q 199 925 214 932 q 172 905 183 918 q 153 877 160 893 q 146 843 146 861 z "},"":{"ha":1000,"x_min":125,"x_max":874,"o":"m 444 546 l 153 546 l 151 546 q 131 563 138 546 q 125 602 125 581 q 131 640 125 623 q 151 657 138 657 l 153 657 l 444 657 l 444 900 q 461 920 444 913 q 500 927 478 927 q 538 920 522 927 q 555 900 555 913 l 555 657 l 847 657 q 867 640 861 657 q 874 602 874 623 q 867 563 874 580 q 847 546 861 546 l 555 546 l 555 302 l 555 300 q 538 282 555 288 q 500 275 521 275 q 461 282 479 275 q 444 300 444 288 l 444 302 l 444 546 m 847 85 l 153 85 l 151 85 q 131 102 138 85 q 125 140 125 119 q 131 179 125 161 q 151 196 138 196 l 153 196 l 847 196 q 867 179 861 196 q 874 140 874 162 q 867 102 874 119 q 847 85 861 85 z "},"":{"ha":500,"x_min":43,"x_max":416,"o":"m 98 807 q 62 818 73 807 q 51 852 51 828 l 51 899 q 61 923 51 911 q 88 944 71 935 q 125 962 104 954 q 168 974 146 969 q 209 982 189 979 q 243 985 229 985 q 317 974 286 985 q 369 943 349 962 q 400 897 390 923 q 411 840 411 871 q 397 767 411 804 q 351 687 383 730 q 268 594 319 644 q 143 484 217 545 l 313 484 l 313 522 q 327 565 313 553 q 370 578 341 578 q 406 568 395 578 q 416 535 416 557 l 416 457 q 401 434 416 441 q 354 428 387 428 l 77 428 q 43 454 43 428 q 69 494 43 470 q 234 681 180 597 q 289 829 289 764 q 286 864 289 846 q 274 898 283 882 q 251 923 266 913 q 214 933 237 933 q 155 917 189 933 l 155 864 q 143 820 155 833 q 98 807 131 807 z "},"":{"ha":500,"x_min":59,"x_max":437,"o":"m 105 603 q 150 591 138 603 q 162 549 162 579 l 162 492 q 229 478 193 478 q 293 506 268 478 q 317 589 317 534 q 311 637 317 618 q 292 669 304 657 q 262 685 280 680 q 220 690 244 690 l 197 690 q 177 699 186 690 q 169 718 169 707 q 177 737 169 728 q 197 746 186 746 l 220 746 q 302 846 302 746 q 283 912 302 891 q 230 933 263 933 q 170 920 199 933 l 170 865 q 157 821 170 834 q 113 808 144 808 q 77 819 88 808 q 66 852 66 829 l 66 900 q 86 935 66 920 q 135 962 106 951 q 196 979 164 973 q 250 985 227 985 q 324 975 292 985 q 377 947 356 965 q 410 903 399 928 q 420 846 420 877 q 413 802 420 822 q 392 767 406 783 q 361 740 379 751 q 321 724 343 729 l 321 722 q 437 589 437 701 q 422 523 437 552 q 382 472 408 493 q 320 439 356 451 q 239 428 283 428 q 182 433 214 428 q 124 448 151 437 q 78 474 96 458 q 59 513 59 490 l 59 558 q 70 592 59 582 q 105 603 80 603 z "},"":{"ha":840,"x_min":319,"x_max":549,"o":"m 545 994 l 408 814 q 357 791 391 791 q 330 799 341 791 q 319 818 319 806 q 322 831 319 826 l 395 1004 q 424 1031 402 1022 q 473 1040 446 1040 q 528 1031 508 1040 q 549 1007 549 1021 q 545 994 549 998 z "},"":{"ha":806,"x_min":111,"x_max":694,"o":"m 694 60 q 681 13 694 26 q 635 0 667 0 q 600 4 615 0 q 574 21 585 8 q 558 56 564 33 q 553 118 553 79 l 550 118 q 480 28 523 56 q 380 0 437 0 q 262 54 302 0 l 256 54 l 256 -207 q 249 -260 255 -241 q 232 -290 243 -280 q 204 -303 220 -300 q 167 -306 188 -306 q 145 -303 155 -306 q 127 -294 135 -301 q 116 -276 120 -288 q 111 -245 111 -264 l 111 632 q 123 681 111 665 q 167 697 134 697 q 235 671 214 697 q 256 583 256 645 l 256 236 q 296 140 260 172 q 399 108 332 108 q 457 119 430 108 q 506 149 485 130 q 538 195 526 168 q 550 253 550 221 l 550 599 q 555 648 550 629 q 570 678 559 667 q 598 693 581 689 q 639 697 614 697 q 683 681 671 697 q 694 632 694 665 l 694 60 z "},"":{"ha":656,"x_min":28,"x_max":545,"o":"m 358 985 l 358 -222 q 310 -245 358 -245 q 276 -240 290 -245 q 262 -222 262 -234 l 262 543 q 159 565 203 546 q 86 614 115 584 q 42 683 57 644 q 28 764 28 722 q 42 845 28 805 q 85 916 56 884 q 158 966 114 947 q 262 985 202 985 l 358 985 m 545 916 l 545 -222 q 496 -245 545 -245 q 463 -240 476 -245 q 449 -222 449 -234 l 449 985 l 481 985 q 545 916 545 985 z "},"":{"ha":459,"x_min":124,"x_max":335,"o":"m 124 351 q 132 395 124 375 q 155 430 140 415 q 188 452 169 444 q 230 460 208 460 q 271 452 252 460 q 304 429 290 444 q 327 394 319 414 q 335 351 335 374 q 327 310 335 329 q 305 276 319 290 q 272 253 291 261 q 230 244 252 244 q 189 252 208 244 q 155 275 170 260 q 133 309 141 289 q 124 351 124 328 z "},"":{"ha":822,"x_min":271,"x_max":551,"o":"m 411 14 l 411 -53 q 551 -155 551 -53 q 540 -205 551 -183 q 508 -243 528 -227 q 459 -267 487 -258 q 397 -275 431 -275 q 355 -272 377 -275 q 314 -260 333 -268 q 283 -242 295 -253 q 271 -218 271 -232 q 279 -200 271 -208 q 300 -192 287 -192 q 314 -194 303 -192 q 337 -199 325 -197 q 362 -204 350 -202 q 380 -207 374 -207 q 430 -193 415 -207 q 446 -160 446 -179 q 439 -132 446 -142 q 421 -115 433 -121 q 388 -106 408 -109 q 339 -104 368 -104 l 339 14 l 411 14 z "},"":{"ha":500,"x_min":84,"x_max":423,"o":"m 210 907 l 146 884 q 122 879 136 879 q 94 886 104 879 q 84 904 84 894 q 91 919 84 911 q 112 933 98 928 l 222 977 q 269 985 243 985 q 312 975 300 985 q 325 940 325 964 l 325 484 l 376 484 q 423 454 423 484 q 415 435 423 442 q 383 428 408 428 l 153 428 q 112 454 112 428 q 159 484 112 484 l 210 484 l 210 907 z "},"":{"ha":572,"x_min":49,"x_max":524,"o":"m 49 733 q 65 844 49 797 q 112 923 81 892 q 186 969 142 954 q 286 985 231 985 q 386 969 342 985 q 460 923 430 954 q 507 844 491 892 q 524 733 524 797 q 461 546 524 608 q 286 484 399 484 q 111 546 173 484 q 49 733 49 608 m 286 532 q 331 541 311 532 q 366 573 351 549 q 388 637 380 596 q 396 741 396 677 q 387 840 396 802 q 362 899 378 878 q 327 928 347 920 q 286 936 307 936 q 243 927 262 936 q 209 895 223 918 q 186 833 194 872 q 178 733 178 794 q 186 631 178 670 q 209 570 194 591 q 243 540 223 548 q 286 532 262 532 z "},"":{"ha":766,"x_min":97,"x_max":669,"o":"m 515 326 l 309 596 q 301 614 301 607 q 307 631 301 623 q 321 645 313 639 q 339 655 329 651 q 357 659 349 659 q 378 650 370 659 l 659 354 q 669 326 669 343 q 659 298 669 309 l 378 8 q 357 0 372 0 q 338 4 348 0 q 320 14 328 7 q 307 28 312 20 q 301 45 301 36 q 309 62 301 52 l 515 326 m 241 314 l 102 526 q 97 539 97 531 q 103 554 97 547 q 117 567 109 562 q 136 576 126 573 q 155 579 146 579 q 170 574 164 579 l 367 346 q 379 314 379 332 q 367 283 379 298 l 170 64 q 155 58 166 58 q 136 61 146 58 q 117 70 126 64 q 103 82 109 75 q 97 98 97 90 q 102 111 97 106 l 241 314 z "},"":{"ha":1111,"x_min":70,"x_max":1014,"o":"m 238 20 l 824 1007 q 841 1014 827 1014 q 859 1010 849 1014 q 878 1001 869 1006 q 893 988 887 996 q 899 975 899 981 q 897 970 899 970 l 310 -21 q 295 -28 307 -28 q 276 -24 286 -28 q 257 -14 266 -20 q 242 -1 248 -8 q 237 12 237 6 q 238 20 237 16 m 779 56 l 819 56 l 819 138 l 610 138 q 571 162 571 138 q 579 184 571 172 l 810 526 q 879 557 831 557 q 921 547 908 557 q 933 513 933 537 l 933 191 l 968 191 q 1005 183 996 191 q 1014 162 1014 176 q 1006 145 1014 151 q 974 138 998 138 l 933 138 l 933 56 l 962 56 q 1010 27 1010 56 q 1002 8 1010 15 q 970 1 994 1 l 771 1 q 728 27 728 1 q 740 48 728 39 q 779 56 752 56 m 819 191 l 819 426 l 665 191 l 819 191 m 195 907 l 132 884 q 108 879 122 879 q 80 886 90 879 q 70 904 70 894 q 77 919 70 911 q 98 933 83 928 l 208 977 q 255 985 229 985 q 298 975 286 985 q 311 940 311 964 l 311 484 l 361 484 q 409 454 409 484 q 401 435 409 442 q 369 428 393 428 l 138 428 q 98 454 98 428 q 145 484 98 484 l 195 484 l 195 907 z "},"":{"ha":1111,"x_min":56,"x_max":1042,"o":"m 224 20 l 810 1007 q 827 1014 813 1014 q 846 1010 836 1014 q 865 1001 856 1006 q 880 988 873 996 q 886 975 886 981 q 884 970 886 970 l 296 -21 q 281 -28 294 -28 q 262 -24 273 -28 q 243 -14 252 -20 q 229 -1 235 -8 q 223 12 223 6 q 224 20 223 16 m 182 907 l 118 884 q 94 879 109 879 q 66 886 77 879 q 56 904 56 894 q 63 919 56 911 q 84 933 70 928 l 194 977 q 241 985 215 985 q 284 975 272 985 q 297 940 297 964 l 297 484 l 348 484 q 395 454 395 484 q 388 435 395 442 q 355 428 380 428 l 125 428 q 84 454 84 428 q 132 484 84 484 l 182 484 l 182 907 m 724 380 q 687 390 699 380 q 676 425 676 401 l 676 471 q 686 496 676 484 q 713 517 696 507 q 751 534 730 527 q 793 547 772 542 q 834 555 814 552 q 868 557 854 557 q 942 546 911 557 q 995 515 974 535 q 1026 470 1015 496 q 1036 413 1036 444 q 1022 340 1036 377 q 977 260 1008 302 q 893 167 945 217 q 768 56 842 117 l 939 56 l 939 95 q 952 138 939 125 q 996 151 966 151 q 1031 140 1021 151 q 1042 108 1042 130 l 1042 30 q 1027 7 1042 14 q 979 1 1012 1 l 703 1 q 668 27 668 1 q 694 67 668 43 q 860 253 805 170 q 914 402 914 337 q 911 437 914 418 q 900 470 908 455 q 877 496 891 486 q 839 506 862 506 q 781 490 814 506 l 781 437 q 768 393 781 406 q 724 380 756 380 z "},"":{"ha":1111,"x_min":69,"x_max":1028,"o":"m 252 20 l 838 1007 q 855 1014 841 1014 q 873 1010 863 1014 q 892 1001 884 1006 q 907 988 901 996 q 913 975 913 981 q 911 970 913 970 l 324 -21 q 309 -28 321 -28 q 290 -24 300 -28 q 271 -14 280 -20 q 257 -1 262 -8 q 251 12 251 6 q 252 20 251 16 m 793 56 l 833 56 l 833 138 l 624 138 q 585 162 585 138 q 593 184 585 172 l 824 526 q 893 557 846 557 q 935 547 922 557 q 947 513 947 537 l 947 191 l 982 191 q 1019 183 1010 191 q 1028 162 1028 176 q 1020 145 1028 151 q 988 138 1013 138 l 947 138 l 947 56 l 977 56 q 1024 27 1024 56 q 1016 8 1024 15 q 984 1 1008 1 l 785 1 q 742 27 742 1 q 754 48 742 39 q 793 56 766 56 m 833 191 l 833 426 l 680 191 l 833 191 m 115 603 q 160 591 148 603 q 172 549 172 579 l 172 492 q 239 478 203 478 q 303 506 278 478 q 328 589 328 534 q 321 637 328 618 q 302 669 315 657 q 272 685 290 680 q 231 690 254 690 l 207 690 q 188 699 196 690 q 179 718 179 707 q 188 737 179 728 q 207 746 196 746 l 231 746 q 313 846 313 746 q 293 912 313 891 q 240 933 273 933 q 180 920 210 933 l 180 865 q 167 821 180 834 q 123 808 154 808 q 87 819 98 808 q 77 852 77 829 l 77 900 q 97 935 77 920 q 145 962 117 951 q 206 979 174 973 q 260 985 237 985 q 334 975 302 985 q 388 947 366 965 q 420 903 409 928 q 431 846 431 877 q 423 802 431 822 q 402 767 416 783 q 371 740 389 751 q 332 724 353 729 l 332 722 q 447 589 447 701 q 433 523 447 552 q 392 472 418 493 q 330 439 366 451 q 249 428 294 428 q 193 433 224 428 q 134 448 161 437 q 88 474 106 458 q 69 513 69 490 l 69 558 q 80 592 69 582 q 115 603 90 603 z "},"":{"ha":653,"x_min":56,"x_max":611,"o":"m 551 285 q 611 215 611 285 l 611 135 q 603 97 611 111 q 576 72 595 83 q 458 18 519 35 q 334 0 397 0 q 199 20 253 0 q 114 71 146 40 q 69 140 82 102 q 56 211 56 177 q 74 303 56 264 q 117 375 92 343 q 172 434 143 407 q 224 489 201 461 q 258 536 244 514 q 282 579 273 557 q 295 625 291 601 q 300 677 300 648 q 320 706 300 696 q 367 717 340 717 q 409 707 392 717 q 427 677 427 697 q 421 612 427 642 q 406 555 416 583 q 379 501 395 528 q 342 443 363 474 q 298 388 321 412 q 256 338 275 364 q 224 282 237 313 q 212 207 212 251 q 249 101 212 132 q 359 71 286 71 q 478 100 411 71 l 478 195 q 495 264 478 244 q 551 285 511 285 m 457 889 q 449 852 457 869 q 428 821 441 834 q 397 800 415 808 q 361 791 380 791 q 323 799 341 791 q 293 820 306 807 q 272 851 279 833 q 264 889 264 869 q 272 925 264 908 q 293 956 280 943 q 324 977 307 969 q 361 985 342 985 q 397 977 380 985 q 428 955 415 968 q 449 925 441 942 q 457 889 457 907 z "},"":{"ha":937,"x_min":58,"x_max":873,"o":"m 252 264 l 180 74 q 142 15 163 30 q 96 0 121 0 q 67 11 76 0 q 58 39 58 22 q 65 72 58 53 l 392 951 q 419 976 398 968 q 468 985 439 985 q 522 975 498 985 q 553 947 546 965 l 871 66 q 873 46 873 55 q 861 13 873 26 q 819 0 848 0 q 715 74 742 0 l 642 264 l 252 264 m 621 336 l 453 821 l 444 821 l 273 336 l 621 336 m 457 1086 l 310 1291 q 306 1304 306 1297 q 326 1328 306 1319 q 383 1337 347 1337 q 435 1328 412 1337 q 465 1301 458 1319 l 545 1104 q 547 1090 547 1099 q 536 1071 547 1078 q 509 1064 526 1064 q 457 1086 474 1064 z "},"":{"ha":937,"x_min":58,"x_max":873,"o":"m 252 264 l 180 74 q 142 15 163 30 q 96 0 121 0 q 67 11 76 0 q 58 39 58 22 q 65 72 58 53 l 392 951 q 419 976 398 968 q 468 985 439 985 q 522 975 498 985 q 553 947 546 965 l 871 66 q 873 46 873 55 q 861 13 873 26 q 819 0 848 0 q 715 74 742 0 l 642 264 l 252 264 m 621 336 l 453 821 l 444 821 l 273 336 l 621 336 m 634 1291 l 487 1086 q 435 1064 469 1064 q 407 1071 418 1064 q 396 1090 396 1078 q 399 1104 396 1099 l 478 1301 q 509 1328 486 1319 q 560 1337 532 1337 q 617 1328 597 1337 q 638 1304 638 1319 q 634 1291 638 1297 z "},"":{"ha":937,"x_min":58,"x_max":873,"o":"m 252 264 l 180 74 q 142 15 163 30 q 96 0 121 0 q 67 11 76 0 q 58 39 58 22 q 65 72 58 53 l 392 951 q 419 976 398 968 q 468 985 439 985 q 522 975 498 985 q 553 947 546 965 l 871 66 q 873 46 873 55 q 861 13 873 26 q 819 0 848 0 q 715 74 742 0 l 642 264 l 252 264 m 621 336 l 453 821 l 444 821 l 273 336 l 621 336 m 538 1104 l 465 1177 l 393 1104 q 351 1073 373 1083 q 303 1063 329 1063 q 266 1071 281 1063 q 250 1092 250 1080 q 256 1104 250 1099 l 397 1251 q 426 1270 410 1264 q 465 1276 442 1276 q 505 1270 488 1276 q 534 1251 522 1263 l 675 1104 q 681 1092 681 1099 q 666 1071 681 1080 q 628 1063 650 1063 q 538 1104 577 1063 z "},"":{"ha":937,"x_min":58,"x_max":873,"o":"m 252 264 l 180 74 q 142 15 163 30 q 96 0 121 0 q 67 11 76 0 q 58 39 58 22 q 65 72 58 53 l 392 951 q 419 976 398 968 q 468 985 439 985 q 522 975 498 985 q 553 947 546 965 l 871 66 q 873 46 873 55 q 861 13 873 26 q 819 0 848 0 q 715 74 742 0 l 642 264 l 252 264 m 621 336 l 453 821 l 444 821 l 273 336 l 621 336 m 389 1152 q 361 1145 372 1152 q 346 1130 351 1139 q 338 1112 342 1121 q 325 1097 334 1103 q 302 1090 317 1090 q 270 1098 279 1090 q 262 1120 262 1105 q 302 1210 262 1164 q 406 1255 342 1255 q 498 1234 448 1251 q 516 1226 503 1232 q 534 1218 528 1221 q 550 1213 541 1216 q 569 1208 560 1210 q 587 1207 577 1207 q 629 1232 616 1207 q 636 1243 630 1234 q 645 1256 642 1253 q 656 1263 648 1259 q 677 1267 665 1267 q 701 1259 692 1267 q 709 1239 709 1251 q 698 1200 709 1218 q 643 1126 675 1149 q 575 1103 611 1103 q 475 1128 541 1103 q 389 1152 416 1152 z "},"":{"ha":937,"x_min":58,"x_max":873,"o":"m 252 264 l 180 74 q 142 15 163 30 q 96 0 121 0 q 67 11 76 0 q 58 39 58 22 q 65 72 58 53 l 392 951 q 419 976 398 968 q 468 985 439 985 q 522 975 498 985 q 553 947 546 965 l 871 66 q 873 46 873 55 q 861 13 873 26 q 819 0 848 0 q 715 74 742 0 l 642 264 l 252 264 m 621 336 l 453 821 l 444 821 l 273 336 l 621 336 m 514 1182 q 542 1250 514 1221 q 608 1278 570 1278 q 675 1250 646 1278 q 705 1182 705 1221 q 675 1117 705 1145 q 608 1088 646 1088 q 543 1117 571 1088 q 514 1182 514 1145 m 227 1183 q 255 1250 227 1221 q 319 1279 283 1279 q 388 1251 359 1279 q 417 1183 417 1222 q 388 1118 417 1146 q 319 1089 359 1089 q 255 1118 284 1089 q 227 1183 227 1147 z "},"":{"ha":937,"x_min":58,"x_max":873,"o":"m 252 264 l 180 74 q 142 15 163 30 q 96 0 121 0 q 67 11 76 0 q 58 39 58 22 q 65 72 58 53 l 392 951 q 419 976 398 968 q 468 985 439 985 q 522 975 498 985 q 553 947 546 965 l 871 66 q 873 46 873 55 q 861 13 873 26 q 819 0 848 0 q 715 74 742 0 l 642 264 l 252 264 m 621 336 l 453 821 l 444 821 l 273 336 l 621 336 m 366 1088 q 321 1196 321 1132 q 366 1304 321 1259 q 474 1349 410 1349 q 582 1304 538 1349 q 626 1196 626 1259 q 582 1088 626 1132 q 474 1044 538 1044 q 366 1088 410 1044 m 404 1196 q 425 1147 404 1168 q 474 1126 446 1126 q 523 1147 501 1126 q 544 1196 544 1168 q 523 1245 544 1224 q 474 1267 502 1267 q 425 1245 446 1267 q 404 1196 404 1224 z "},"":{"ha":1280,"x_min":28,"x_max":1225,"o":"m 1145 743 q 1084 764 1103 743 q 1064 833 1064 785 l 1064 911 l 749 911 l 749 547 l 1026 547 q 1055 536 1045 547 q 1065 509 1065 524 q 1062 495 1065 502 q 1053 483 1059 488 q 1041 474 1048 477 q 1026 471 1034 471 l 749 471 l 749 74 l 1084 74 l 1084 151 q 1104 221 1084 200 q 1165 241 1124 241 q 1210 225 1196 241 q 1225 172 1225 209 l 1225 52 q 1205 11 1225 21 q 1141 0 1185 0 l 663 0 q 614 16 630 0 q 599 69 599 33 l 599 264 l 268 264 l 151 56 q 113 12 133 23 q 66 0 92 0 q 38 9 49 1 q 28 32 28 17 q 41 72 28 49 l 559 951 q 591 976 569 967 q 642 985 613 985 l 1121 985 q 1184 974 1164 985 q 1204 933 1204 964 l 1204 812 q 1190 760 1204 776 q 1145 743 1175 743 m 599 336 l 599 819 l 590 819 l 304 336 l 599 336 z "},"":{"ha":807,"x_min":74,"x_max":779,"o":"m 699 734 q 638 755 658 734 q 618 825 618 777 l 618 903 q 517 914 562 914 q 398 886 451 914 q 308 804 345 859 q 251 668 271 749 q 231 481 231 587 q 251 285 231 363 q 309 159 271 206 q 401 92 347 111 q 526 72 456 72 q 614 82 569 71 q 708 113 659 93 l 734 123 q 746 126 743 126 q 769 113 760 126 q 779 85 779 100 q 761 57 779 64 l 737 47 q 629 14 683 26 q 519 0 574 1 l 519 -58 q 577 -64 551 -58 q 624 -83 604 -70 q 655 -116 644 -96 q 667 -167 667 -137 q 654 -218 667 -195 q 620 -258 642 -241 q 568 -283 598 -274 q 504 -292 538 -292 q 460 -288 484 -292 q 418 -276 437 -283 q 385 -257 398 -268 q 372 -232 372 -246 q 380 -213 372 -221 q 403 -204 389 -204 q 417 -207 406 -204 q 441 -213 428 -210 q 468 -218 455 -216 q 488 -221 481 -221 q 539 -206 522 -221 q 555 -171 555 -191 q 549 -141 555 -153 q 530 -123 543 -130 q 495 -115 516 -117 q 443 -113 473 -113 l 443 1 q 74 484 74 28 q 106 707 74 612 q 195 863 138 802 q 330 955 252 925 q 498 985 408 985 q 572 981 533 985 q 646 971 611 978 q 709 955 682 964 q 747 932 736 945 q 758 888 758 918 l 758 804 q 744 751 758 768 q 699 734 729 734 z "},"":{"ha":835,"x_min":139,"x_max":779,"o":"m 699 743 q 637 764 657 743 q 618 833 618 785 l 618 911 l 289 911 l 289 547 l 581 547 q 609 536 599 547 q 619 509 619 524 q 616 495 619 502 q 607 483 612 488 q 595 474 602 477 q 581 471 588 471 l 289 471 l 289 74 l 639 74 l 639 151 q 659 221 639 200 q 720 241 678 241 q 765 225 750 241 q 779 172 779 209 l 779 52 q 759 11 779 21 q 696 0 739 0 l 203 0 q 139 69 139 0 l 139 916 q 203 985 139 985 l 675 985 q 738 974 718 985 q 758 933 758 964 l 758 812 q 744 760 758 776 q 699 743 729 743 m 410 1086 l 263 1291 q 259 1304 259 1297 q 279 1328 259 1319 q 336 1337 300 1337 q 388 1328 365 1337 q 418 1301 411 1319 l 498 1104 q 500 1090 500 1099 q 490 1071 500 1078 q 462 1064 479 1064 q 410 1086 427 1064 z "},"":{"ha":835,"x_min":139,"x_max":779,"o":"m 699 743 q 637 764 657 743 q 618 833 618 785 l 618 911 l 289 911 l 289 547 l 581 547 q 609 536 599 547 q 619 509 619 524 q 616 495 619 502 q 607 483 612 488 q 595 474 602 477 q 581 471 588 471 l 289 471 l 289 74 l 639 74 l 639 151 q 659 221 639 200 q 720 241 678 241 q 765 225 750 241 q 779 172 779 209 l 779 52 q 759 11 779 21 q 696 0 739 0 l 203 0 q 139 69 139 0 l 139 916 q 203 985 139 985 l 675 985 q 738 974 718 985 q 758 933 758 964 l 758 812 q 744 760 758 776 q 699 743 729 743 m 621 1291 l 473 1086 q 422 1064 455 1064 q 393 1071 404 1064 q 382 1090 382 1078 q 385 1104 382 1099 l 465 1301 q 496 1328 473 1319 q 547 1337 519 1337 q 604 1328 583 1337 q 625 1304 625 1319 q 621 1291 625 1297 z "},"":{"ha":835,"x_min":139,"x_max":779,"o":"m 699 743 q 637 764 657 743 q 618 833 618 785 l 618 911 l 289 911 l 289 547 l 581 547 q 609 536 599 547 q 619 509 619 524 q 616 495 619 502 q 607 483 612 488 q 595 474 602 477 q 581 471 588 471 l 289 471 l 289 74 l 639 74 l 639 151 q 659 221 639 200 q 720 241 678 241 q 765 225 750 241 q 779 172 779 209 l 779 52 q 759 11 779 21 q 696 0 739 0 l 203 0 q 139 69 139 0 l 139 916 q 203 985 139 985 l 675 985 q 738 974 718 985 q 758 933 758 964 l 758 812 q 744 760 758 776 q 699 743 729 743 m 509 1104 l 436 1177 l 364 1104 q 322 1073 344 1083 q 274 1063 300 1063 q 236 1071 252 1063 q 221 1092 221 1080 q 227 1104 221 1099 l 368 1251 q 397 1270 380 1264 q 436 1276 413 1276 q 476 1270 459 1276 q 505 1251 492 1263 l 646 1104 q 652 1092 652 1099 q 636 1071 652 1080 q 599 1063 621 1063 q 509 1104 548 1063 z "},"":{"ha":835,"x_min":139,"x_max":779,"o":"m 699 743 q 637 764 657 743 q 618 833 618 785 l 618 911 l 289 911 l 289 547 l 581 547 q 609 536 599 547 q 619 509 619 524 q 616 495 619 502 q 607 483 612 488 q 595 474 602 477 q 581 471 588 471 l 289 471 l 289 74 l 639 74 l 639 151 q 659 221 639 200 q 720 241 678 241 q 765 225 750 241 q 779 172 779 209 l 779 52 q 759 11 779 21 q 696 0 739 0 l 203 0 q 139 69 139 0 l 139 916 q 203 985 139 985 l 675 985 q 738 974 718 985 q 758 933 758 964 l 758 812 q 744 760 758 776 q 699 743 729 743 m 490 1182 q 518 1250 490 1221 q 585 1278 547 1278 q 652 1250 623 1278 q 681 1182 681 1221 q 651 1117 681 1145 q 585 1088 622 1088 q 519 1117 547 1088 q 490 1182 490 1145 m 203 1183 q 231 1250 203 1221 q 296 1279 260 1279 q 364 1251 335 1279 q 393 1183 393 1222 q 364 1118 393 1146 q 296 1089 335 1089 q 232 1118 260 1089 q 203 1183 203 1147 z "},"":{"ha":567,"x_min":28,"x_max":539,"o":"m 497 0 l 69 0 q 28 33 28 0 q 39 63 28 52 q 83 74 51 74 l 208 74 l 208 911 l 83 911 q 39 922 51 911 q 28 951 28 932 q 69 985 28 985 l 497 985 q 539 951 539 985 q 484 911 539 911 l 358 911 l 358 74 l 484 74 q 539 33 539 74 q 497 0 539 0 m 247 1086 l 100 1291 q 96 1304 96 1297 q 116 1328 96 1319 q 173 1337 136 1337 q 224 1328 201 1337 q 255 1301 248 1319 l 334 1104 q 337 1090 337 1099 q 326 1071 337 1078 q 298 1064 315 1064 q 247 1086 264 1064 z "},"":{"ha":567,"x_min":28,"x_max":539,"o":"m 497 0 l 69 0 q 28 33 28 0 q 39 63 28 52 q 83 74 51 74 l 208 74 l 208 911 l 83 911 q 39 922 51 911 q 28 951 28 932 q 69 985 28 985 l 497 985 q 539 951 539 985 q 484 911 539 911 l 358 911 l 358 74 l 484 74 q 539 33 539 74 q 497 0 539 0 m 477 1291 l 330 1086 q 279 1064 312 1064 q 250 1071 261 1064 q 239 1090 239 1078 q 242 1104 239 1099 l 321 1301 q 353 1328 330 1319 q 404 1337 376 1337 q 461 1328 440 1337 q 481 1304 481 1319 q 477 1291 481 1297 z "},"":{"ha":567,"x_min":28,"x_max":539,"o":"m 497 0 l 69 0 q 28 33 28 0 q 39 63 28 52 q 83 74 51 74 l 208 74 l 208 911 l 83 911 q 39 922 51 911 q 28 951 28 932 q 69 985 28 985 l 497 985 q 539 951 539 985 q 484 911 539 911 l 358 911 l 358 74 l 484 74 q 539 33 539 74 q 497 0 539 0 m 356 1104 l 283 1177 l 212 1104 q 169 1073 191 1083 q 121 1063 147 1063 q 84 1071 99 1063 q 68 1092 68 1080 q 74 1104 68 1099 l 216 1251 q 244 1270 228 1264 q 283 1276 260 1276 q 323 1270 307 1276 q 352 1251 340 1263 l 494 1104 q 499 1092 499 1099 q 484 1071 499 1080 q 446 1063 469 1063 q 356 1104 395 1063 z "},"":{"ha":567,"x_min":28,"x_max":539,"o":"m 497 0 l 69 0 q 28 33 28 0 q 39 63 28 52 q 83 74 51 74 l 208 74 l 208 911 l 83 911 q 39 922 51 911 q 28 951 28 932 q 69 985 28 985 l 497 985 q 539 951 539 985 q 484 911 539 911 l 358 911 l 358 74 l 484 74 q 539 33 539 74 q 497 0 539 0 m 334 1182 q 362 1250 334 1221 q 429 1278 391 1278 q 496 1250 467 1278 q 525 1182 525 1221 q 495 1117 525 1145 q 429 1088 466 1088 q 363 1117 391 1088 q 334 1182 334 1145 m 47 1183 q 75 1250 47 1221 q 140 1279 104 1279 q 208 1251 179 1279 q 237 1183 237 1222 q 208 1118 237 1146 q 140 1089 179 1089 q 76 1118 104 1089 q 47 1183 47 1147 z "},"":{"ha":962,"x_min":21,"x_max":889,"o":"m 50 547 l 139 547 l 139 916 q 203 985 139 985 l 401 985 q 889 497 889 985 q 867 327 888 401 q 808 197 845 252 q 724 104 772 142 q 622 43 675 66 q 514 10 569 20 q 408 0 458 0 l 203 0 q 139 69 139 0 l 139 471 l 50 471 q 29 482 37 471 q 21 509 21 494 q 29 536 21 524 q 50 547 37 547 m 385 911 l 289 911 l 289 547 l 524 547 q 545 536 537 547 q 553 509 553 524 q 545 482 553 494 q 524 471 537 471 l 289 471 l 289 74 l 319 74 l 319 75 l 385 75 q 520 99 456 75 q 630 174 583 123 q 705 304 677 224 q 732 497 732 385 q 705 688 732 610 q 632 817 679 767 q 522 888 585 866 q 385 911 458 911 z "},"":{"ha":1032,"x_min":139,"x_max":893,"o":"m 139 62 l 139 909 q 163 965 139 945 q 222 985 187 985 q 277 972 253 985 q 322 926 300 960 l 777 205 l 783 205 l 783 907 q 801 966 783 947 q 840 985 818 985 q 878 970 863 985 q 893 922 893 955 l 893 81 q 870 21 893 42 q 812 0 847 0 q 711 56 746 0 l 257 779 l 249 779 l 249 78 q 232 19 249 37 q 192 0 214 0 q 154 15 170 0 q 139 62 139 30 m 432 1152 q 404 1145 414 1152 q 389 1130 393 1139 q 380 1112 385 1121 q 368 1097 376 1103 q 345 1090 359 1090 q 313 1098 321 1090 q 304 1120 304 1105 q 345 1210 304 1164 q 449 1255 385 1255 q 541 1234 491 1251 q 558 1226 546 1232 q 577 1218 571 1221 q 593 1213 583 1216 q 611 1208 603 1210 q 629 1207 620 1207 q 672 1232 659 1207 q 679 1243 673 1234 q 687 1256 684 1253 q 699 1263 690 1259 q 720 1267 708 1267 q 743 1259 735 1267 q 751 1239 751 1251 q 741 1200 751 1218 q 686 1126 718 1149 q 618 1103 654 1103 q 518 1128 584 1103 q 432 1152 458 1152 z "},"":{"ha":994,"x_min":74,"x_max":921,"o":"m 921 492 q 916 407 921 456 q 897 302 911 357 q 853 193 882 247 q 778 96 825 139 q 662 27 731 54 q 496 0 593 0 q 329 27 398 0 q 213 98 260 54 q 138 196 166 142 q 96 306 111 251 q 78 409 82 360 q 74 492 74 458 q 79 578 74 528 q 98 684 83 629 q 141 792 113 739 q 216 889 170 846 q 332 958 263 932 q 496 985 400 985 q 660 958 591 985 q 777 888 729 931 q 852 790 824 844 q 896 681 881 736 q 916 576 911 627 q 921 492 921 526 m 496 914 q 394 893 437 914 q 322 838 352 872 q 275 759 293 804 q 247 668 257 715 q 234 575 237 621 q 231 492 231 529 q 233 416 231 460 q 245 326 236 372 q 271 233 254 279 q 318 151 288 187 q 391 93 347 115 q 496 71 434 71 q 598 92 555 72 q 671 146 642 113 q 719 222 701 179 q 747 312 737 265 q 760 405 757 358 q 764 492 764 451 q 761 568 764 524 q 750 660 759 612 q 724 752 741 707 q 677 834 707 798 q 603 892 647 870 q 496 914 558 914 m 457 1086 l 310 1291 q 306 1304 306 1297 q 326 1328 306 1319 q 383 1337 347 1337 q 435 1328 412 1337 q 465 1301 458 1319 l 545 1104 q 547 1090 547 1099 q 536 1071 547 1078 q 509 1064 526 1064 q 457 1086 474 1064 z "},"":{"ha":994,"x_min":74,"x_max":921,"o":"m 921 492 q 916 407 921 456 q 897 302 911 357 q 853 193 882 247 q 778 96 825 139 q 662 27 731 54 q 496 0 593 0 q 329 27 398 0 q 213 98 260 54 q 138 196 166 142 q 96 306 111 251 q 78 409 82 360 q 74 492 74 458 q 79 578 74 528 q 98 684 83 629 q 141 792 113 739 q 216 889 170 846 q 332 958 263 932 q 496 985 400 985 q 660 958 591 985 q 777 888 729 931 q 852 790 824 844 q 896 681 881 736 q 916 576 911 627 q 921 492 921 526 m 496 914 q 394 893 437 914 q 322 838 352 872 q 275 759 293 804 q 247 668 257 715 q 234 575 237 621 q 231 492 231 529 q 233 416 231 460 q 245 326 236 372 q 271 233 254 279 q 318 151 288 187 q 391 93 347 115 q 496 71 434 71 q 598 92 555 72 q 671 146 642 113 q 719 222 701 179 q 747 312 737 265 q 760 405 757 358 q 764 492 764 451 q 761 568 764 524 q 750 660 759 612 q 724 752 741 707 q 677 834 707 798 q 603 892 647 870 q 496 914 558 914 m 675 1291 l 528 1086 q 477 1064 510 1064 q 448 1071 459 1064 q 437 1090 437 1078 q 440 1104 437 1099 l 519 1301 q 551 1328 528 1319 q 602 1337 574 1337 q 659 1328 638 1337 q 680 1304 680 1319 q 675 1291 680 1297 z "},"":{"ha":994,"x_min":74,"x_max":921,"o":"m 921 492 q 916 407 921 456 q 897 302 911 357 q 853 193 882 247 q 778 96 825 139 q 662 27 731 54 q 496 0 593 0 q 329 27 398 0 q 213 98 260 54 q 138 196 166 142 q 96 306 111 251 q 78 409 82 360 q 74 492 74 458 q 79 578 74 528 q 98 684 83 629 q 141 792 113 739 q 216 889 170 846 q 332 958 263 932 q 496 985 400 985 q 660 958 591 985 q 777 888 729 931 q 852 790 824 844 q 896 681 881 736 q 916 576 911 627 q 921 492 921 526 m 496 914 q 394 893 437 914 q 322 838 352 872 q 275 759 293 804 q 247 668 257 715 q 234 575 237 621 q 231 492 231 529 q 233 416 231 460 q 245 326 236 372 q 271 233 254 279 q 318 151 288 187 q 391 93 347 115 q 496 71 434 71 q 598 92 555 72 q 671 146 642 113 q 719 222 701 179 q 747 312 737 265 q 760 405 757 358 q 764 492 764 451 q 761 568 764 524 q 750 660 759 612 q 724 752 741 707 q 677 834 707 798 q 603 892 647 870 q 496 914 558 914 m 570 1104 l 497 1177 l 425 1104 q 383 1073 405 1083 q 335 1063 361 1063 q 297 1071 313 1063 q 282 1092 282 1080 q 288 1104 282 1099 l 429 1251 q 458 1270 441 1264 q 497 1276 474 1276 q 537 1270 520 1276 q 566 1251 553 1263 l 707 1104 q 713 1092 713 1099 q 697 1071 713 1080 q 660 1063 682 1063 q 570 1104 609 1063 z "},"":{"ha":994,"x_min":74,"x_max":921,"o":"m 921 492 q 916 407 921 456 q 897 302 911 357 q 853 193 882 247 q 778 96 825 139 q 662 27 731 54 q 496 0 593 0 q 329 27 398 0 q 213 98 260 54 q 138 196 166 142 q 96 306 111 251 q 78 409 82 360 q 74 492 74 458 q 79 578 74 528 q 98 684 83 629 q 141 792 113 739 q 216 889 170 846 q 332 958 263 932 q 496 985 400 985 q 660 958 591 985 q 777 888 729 931 q 852 790 824 844 q 896 681 881 736 q 916 576 911 627 q 921 492 921 526 m 496 914 q 394 893 437 914 q 322 838 352 872 q 275 759 293 804 q 247 668 257 715 q 234 575 237 621 q 231 492 231 529 q 233 416 231 460 q 245 326 236 372 q 271 233 254 279 q 318 151 288 187 q 391 93 347 115 q 496 71 434 71 q 598 92 555 72 q 671 146 642 113 q 719 222 701 179 q 747 312 737 265 q 760 405 757 358 q 764 492 764 451 q 761 568 764 524 q 750 660 759 612 q 724 752 741 707 q 677 834 707 798 q 603 892 647 870 q 496 914 558 914 m 404 1152 q 375 1145 386 1152 q 360 1130 365 1139 q 352 1112 356 1121 q 339 1097 348 1103 q 316 1090 331 1090 q 284 1098 293 1090 q 276 1120 276 1105 q 316 1210 276 1164 q 420 1255 356 1255 q 512 1234 463 1251 q 530 1226 517 1232 q 549 1218 543 1221 q 565 1213 555 1216 q 583 1208 574 1210 q 601 1207 591 1207 q 644 1232 631 1207 q 650 1243 644 1234 q 659 1256 656 1253 q 671 1263 662 1259 q 691 1267 680 1267 q 715 1259 707 1267 q 723 1239 723 1251 q 712 1200 723 1218 q 657 1126 690 1149 q 589 1103 625 1103 q 490 1128 555 1103 q 404 1152 430 1152 z "},"":{"ha":994,"x_min":74,"x_max":921,"o":"m 921 492 q 916 407 921 456 q 897 302 911 357 q 853 193 882 247 q 778 96 825 139 q 662 27 731 54 q 496 0 593 0 q 329 27 398 0 q 213 98 260 54 q 138 196 166 142 q 96 306 111 251 q 78 409 82 360 q 74 492 74 458 q 79 578 74 528 q 98 684 83 629 q 141 792 113 739 q 216 889 170 846 q 332 958 263 932 q 496 985 400 985 q 660 958 591 985 q 777 888 729 931 q 852 790 824 844 q 896 681 881 736 q 916 576 911 627 q 921 492 921 526 m 496 914 q 394 893 437 914 q 322 838 352 872 q 275 759 293 804 q 247 668 257 715 q 234 575 237 621 q 231 492 231 529 q 233 416 231 460 q 245 326 236 372 q 271 233 254 279 q 318 151 288 187 q 391 93 347 115 q 496 71 434 71 q 598 92 555 72 q 671 146 642 113 q 719 222 701 179 q 747 312 737 265 q 760 405 757 358 q 764 492 764 451 q 761 568 764 524 q 750 660 759 612 q 724 752 741 707 q 677 834 707 798 q 603 892 647 870 q 496 914 558 914 m 546 1182 q 574 1250 546 1221 q 640 1278 602 1278 q 707 1250 678 1278 q 736 1182 736 1221 q 707 1117 736 1145 q 640 1088 677 1088 q 574 1117 603 1088 q 546 1182 546 1145 m 258 1183 q 287 1250 258 1221 q 351 1279 315 1279 q 420 1251 391 1279 q 449 1183 449 1222 q 420 1118 449 1146 q 351 1089 391 1089 q 287 1118 316 1089 q 258 1183 258 1147 z "},"":{"ha":996,"x_min":208,"x_max":787,"o":"m 419 485 l 214 690 q 208 704 208 696 q 216 727 208 714 q 234 750 223 739 q 257 768 244 760 q 279 775 269 775 q 293 770 288 775 l 498 564 l 704 770 q 718 774 710 774 q 741 767 728 774 q 763 749 753 760 q 781 726 774 738 q 787 704 787 714 q 783 690 787 696 l 578 485 l 783 279 q 787 265 787 273 q 781 243 787 255 q 763 220 774 231 q 741 202 753 209 q 718 195 728 195 q 704 200 709 195 l 498 406 l 293 200 q 279 195 288 195 q 257 202 269 195 q 233 220 244 209 q 215 243 222 231 q 208 265 208 255 q 214 279 208 274 l 419 485 z "},"":{"ha":994,"x_min":74,"x_max":921,"o":"m 857 1034 l 775 889 q 848 796 820 848 q 893 690 877 744 q 915 584 909 635 q 921 492 921 532 q 916 407 921 456 q 897 302 911 357 q 853 193 882 247 q 778 96 825 139 q 662 27 731 54 q 496 0 593 0 q 290 45 378 0 l 210 -97 q 192 -106 203 -106 q 172 -102 182 -106 q 154 -92 162 -98 q 139 -78 145 -85 q 134 -62 134 -70 q 135 -56 134 -60 l 218 93 q 145 184 174 132 q 101 290 117 235 q 80 397 85 345 q 74 492 74 450 q 79 578 74 528 q 98 684 83 629 q 141 792 113 739 q 216 889 170 846 q 332 958 263 932 q 496 985 400 985 q 700 940 612 985 l 781 1082 q 798 1090 785 1090 q 817 1086 806 1090 q 837 1074 828 1081 q 852 1058 846 1067 q 859 1042 859 1049 q 857 1034 859 1038 m 764 492 q 711 778 764 672 l 339 127 q 496 71 401 71 q 598 92 555 72 q 671 146 642 113 q 719 222 701 179 q 747 312 737 265 q 760 405 757 358 q 764 492 764 451 m 231 492 q 283 205 231 310 l 653 857 q 496 914 588 914 q 394 893 437 914 q 322 838 352 872 q 275 759 293 804 q 247 668 257 715 q 234 575 237 621 q 231 492 231 529 z "},"":{"ha":997,"x_min":129,"x_max":868,"o":"m 279 878 l 279 304 q 296 203 279 248 q 345 127 313 159 q 422 80 376 96 q 525 64 467 64 q 622 82 578 64 q 695 133 665 100 q 742 211 726 166 q 758 310 758 256 l 758 907 q 775 966 758 947 q 815 985 793 985 q 853 970 838 985 q 868 922 868 955 l 868 353 q 863 282 868 322 q 844 201 859 243 q 805 120 830 159 q 738 48 779 80 q 637 -2 696 17 q 497 -21 578 -21 q 354 -3 414 -21 q 254 46 294 16 q 188 115 213 76 q 150 195 163 154 q 133 276 137 236 q 129 349 129 316 l 129 916 q 143 969 129 954 q 191 985 157 985 q 257 958 234 985 q 279 878 279 930 m 467 1086 l 319 1291 q 315 1304 315 1297 q 336 1328 315 1319 q 393 1337 356 1337 q 444 1328 421 1337 q 475 1301 467 1319 l 554 1104 q 557 1090 557 1099 q 546 1071 557 1078 q 518 1064 535 1064 q 467 1086 484 1064 z "},"":{"ha":997,"x_min":129,"x_max":868,"o":"m 279 878 l 279 304 q 296 203 279 248 q 345 127 313 159 q 422 80 376 96 q 525 64 467 64 q 622 82 578 64 q 695 133 665 100 q 742 211 726 166 q 758 310 758 256 l 758 907 q 775 966 758 947 q 815 985 793 985 q 853 970 838 985 q 868 922 868 955 l 868 353 q 863 282 868 322 q 844 201 859 243 q 805 120 830 159 q 738 48 779 80 q 637 -2 696 17 q 497 -21 578 -21 q 354 -3 414 -21 q 254 46 294 16 q 188 115 213 76 q 150 195 163 154 q 133 276 137 236 q 129 349 129 316 l 129 916 q 143 969 129 954 q 191 985 157 985 q 257 958 234 985 q 279 878 279 930 m 678 1291 l 531 1086 q 479 1064 513 1064 q 451 1071 462 1064 q 440 1090 440 1078 q 443 1104 440 1099 l 522 1301 q 553 1328 530 1319 q 604 1337 576 1337 q 662 1328 641 1337 q 682 1304 682 1319 q 678 1291 682 1297 z "},"":{"ha":997,"x_min":129,"x_max":868,"o":"m 279 878 l 279 304 q 296 203 279 248 q 345 127 313 159 q 422 80 376 96 q 525 64 467 64 q 622 82 578 64 q 695 133 665 100 q 742 211 726 166 q 758 310 758 256 l 758 907 q 775 966 758 947 q 815 985 793 985 q 853 970 838 985 q 868 922 868 955 l 868 353 q 863 282 868 322 q 844 201 859 243 q 805 120 830 159 q 738 48 779 80 q 637 -2 696 17 q 497 -21 578 -21 q 354 -3 414 -21 q 254 46 294 16 q 188 115 213 76 q 150 195 163 154 q 133 276 137 236 q 129 349 129 316 l 129 916 q 143 969 129 954 q 191 985 157 985 q 257 958 234 985 q 279 878 279 930 m 571 1104 l 498 1177 l 427 1104 q 384 1073 406 1083 q 336 1063 362 1063 q 299 1071 314 1063 q 283 1092 283 1080 q 289 1104 283 1099 l 431 1251 q 459 1270 443 1264 q 498 1276 475 1276 q 538 1270 522 1276 q 567 1251 555 1263 l 709 1104 q 714 1092 714 1099 q 699 1071 714 1080 q 661 1063 684 1063 q 571 1104 610 1063 z "},"":{"ha":997,"x_min":129,"x_max":868,"o":"m 279 878 l 279 304 q 296 203 279 248 q 345 127 313 159 q 422 80 376 96 q 525 64 467 64 q 622 82 578 64 q 695 133 665 100 q 742 211 726 166 q 758 310 758 256 l 758 907 q 775 966 758 947 q 815 985 793 985 q 853 970 838 985 q 868 922 868 955 l 868 353 q 863 282 868 322 q 844 201 859 243 q 805 120 830 159 q 738 48 779 80 q 637 -2 696 17 q 497 -21 578 -21 q 354 -3 414 -21 q 254 46 294 16 q 188 115 213 76 q 150 195 163 154 q 133 276 137 236 q 129 349 129 316 l 129 916 q 143 969 129 954 q 191 985 157 985 q 257 958 234 985 q 279 878 279 930 m 554 1182 q 582 1250 554 1221 q 648 1278 610 1278 q 715 1250 686 1278 q 745 1182 745 1221 q 715 1117 745 1145 q 648 1088 686 1088 q 583 1117 611 1088 q 554 1182 554 1145 m 267 1183 q 295 1250 267 1221 q 359 1279 323 1279 q 428 1251 399 1279 q 457 1183 457 1222 q 428 1118 457 1146 q 359 1089 399 1089 q 295 1118 324 1089 q 267 1183 267 1147 z "},"":{"ha":760,"x_min":25,"x_max":741,"o":"m 372 0 q 307 69 307 0 l 307 372 l 33 901 q 25 936 25 920 q 39 971 25 957 q 75 985 53 985 q 109 981 94 985 q 136 969 123 978 q 160 947 149 961 q 182 913 172 933 l 403 476 l 408 476 l 616 911 q 701 985 652 985 q 731 971 721 985 q 741 939 741 958 q 733 908 741 925 l 457 372 l 457 83 q 437 18 457 35 q 372 0 417 0 m 586 1291 l 439 1086 q 387 1064 420 1064 q 359 1071 370 1064 q 348 1090 348 1078 q 351 1104 348 1099 l 430 1301 q 461 1328 438 1319 q 512 1337 484 1337 q 569 1328 549 1337 q 590 1304 590 1319 q 586 1291 590 1297 z "},"":{"ha":864,"x_min":139,"x_max":802,"o":"m 289 878 l 289 800 l 425 800 q 494 798 455 800 q 575 786 534 795 q 658 759 617 777 q 730 708 699 741 q 782 628 762 676 q 802 513 802 581 q 779 389 802 446 q 709 289 755 332 q 591 222 662 246 q 427 197 521 197 l 289 197 l 289 90 q 268 21 289 41 q 203 0 248 0 q 139 69 139 0 l 139 916 q 153 969 139 954 q 200 985 168 985 q 266 958 243 985 q 289 878 289 930 m 425 726 l 289 726 l 289 271 l 425 271 q 587 330 529 271 q 644 513 644 389 q 632 603 644 564 q 594 670 621 643 q 527 712 568 698 q 425 726 485 726 z "},"":{"ha":791,"x_min":111,"x_max":722,"o":"m 111 65 l 111 718 q 115 796 111 756 q 129 873 119 836 q 159 944 140 911 q 211 1002 179 977 q 290 1041 243 1027 q 400 1055 336 1055 q 513 1039 462 1055 q 600 991 564 1023 q 655 914 635 960 q 675 808 675 868 q 666 735 675 770 q 639 672 656 701 q 595 622 621 644 q 534 590 569 601 l 534 585 q 612 557 577 578 q 671 502 647 536 q 709 422 696 468 q 722 321 722 376 q 699 171 722 232 q 638 72 675 110 q 553 17 600 34 q 457 0 505 0 q 417 1 437 0 q 380 6 397 2 q 353 20 363 11 q 340 46 342 30 q 347 64 340 57 q 364 71 353 71 q 378 69 369 71 q 399 66 388 68 q 420 64 410 65 q 436 62 430 62 q 489 76 464 62 q 534 120 515 90 q 565 200 553 151 q 576 319 576 249 q 564 422 576 380 q 529 491 552 465 q 472 529 505 517 q 395 541 438 541 l 355 541 q 338 551 344 541 q 332 574 332 561 q 338 597 332 587 q 357 608 344 608 l 395 608 q 494 661 458 608 q 529 808 529 713 q 523 878 529 844 q 502 939 517 912 q 462 983 487 966 q 400 999 437 999 q 324 980 353 999 q 280 932 296 961 q 260 867 265 903 q 256 798 256 831 l 256 98 q 251 50 256 68 q 236 20 246 31 q 208 4 225 9 q 167 0 191 0 q 123 16 134 0 q 111 65 111 32 z "},"":{"ha":758,"x_min":60,"x_max":657,"o":"m 518 131 l 514 132 q 410 32 469 63 q 269 0 351 0 q 178 13 218 0 q 113 51 139 26 q 73 110 86 75 q 60 187 60 144 q 75 276 60 232 q 130 354 90 319 q 237 410 169 389 q 410 431 304 431 l 511 431 l 511 469 q 503 550 511 517 q 478 603 495 583 q 435 632 462 623 q 372 642 409 642 q 250 583 303 642 q 165 534 205 534 q 129 548 142 534 q 117 582 117 562 q 142 630 117 608 q 207 666 167 651 q 298 689 248 681 q 400 697 349 697 q 525 682 475 697 q 604 635 574 666 q 645 556 633 604 q 657 446 657 509 l 657 65 q 646 16 657 32 q 603 0 634 0 q 538 31 557 0 q 518 131 518 62 m 513 372 l 432 372 q 204 207 204 372 q 325 93 204 93 q 384 103 351 93 q 445 134 416 113 q 493 184 474 154 q 513 256 513 215 l 513 372 m 349 814 l 212 994 q 208 1007 208 998 q 228 1031 208 1021 q 283 1040 248 1040 q 332 1031 310 1040 q 362 1004 355 1022 l 435 831 q 437 818 437 826 q 427 799 437 806 q 399 791 416 791 q 349 814 366 791 z "},"":{"ha":758,"x_min":60,"x_max":657,"o":"m 518 131 l 514 132 q 410 32 469 63 q 269 0 351 0 q 178 13 218 0 q 113 51 139 26 q 73 110 86 75 q 60 187 60 144 q 75 276 60 232 q 130 354 90 319 q 237 410 169 389 q 410 431 304 431 l 511 431 l 511 469 q 503 550 511 517 q 478 603 495 583 q 435 632 462 623 q 372 642 409 642 q 250 583 303 642 q 165 534 205 534 q 129 548 142 534 q 117 582 117 562 q 142 630 117 608 q 207 666 167 651 q 298 689 248 681 q 400 697 349 697 q 525 682 475 697 q 604 635 574 666 q 645 556 633 604 q 657 446 657 509 l 657 65 q 646 16 657 32 q 603 0 634 0 q 538 31 557 0 q 518 131 518 62 m 513 372 l 432 372 q 204 207 204 372 q 325 93 204 93 q 384 103 351 93 q 445 134 416 113 q 493 184 474 154 q 513 256 513 215 l 513 372 m 546 994 l 410 814 q 358 791 392 791 q 332 799 342 791 q 321 818 321 806 q 323 831 321 826 l 396 1004 q 426 1031 404 1022 q 475 1040 448 1040 q 530 1031 509 1040 q 550 1007 550 1021 q 546 994 550 998 z "},"":{"ha":758,"x_min":60,"x_max":657,"o":"m 518 131 l 514 132 q 410 32 469 63 q 269 0 351 0 q 178 13 218 0 q 113 51 139 26 q 73 110 86 75 q 60 187 60 144 q 75 276 60 232 q 130 354 90 319 q 237 410 169 389 q 410 431 304 431 l 511 431 l 511 469 q 503 550 511 517 q 478 603 495 583 q 435 632 462 623 q 372 642 409 642 q 250 583 303 642 q 165 534 205 534 q 129 548 142 534 q 117 582 117 562 q 142 630 117 608 q 207 666 167 651 q 298 689 248 681 q 400 697 349 697 q 525 682 475 697 q 604 635 574 666 q 645 556 633 604 q 657 446 657 509 l 657 65 q 646 16 657 32 q 603 0 634 0 q 538 31 557 0 q 518 131 518 62 m 513 372 l 432 372 q 204 207 204 372 q 325 93 204 93 q 384 103 351 93 q 445 134 416 113 q 493 184 474 154 q 513 256 513 215 l 513 372 m 452 815 l 380 888 l 308 815 q 266 784 288 794 q 218 774 243 774 q 180 782 195 774 q 165 803 165 791 q 170 815 165 810 l 312 962 q 340 981 324 975 q 380 987 357 987 q 419 981 403 987 q 448 962 436 975 l 590 815 q 595 803 595 810 q 580 782 595 791 q 543 774 565 774 q 452 815 492 774 z "},"":{"ha":758,"x_min":60,"x_max":657,"o":"m 518 131 l 514 132 q 410 32 469 63 q 269 0 351 0 q 178 13 218 0 q 113 51 139 26 q 73 110 86 75 q 60 187 60 144 q 75 276 60 232 q 130 354 90 319 q 237 410 169 389 q 410 431 304 431 l 511 431 l 511 469 q 503 550 511 517 q 478 603 495 583 q 435 632 462 623 q 372 642 409 642 q 250 583 303 642 q 165 534 205 534 q 129 548 142 534 q 117 582 117 562 q 142 630 117 608 q 207 666 167 651 q 298 689 248 681 q 400 697 349 697 q 525 682 475 697 q 604 635 574 666 q 645 556 633 604 q 657 446 657 509 l 657 65 q 646 16 657 32 q 603 0 634 0 q 538 31 557 0 q 518 131 518 62 m 513 372 l 432 372 q 204 207 204 372 q 325 93 204 93 q 384 103 351 93 q 445 134 416 113 q 493 184 474 154 q 513 256 513 215 l 513 372 m 293 842 q 262 832 271 842 q 248 812 253 823 q 235 792 242 802 q 210 783 228 783 q 171 811 171 783 q 181 855 171 832 q 210 898 191 878 q 253 929 228 917 q 310 942 279 942 q 384 924 341 940 l 447 901 q 465 898 454 900 q 484 896 475 896 q 525 920 513 896 q 528 927 526 922 q 536 938 531 932 q 548 948 541 944 q 565 953 555 953 q 591 946 582 953 q 600 926 600 939 q 590 889 600 907 q 472 796 549 796 q 429 803 456 796 q 376 819 403 810 q 326 834 349 827 q 293 842 303 842 z "},"":{"ha":758,"x_min":60,"x_max":657,"o":"m 518 131 l 514 132 q 410 32 469 63 q 269 0 351 0 q 178 13 218 0 q 113 51 139 26 q 73 110 86 75 q 60 187 60 144 q 75 276 60 232 q 130 354 90 319 q 237 410 169 389 q 410 431 304 431 l 511 431 l 511 469 q 503 550 511 517 q 478 603 495 583 q 435 632 462 623 q 372 642 409 642 q 250 583 303 642 q 165 534 205 534 q 129 548 142 534 q 117 582 117 562 q 142 630 117 608 q 207 666 167 651 q 298 689 248 681 q 400 697 349 697 q 525 682 475 697 q 604 635 574 666 q 645 556 633 604 q 657 446 657 509 l 657 65 q 646 16 657 32 q 603 0 634 0 q 538 31 557 0 q 518 131 518 62 m 513 372 l 432 372 q 204 207 204 372 q 325 93 204 93 q 384 103 351 93 q 445 134 416 113 q 493 184 474 154 q 513 256 513 215 l 513 372 m 158 872 q 165 905 158 889 q 183 932 172 920 q 211 950 195 943 q 243 957 226 957 q 275 950 260 957 q 302 931 290 943 q 321 904 314 920 q 328 872 328 889 q 321 840 328 855 q 302 813 314 825 q 275 794 291 801 q 243 787 260 787 q 211 794 226 787 q 183 813 195 801 q 165 840 172 825 q 158 872 158 855 m 431 872 q 437 904 431 889 q 456 931 444 920 q 483 950 468 943 q 515 957 498 957 q 548 950 532 957 q 574 931 563 943 q 593 904 586 920 q 600 872 600 889 q 593 840 600 855 q 574 813 586 825 q 548 794 563 801 q 515 787 532 787 q 483 794 498 787 q 456 813 467 801 q 437 840 444 825 q 431 872 431 855 z "},"":{"ha":758,"x_min":60,"x_max":657,"o":"m 518 131 l 514 132 q 410 32 469 63 q 269 0 351 0 q 178 13 218 0 q 113 51 139 26 q 73 110 86 75 q 60 187 60 144 q 75 276 60 232 q 130 354 90 319 q 237 410 169 389 q 410 431 304 431 l 511 431 l 511 469 q 503 550 511 517 q 478 603 495 583 q 435 632 462 623 q 372 642 409 642 q 250 583 303 642 q 165 534 205 534 q 129 548 142 534 q 117 582 117 562 q 142 630 117 608 q 207 666 167 651 q 298 689 248 681 q 400 697 349 697 q 525 682 475 697 q 604 635 574 666 q 645 556 633 604 q 657 446 657 509 l 657 65 q 646 16 657 32 q 603 0 634 0 q 538 31 557 0 q 518 131 518 62 m 513 372 l 432 372 q 204 207 204 372 q 325 93 204 93 q 384 103 351 93 q 445 134 416 113 q 493 184 474 154 q 513 256 513 215 l 513 372 m 379 847 q 406 853 393 847 q 429 869 419 859 q 445 892 439 879 q 451 920 451 905 q 445 947 451 934 q 429 970 439 960 q 406 987 418 981 q 379 993 393 993 q 352 987 365 993 q 328 970 338 981 q 311 947 317 960 q 305 920 305 934 q 311 892 305 905 q 328 869 317 879 q 351 853 338 859 q 379 847 365 847 m 229 920 q 241 979 229 951 q 273 1026 252 1006 q 320 1058 293 1046 q 379 1069 348 1069 q 438 1058 410 1069 q 486 1026 465 1046 q 517 978 506 1006 q 529 920 529 951 q 517 861 529 888 q 485 814 505 834 q 437 782 465 793 q 379 770 410 770 q 320 781 348 770 q 273 813 293 793 q 241 861 252 833 q 229 920 229 888 z "},"":{"ha":1173,"x_min":60,"x_max":1117,"o":"m 1047 175 q 1082 191 1063 191 q 1104 182 1094 191 q 1114 161 1114 174 q 1096 114 1114 136 q 840 0 1003 0 q 550 153 628 0 l 546 153 q 498 91 529 119 q 432 42 468 62 q 356 11 395 22 q 283 0 317 0 q 115 50 171 0 q 60 187 60 100 q 75 276 60 232 q 130 354 90 319 q 237 410 169 389 q 410 431 304 431 l 511 431 l 511 469 q 503 550 511 517 q 478 603 495 583 q 435 632 462 623 q 372 642 409 642 q 250 583 303 642 q 165 534 205 534 q 129 548 142 534 q 117 582 117 562 q 142 630 117 608 q 207 666 167 651 q 298 689 248 681 q 400 697 349 697 q 614 623 557 697 q 838 697 696 697 q 952 679 901 697 q 1040 625 1004 661 q 1097 537 1077 589 q 1117 418 1117 485 q 1038 350 1117 350 l 664 350 q 663 337 663 345 q 663 319 663 329 q 711 128 663 195 q 864 61 760 61 q 927 72 899 61 q 973 96 954 83 q 1002 121 991 109 q 1013 134 1012 133 q 1021 143 1017 138 q 1032 157 1025 149 l 1047 175 m 513 372 l 432 372 q 204 207 204 372 q 325 93 204 93 q 384 103 351 93 q 445 134 416 113 q 493 184 474 154 q 513 256 513 215 l 513 372 m 829 642 q 720 585 762 642 q 668 408 677 528 l 928 408 q 964 417 952 408 q 975 449 975 426 q 963 531 975 495 q 931 591 951 567 q 884 629 911 616 q 829 642 858 642 z "},"":{"ha":681,"x_min":69,"x_max":653,"o":"m 586 175 q 621 191 602 191 q 643 182 633 191 q 653 161 653 174 q 635 114 653 136 q 404 0 549 7 l 404 -53 q 545 -155 545 -53 q 533 -205 545 -183 q 501 -243 522 -228 q 452 -267 480 -259 q 390 -275 423 -275 q 348 -272 370 -275 q 307 -260 326 -268 q 276 -242 288 -253 q 264 -218 264 -232 q 272 -200 264 -208 q 293 -192 280 -192 q 307 -194 296 -192 q 331 -199 318 -197 q 355 -204 343 -202 q 374 -207 368 -207 q 424 -193 408 -207 q 439 -160 439 -179 q 433 -132 439 -142 q 414 -115 427 -121 q 380 -106 401 -109 q 332 -104 360 -104 l 332 3 q 211 39 260 10 q 129 112 161 67 q 83 217 98 157 q 69 347 69 277 q 95 510 69 444 q 165 618 120 577 q 270 679 210 660 q 399 697 330 697 q 490 685 446 697 q 566 652 533 673 q 618 605 599 631 q 637 549 637 578 q 632 526 637 536 q 619 509 627 516 q 601 498 611 502 q 579 494 590 494 q 531 509 549 494 q 504 553 513 524 q 488 589 496 573 q 466 617 479 606 q 436 635 453 629 q 396 642 419 642 q 320 628 353 642 q 265 580 288 614 q 231 489 243 546 q 220 347 220 433 q 229 222 220 276 q 260 133 239 168 q 316 79 281 97 q 399 61 350 61 q 456 68 431 61 q 501 88 481 75 q 537 118 521 101 q 568 153 553 134 l 586 175 z "},"":{"ha":729,"x_min":69,"x_max":673,"o":"m 604 175 q 620 186 610 182 q 639 191 629 191 q 661 182 651 191 q 671 161 671 174 q 653 114 671 136 q 397 0 560 0 q 254 23 316 0 q 152 89 193 45 q 90 193 111 132 q 69 332 69 254 q 152 604 69 511 q 395 697 235 697 q 509 679 458 697 q 597 625 560 661 q 653 537 633 589 q 673 418 673 485 q 595 350 673 350 l 221 350 q 220 337 220 345 q 220 319 220 329 q 231 212 220 260 q 267 131 243 164 q 327 79 290 97 q 412 61 363 61 q 482 72 453 61 q 532 97 511 82 q 567 130 553 113 q 591 159 581 146 l 604 175 m 386 642 q 276 585 319 642 q 225 408 234 528 l 485 408 q 520 417 509 408 q 532 449 532 426 q 520 532 532 496 q 488 592 508 568 q 441 629 468 616 q 386 642 415 642 m 349 814 l 212 994 q 208 1007 208 998 q 228 1031 208 1021 q 283 1040 248 1040 q 332 1031 310 1040 q 362 1004 355 1022 l 435 831 q 437 818 437 826 q 427 799 437 806 q 399 791 416 791 q 349 814 366 791 z "},"":{"ha":729,"x_min":69,"x_max":673,"o":"m 604 175 q 620 186 610 182 q 639 191 629 191 q 661 182 651 191 q 671 161 671 174 q 653 114 671 136 q 397 0 560 0 q 254 23 316 0 q 152 89 193 45 q 90 193 111 132 q 69 332 69 254 q 152 604 69 511 q 395 697 235 697 q 509 679 458 697 q 597 625 560 661 q 653 537 633 589 q 673 418 673 485 q 595 350 673 350 l 221 350 q 220 337 220 345 q 220 319 220 329 q 231 212 220 260 q 267 131 243 164 q 327 79 290 97 q 412 61 363 61 q 482 72 453 61 q 532 97 511 82 q 567 130 553 113 q 591 159 581 146 l 604 175 m 386 642 q 276 585 319 642 q 225 408 234 528 l 485 408 q 520 417 509 408 q 532 449 532 426 q 520 532 532 496 q 488 592 508 568 q 441 629 468 616 q 386 642 415 642 m 545 994 l 408 814 q 357 791 391 791 q 330 799 341 791 q 319 818 319 806 q 322 831 319 826 l 395 1004 q 424 1031 402 1022 q 473 1040 446 1040 q 528 1031 508 1040 q 549 1007 549 1021 q 545 994 549 998 z "},"":{"ha":729,"x_min":69,"x_max":673,"o":"m 604 175 q 620 186 610 182 q 639 191 629 191 q 661 182 651 191 q 671 161 671 174 q 653 114 671 136 q 397 0 560 0 q 254 23 316 0 q 152 89 193 45 q 90 193 111 132 q 69 332 69 254 q 152 604 69 511 q 395 697 235 697 q 509 679 458 697 q 597 625 560 661 q 653 537 633 589 q 673 418 673 485 q 595 350 673 350 l 221 350 q 220 337 220 345 q 220 319 220 329 q 231 212 220 260 q 267 131 243 164 q 327 79 290 97 q 412 61 363 61 q 482 72 453 61 q 532 97 511 82 q 567 130 553 113 q 591 159 581 146 l 604 175 m 386 642 q 276 585 319 642 q 225 408 234 528 l 485 408 q 520 417 509 408 q 532 449 532 426 q 520 532 532 496 q 488 592 508 568 q 441 629 468 616 q 386 642 415 642 m 445 815 l 372 888 l 300 815 q 258 784 280 794 q 210 774 236 774 q 173 782 188 774 q 157 803 157 791 q 163 815 157 810 l 304 962 q 333 981 317 975 q 372 987 349 987 q 412 981 395 987 q 441 962 429 975 l 583 815 q 588 803 588 810 q 573 782 588 791 q 535 774 557 774 q 445 815 484 774 z "},"":{"ha":729,"x_min":69,"x_max":673,"o":"m 604 175 q 620 186 610 182 q 639 191 629 191 q 661 182 651 191 q 671 161 671 174 q 653 114 671 136 q 397 0 560 0 q 254 23 316 0 q 152 89 193 45 q 90 193 111 132 q 69 332 69 254 q 152 604 69 511 q 395 697 235 697 q 509 679 458 697 q 597 625 560 661 q 653 537 633 589 q 673 418 673 485 q 595 350 673 350 l 221 350 q 220 337 220 345 q 220 319 220 329 q 231 212 220 260 q 267 131 243 164 q 327 79 290 97 q 412 61 363 61 q 482 72 453 61 q 532 97 511 82 q 567 130 553 113 q 591 159 581 146 l 604 175 m 386 642 q 276 585 319 642 q 225 408 234 528 l 485 408 q 520 417 509 408 q 532 449 532 426 q 520 532 532 496 q 488 592 508 568 q 441 629 468 616 q 386 642 415 642 m 145 872 q 152 905 145 889 q 171 932 159 920 q 198 950 182 943 q 230 957 213 957 q 262 950 247 957 q 289 931 277 943 q 308 904 301 920 q 315 872 315 889 q 308 840 315 855 q 290 813 301 825 q 262 794 278 801 q 230 787 247 787 q 198 794 213 787 q 171 813 182 801 q 152 840 159 825 q 145 872 145 855 m 418 872 q 425 904 418 889 q 443 931 431 920 q 470 950 455 943 q 503 957 486 957 q 535 950 519 957 q 562 931 550 943 q 580 904 573 920 q 587 872 587 889 q 580 840 587 855 q 562 813 573 825 q 535 794 550 801 q 503 787 519 787 q 470 794 485 787 q 443 813 454 801 q 425 840 431 825 q 418 872 418 855 z "},"":{"ha":380,"x_min":35,"x_max":264,"o":"m 262 604 l 262 94 q 258 46 262 64 q 242 18 253 28 q 215 4 232 7 q 174 0 198 0 q 130 16 141 0 q 118 65 118 32 l 118 632 q 130 681 118 665 q 174 697 141 697 q 262 604 262 697 m 176 814 l 39 994 q 35 1007 35 998 q 55 1031 35 1021 q 110 1040 75 1040 q 159 1031 137 1040 q 189 1004 182 1022 l 262 831 q 264 818 264 826 q 254 799 264 806 q 227 791 243 791 q 176 814 193 791 z "},"":{"ha":380,"x_min":118,"x_max":348,"o":"m 262 604 l 262 94 q 258 46 262 64 q 242 18 253 28 q 215 4 232 7 q 174 0 198 0 q 130 16 141 0 q 118 65 118 32 l 118 632 q 130 681 118 665 q 174 697 141 697 q 262 604 262 697 m 344 994 l 208 814 q 156 791 190 791 q 130 799 140 791 q 119 818 119 806 q 121 831 119 826 l 194 1004 q 223 1031 201 1022 q 273 1040 245 1040 q 328 1031 307 1040 q 348 1007 348 1021 q 344 994 348 998 z "},"":{"ha":380,"x_min":-24,"x_max":406,"o":"m 263 815 l 191 888 l 119 815 q 76 784 98 794 q 28 774 54 774 q -9 782 6 774 q -24 803 -24 791 q -19 815 -24 810 l 123 962 q 151 981 135 975 q 191 987 168 987 q 230 981 214 987 q 259 962 247 975 l 401 815 q 406 803 406 810 q 391 782 406 791 q 353 774 376 774 q 263 815 302 774 m 262 604 l 262 94 q 258 46 262 64 q 242 18 253 28 q 215 4 232 7 q 174 0 198 0 q 130 16 141 0 q 118 65 118 32 l 118 632 q 130 681 118 665 q 174 697 141 697 q 262 604 262 697 z "},"":{"ha":380,"x_min":-31,"x_max":412,"o":"m -31 872 q -24 905 -31 889 q -5 932 -17 920 q 22 950 7 943 q 54 957 37 957 q 86 950 71 957 q 114 931 102 943 q 132 904 125 920 q 139 872 139 889 q 132 840 139 855 q 114 813 125 825 q 87 794 102 801 q 54 787 71 787 q 22 794 37 787 q -5 813 7 801 q -24 840 -17 825 q -31 872 -31 855 m 242 872 q 249 904 242 889 q 268 931 256 920 q 295 950 279 943 q 327 957 310 957 q 359 950 344 957 q 386 931 374 943 q 405 904 397 920 q 412 872 412 889 q 405 840 412 855 q 386 813 397 825 q 359 794 374 801 q 327 787 344 787 q 294 794 309 787 q 267 813 279 801 q 249 840 256 825 q 242 872 242 855 m 262 604 l 262 94 q 258 46 262 64 q 242 18 253 28 q 215 4 232 7 q 174 0 198 0 q 130 16 141 0 q 118 65 118 32 l 118 632 q 130 681 118 665 q 174 697 141 697 q 262 604 262 697 z "},"":{"ha":802,"x_min":69,"x_max":715,"o":"m 701 987 l 587 928 q 707 476 707 781 q 700 363 707 420 q 679 254 694 307 q 640 154 664 201 q 579 74 616 108 q 494 20 543 39 q 382 0 446 0 q 251 24 309 0 q 153 94 193 49 q 91 203 113 139 q 69 346 69 267 q 90 486 69 422 q 150 596 111 550 q 244 668 189 642 q 368 693 299 693 q 555 642 479 693 q 481 872 545 773 l 322 789 q 310 786 319 786 q 288 798 297 786 q 278 822 278 809 q 293 846 278 838 l 440 922 q 275 994 370 994 q 240 991 258 994 q 206 986 222 989 q 179 980 191 983 q 163 978 167 978 q 146 986 153 978 q 139 1004 139 994 q 156 1031 139 1021 q 197 1046 173 1041 q 247 1054 221 1052 q 292 1055 273 1055 q 541 975 442 1055 l 672 1044 q 684 1047 680 1047 q 706 1035 697 1047 q 715 1011 715 1023 q 701 987 715 994 m 376 56 q 435 70 410 56 q 479 109 460 84 q 512 165 498 133 q 533 232 525 197 q 547 304 542 268 q 554 375 552 341 q 557 437 557 408 q 557 484 557 465 q 558 514 557 498 q 558 550 559 531 q 521 588 541 571 q 478 615 500 604 q 434 632 456 626 q 392 637 412 637 q 310 614 343 637 q 256 549 277 590 q 227 454 236 509 q 218 336 218 399 q 230 213 218 265 q 263 125 242 160 q 313 73 283 90 q 376 56 342 56 z "},"":{"ha":806,"x_min":111,"x_max":694,"o":"m 111 65 l 111 637 q 125 684 111 671 q 171 697 138 697 q 231 667 210 697 q 253 578 253 637 l 253 568 l 256 568 q 354 662 292 627 q 498 697 415 697 q 694 488 694 697 l 694 65 q 683 16 694 32 q 639 0 671 0 q 571 26 592 0 q 550 114 550 52 l 550 461 q 432 604 550 604 q 370 591 401 604 q 314 556 339 578 q 272 505 288 534 q 256 444 256 476 l 256 98 q 251 50 256 68 q 236 20 246 31 q 208 4 225 9 q 167 0 191 0 q 123 16 134 0 q 111 65 111 32 m 323 842 q 293 832 302 842 q 278 812 283 823 q 266 792 273 802 q 240 783 258 783 q 201 811 201 783 q 212 855 201 832 q 240 898 222 878 q 284 929 258 917 q 340 942 309 942 q 414 924 372 940 l 477 901 q 495 898 485 900 q 514 896 506 896 q 555 920 543 896 q 559 927 556 922 q 566 938 562 932 q 578 948 571 944 q 595 953 585 953 q 622 946 612 953 q 631 926 631 939 q 621 889 631 907 q 503 796 580 796 q 460 803 486 796 q 407 819 433 810 q 357 834 380 827 q 323 842 334 842 z "},"":{"ha":775,"x_min":69,"x_max":705,"o":"m 387 0 q 253 22 312 0 q 153 87 193 43 q 91 196 112 131 q 69 349 69 261 q 92 503 69 437 q 155 611 114 568 q 255 676 197 654 q 387 697 314 697 q 520 676 461 697 q 621 611 579 654 q 684 502 662 568 q 705 349 705 437 q 684 196 705 261 q 623 87 663 131 q 523 22 582 43 q 387 0 463 0 m 387 56 q 455 68 425 56 q 509 113 486 81 q 543 203 531 146 q 555 349 555 260 q 543 491 555 435 q 508 582 530 548 q 455 628 486 615 q 387 642 424 642 q 321 628 352 642 q 268 582 291 615 q 233 491 245 548 q 220 349 220 435 q 231 207 220 263 q 265 116 243 150 q 318 69 287 83 q 387 56 349 56 m 357 814 l 221 994 q 217 1007 217 998 q 237 1031 217 1021 q 292 1040 257 1040 q 341 1031 319 1040 q 371 1004 363 1022 l 444 831 q 446 818 446 826 q 435 799 446 806 q 408 791 425 791 q 357 814 374 791 z "},"":{"ha":775,"x_min":69,"x_max":705,"o":"m 387 0 q 253 22 312 0 q 153 87 193 43 q 91 196 112 131 q 69 349 69 261 q 92 503 69 437 q 155 611 114 568 q 255 676 197 654 q 387 697 314 697 q 520 676 461 697 q 621 611 579 654 q 684 502 662 568 q 705 349 705 437 q 684 196 705 261 q 623 87 663 131 q 523 22 582 43 q 387 0 463 0 m 387 56 q 455 68 425 56 q 509 113 486 81 q 543 203 531 146 q 555 349 555 260 q 543 491 555 435 q 508 582 530 548 q 455 628 486 615 q 387 642 424 642 q 321 628 352 642 q 268 582 291 615 q 233 491 245 548 q 220 349 220 435 q 231 207 220 263 q 265 116 243 150 q 318 69 287 83 q 387 56 349 56 m 554 994 l 418 814 q 366 791 400 791 q 340 799 351 791 q 329 818 329 806 q 332 831 329 826 l 404 1004 q 434 1031 412 1022 q 483 1040 456 1040 q 538 1031 517 1040 q 558 1007 558 1021 q 554 994 558 998 z "},"":{"ha":775,"x_min":69,"x_max":705,"o":"m 387 0 q 253 22 312 0 q 153 87 193 43 q 91 196 112 131 q 69 349 69 261 q 92 503 69 437 q 155 611 114 568 q 255 676 197 654 q 387 697 314 697 q 520 676 461 697 q 621 611 579 654 q 684 502 662 568 q 705 349 705 437 q 684 196 705 261 q 623 87 663 131 q 523 22 582 43 q 387 0 463 0 m 387 56 q 455 68 425 56 q 509 113 486 81 q 543 203 531 146 q 555 349 555 260 q 543 491 555 435 q 508 582 530 548 q 455 628 486 615 q 387 642 424 642 q 321 628 352 642 q 268 582 291 615 q 233 491 245 548 q 220 349 220 435 q 231 207 220 263 q 265 116 243 150 q 318 69 287 83 q 387 56 349 56 m 460 815 l 388 888 l 316 815 q 274 784 296 794 q 226 774 252 774 q 188 782 203 774 q 173 803 173 791 q 178 815 173 810 l 320 962 q 349 981 332 975 q 388 987 365 987 q 428 981 411 987 q 456 962 444 975 l 598 815 q 604 803 604 810 q 588 782 604 791 q 551 774 573 774 q 460 815 500 774 z "},"":{"ha":775,"x_min":69,"x_max":705,"o":"m 387 0 q 253 22 312 0 q 153 87 193 43 q 91 196 112 131 q 69 349 69 261 q 92 503 69 437 q 155 611 114 568 q 255 676 197 654 q 387 697 314 697 q 520 676 461 697 q 621 611 579 654 q 684 502 662 568 q 705 349 705 437 q 684 196 705 261 q 623 87 663 131 q 523 22 582 43 q 387 0 463 0 m 387 56 q 455 68 425 56 q 509 113 486 81 q 543 203 531 146 q 555 349 555 260 q 543 491 555 435 q 508 582 530 548 q 455 628 486 615 q 387 642 424 642 q 321 628 352 642 q 268 582 291 615 q 233 491 245 548 q 220 349 220 435 q 231 207 220 263 q 265 116 243 150 q 318 69 287 83 q 387 56 349 56 m 294 842 q 263 832 273 842 q 249 812 254 823 q 236 792 243 802 q 211 783 229 783 q 172 811 172 783 q 182 855 172 832 q 211 898 193 878 q 255 929 229 917 q 311 942 280 942 q 385 924 342 940 l 448 901 q 466 898 456 900 q 485 896 477 896 q 526 920 514 896 q 530 927 527 922 q 537 938 532 932 q 549 948 542 944 q 566 953 556 953 q 592 946 583 953 q 602 926 602 939 q 591 889 602 907 q 473 796 551 796 q 431 803 457 796 q 377 819 404 810 q 328 834 351 827 q 294 842 304 842 z "},"":{"ha":775,"x_min":69,"x_max":705,"o":"m 387 0 q 253 22 312 0 q 153 87 193 43 q 91 196 112 131 q 69 349 69 261 q 92 503 69 437 q 155 611 114 568 q 255 676 197 654 q 387 697 314 697 q 520 676 461 697 q 621 611 579 654 q 684 502 662 568 q 705 349 705 437 q 684 196 705 261 q 623 87 663 131 q 523 22 582 43 q 387 0 463 0 m 387 56 q 455 68 425 56 q 509 113 486 81 q 543 203 531 146 q 555 349 555 260 q 543 491 555 435 q 508 582 530 548 q 455 628 486 615 q 387 642 424 642 q 321 628 352 642 q 268 582 291 615 q 233 491 245 548 q 220 349 220 435 q 231 207 220 263 q 265 116 243 150 q 318 69 287 83 q 387 56 349 56 m 166 872 q 173 905 166 889 q 192 932 180 920 q 219 950 203 943 q 251 957 234 957 q 283 950 268 957 q 310 931 298 943 q 329 904 322 920 q 336 872 336 889 q 329 840 336 855 q 311 813 322 825 q 283 794 299 801 q 251 787 268 787 q 219 794 234 787 q 192 813 203 801 q 173 840 180 825 q 166 872 166 855 m 439 872 q 446 904 439 889 q 464 931 452 920 q 491 950 476 943 q 524 957 507 957 q 556 950 541 957 q 583 931 571 943 q 601 904 594 920 q 608 872 608 889 q 601 840 608 855 q 583 813 594 825 q 556 794 571 801 q 524 787 541 787 q 491 794 506 787 q 464 813 475 801 q 446 840 452 825 q 439 872 439 855 z "},"":{"ha":972,"x_min":125,"x_max":846,"o":"m 397 741 q 405 776 397 760 q 424 804 412 792 q 452 823 436 816 q 486 829 468 829 q 521 823 505 829 q 549 804 537 816 q 568 775 562 791 q 575 741 575 759 q 568 706 575 722 q 550 678 562 690 q 522 659 538 666 q 486 652 505 652 q 452 659 468 652 q 424 678 435 666 q 405 706 412 690 q 397 741 397 722 m 397 229 q 405 264 397 248 q 424 292 412 280 q 452 311 436 304 q 486 318 469 318 q 521 311 505 318 q 549 292 537 304 q 568 264 561 280 q 575 229 575 248 q 568 194 575 210 q 550 166 562 178 q 522 147 538 154 q 486 140 505 140 q 452 147 468 140 q 424 166 436 154 q 405 194 412 178 q 397 229 397 210 m 819 429 l 153 429 l 151 429 q 131 447 138 429 q 125 485 125 464 q 131 523 125 506 q 151 541 138 541 l 153 541 l 819 541 q 840 524 833 541 q 846 485 846 507 q 840 446 846 463 q 819 429 833 429 z "},"":{"ha":775,"x_min":69,"x_max":705,"o":"m 653 746 l 590 637 q 705 349 705 551 q 684 196 705 261 q 623 87 663 131 q 523 22 582 43 q 387 0 463 0 q 237 28 299 0 l 165 -98 q 149 -107 161 -107 q 130 -104 140 -107 q 113 -95 121 -100 q 99 -83 104 -90 q 94 -69 94 -77 q 96 -62 94 -66 l 171 69 q 69 349 69 157 q 92 503 69 437 q 155 611 114 568 q 255 676 197 654 q 387 697 314 697 q 517 676 460 697 l 578 785 q 596 793 582 793 q 615 789 605 793 q 634 780 626 785 q 649 767 643 774 q 654 753 654 760 q 653 746 654 750 m 387 56 q 455 68 425 56 q 509 113 486 81 q 543 203 531 146 q 555 349 555 260 q 530 534 555 464 l 279 98 q 387 56 317 56 m 220 349 q 236 183 220 246 l 479 612 q 387 642 444 642 q 321 628 352 642 q 268 582 291 615 q 233 491 245 548 q 220 349 220 435 z "},"":{"ha":806,"x_min":111,"x_max":694,"o":"m 256 583 l 256 236 q 374 93 256 93 q 435 106 404 93 q 492 141 467 119 q 534 192 517 163 q 550 253 550 220 l 550 597 q 555 648 550 629 q 571 678 560 667 q 598 693 581 689 q 639 697 615 697 q 683 681 671 697 q 694 632 694 665 l 694 60 q 681 14 694 27 q 635 0 667 0 q 553 119 553 0 l 553 129 l 550 129 q 451 35 513 70 q 307 0 389 0 q 111 210 111 0 l 111 632 q 123 681 111 665 q 167 697 134 697 q 235 671 214 697 q 256 583 256 645 m 372 814 l 236 994 q 232 1007 232 998 q 252 1031 232 1021 q 307 1040 272 1040 q 356 1031 334 1040 q 386 1004 378 1022 l 458 831 q 461 818 461 826 q 450 799 461 806 q 423 791 439 791 q 372 814 389 791 z "},"":{"ha":806,"x_min":111,"x_max":694,"o":"m 256 583 l 256 236 q 374 93 256 93 q 435 106 404 93 q 492 141 467 119 q 534 192 517 163 q 550 253 550 220 l 550 597 q 555 648 550 629 q 571 678 560 667 q 598 693 581 689 q 639 697 615 697 q 683 681 671 697 q 694 632 694 665 l 694 60 q 681 14 694 27 q 635 0 667 0 q 553 119 553 0 l 553 129 l 550 129 q 451 35 513 70 q 307 0 389 0 q 111 210 111 0 l 111 632 q 123 681 111 665 q 167 697 134 697 q 235 671 214 697 q 256 583 256 645 m 570 994 l 433 814 q 382 791 416 791 q 355 799 366 791 q 345 818 345 806 q 347 831 345 826 l 420 1004 q 449 1031 427 1022 q 498 1040 471 1040 q 553 1031 533 1040 q 574 1007 574 1021 q 570 994 574 998 z "},"":{"ha":806,"x_min":111,"x_max":694,"o":"m 256 583 l 256 236 q 374 93 256 93 q 435 106 404 93 q 492 141 467 119 q 534 192 517 163 q 550 253 550 220 l 550 597 q 555 648 550 629 q 571 678 560 667 q 598 693 581 689 q 639 697 615 697 q 683 681 671 697 q 694 632 694 665 l 694 60 q 681 14 694 27 q 635 0 667 0 q 553 119 553 0 l 553 129 l 550 129 q 451 35 513 70 q 307 0 389 0 q 111 210 111 0 l 111 632 q 123 681 111 665 q 167 697 134 697 q 235 671 214 697 q 256 583 256 645 m 475 815 l 402 888 l 330 815 q 288 784 310 794 q 240 774 266 774 q 202 782 218 774 q 187 803 187 791 q 193 815 187 810 l 334 962 q 363 981 347 975 q 402 987 379 987 q 442 981 425 987 q 471 962 458 975 l 612 815 q 618 803 618 810 q 603 782 618 791 q 565 774 587 774 q 475 815 514 774 z "},"":{"ha":806,"x_min":111,"x_max":694,"o":"m 256 583 l 256 236 q 374 93 256 93 q 435 106 404 93 q 492 141 467 119 q 534 192 517 163 q 550 253 550 220 l 550 597 q 555 648 550 629 q 571 678 560 667 q 598 693 581 689 q 639 697 615 697 q 683 681 671 697 q 694 632 694 665 l 694 60 q 681 14 694 27 q 635 0 667 0 q 553 119 553 0 l 553 129 l 550 129 q 451 35 513 70 q 307 0 389 0 q 111 210 111 0 l 111 632 q 123 681 111 665 q 167 697 134 697 q 235 671 214 697 q 256 583 256 645 m 182 872 q 189 905 182 889 q 207 932 195 920 q 234 950 219 943 q 267 957 250 957 q 299 950 283 957 q 326 931 314 943 q 345 904 338 920 q 351 872 351 889 q 345 840 351 855 q 326 813 338 825 q 299 794 315 801 q 267 787 283 787 q 234 794 250 787 q 207 813 219 801 q 189 840 195 825 q 182 872 182 855 m 454 872 q 461 904 454 889 q 480 931 468 920 q 507 950 492 943 q 539 957 522 957 q 571 950 556 957 q 598 931 587 943 q 617 904 610 920 q 624 872 624 889 q 617 840 624 855 q 598 813 610 825 q 571 794 587 801 q 539 787 556 787 q 506 794 522 787 q 479 813 491 801 q 461 840 468 825 q 454 872 454 855 z "},"":{"ha":711,"x_min":41,"x_max":669,"o":"m 663 628 l 422 11 q 393 -60 409 -23 q 357 -132 377 -97 q 314 -198 338 -167 q 264 -254 291 -230 q 205 -292 237 -278 q 138 -306 174 -306 q 90 -291 109 -306 q 71 -256 71 -277 q 146 -193 71 -193 q 212 -182 184 -193 q 259 -150 239 -172 q 294 -93 279 -127 q 323 -12 309 -59 l 49 628 q 43 643 45 635 q 41 660 41 650 q 93 697 41 697 q 158 674 127 697 q 207 604 188 652 l 389 150 l 396 150 l 479 393 q 507 478 490 425 q 545 610 523 532 q 573 674 555 650 q 625 697 591 697 q 669 665 669 697 q 663 628 669 648 m 523 994 l 387 814 q 335 791 369 791 q 309 799 319 791 q 298 818 298 806 q 300 831 298 826 l 373 1004 q 402 1031 380 1022 q 452 1040 425 1040 q 507 1031 486 1040 q 527 1007 527 1021 q 523 994 527 998 z "},"":{"ha":786,"x_min":111,"x_max":713,"o":"m 111 -240 l 111 996 q 130 1042 111 1028 q 175 1055 148 1055 q 241 1026 220 1055 q 262 936 262 998 l 262 682 l 253 567 l 254 567 q 295 622 273 597 q 343 663 317 646 q 402 688 370 680 q 475 697 435 697 q 713 383 713 697 q 690 216 713 288 q 625 96 667 144 q 520 24 582 48 q 382 0 459 0 q 256 26 311 0 l 256 -207 q 251 -256 256 -237 q 236 -287 246 -275 q 208 -302 225 -298 q 167 -306 191 -306 q 123 -290 134 -306 q 111 -240 111 -275 m 562 372 q 552 486 562 441 q 522 557 541 531 q 477 594 503 583 q 419 604 450 604 q 361 590 391 604 q 309 553 332 576 q 270 501 285 530 q 254 441 254 472 l 254 140 q 263 110 254 125 q 289 82 272 94 q 329 63 305 71 q 382 56 353 56 q 456 71 422 56 q 513 124 490 87 q 549 221 536 161 q 562 372 562 282 z "},"":{"ha":711,"x_min":41,"x_max":669,"o":"m 663 628 l 422 11 q 393 -60 409 -23 q 357 -132 377 -97 q 314 -198 338 -167 q 264 -254 291 -230 q 205 -292 237 -278 q 138 -306 174 -306 q 90 -291 109 -306 q 71 -256 71 -277 q 146 -193 71 -193 q 212 -182 184 -193 q 259 -150 239 -172 q 294 -93 279 -127 q 323 -12 309 -59 l 49 628 q 43 643 45 635 q 41 660 41 650 q 93 697 41 697 q 158 674 127 697 q 207 604 188 652 l 389 150 l 396 150 l 479 393 q 507 478 490 425 q 545 610 523 532 q 573 674 555 650 q 625 697 591 697 q 669 665 669 697 q 663 628 669 648 m 135 872 q 142 905 135 889 q 160 932 149 920 q 188 950 172 943 q 220 957 203 957 q 252 950 237 957 q 279 931 267 943 q 298 904 291 920 q 304 872 304 889 q 298 840 304 855 q 279 813 291 825 q 252 794 268 801 q 220 787 237 787 q 188 794 203 787 q 160 813 172 801 q 142 840 149 825 q 135 872 135 855 m 408 872 q 414 904 408 889 q 433 931 421 920 q 460 950 445 943 q 492 957 475 957 q 525 950 509 957 q 551 931 540 943 q 570 904 563 920 q 577 872 577 889 q 570 840 577 855 q 551 813 563 825 q 525 794 540 801 q 492 787 509 787 q 459 794 475 787 q 433 813 444 801 q 414 840 421 825 q 408 872 408 855 z "},"":{"ha":945,"x_min":74,"x_max":847,"o":"m 742 734 q 681 755 701 734 q 661 825 661 777 l 661 903 q 549 914 616 914 q 421 886 479 914 q 320 803 363 858 q 254 668 278 749 q 231 482 231 587 q 251 286 231 365 q 310 159 271 207 q 406 91 349 111 q 534 71 463 71 q 701 98 632 71 l 701 399 l 546 399 q 520 410 529 399 q 511 436 511 421 q 521 464 511 452 q 550 475 531 475 l 786 475 q 835 461 823 475 q 847 419 847 448 l 847 132 q 844 99 847 113 q 836 76 842 85 q 823 61 831 67 q 803 52 814 56 q 509 0 671 0 q 311 34 393 0 q 176 130 229 67 q 99 282 123 193 q 74 485 74 372 q 110 707 74 613 q 208 863 146 802 q 353 955 270 924 q 532 985 437 985 q 604 981 564 985 q 682 971 644 978 q 748 954 719 964 q 790 930 778 944 q 802 886 802 916 l 802 804 q 742 734 802 734 m 724 1242 q 661 1118 724 1168 q 498 1067 598 1067 q 338 1118 400 1067 q 275 1242 275 1168 q 286 1269 275 1258 q 317 1280 296 1280 q 350 1270 334 1280 q 372 1243 365 1259 q 422 1177 392 1195 q 498 1160 453 1160 q 576 1177 545 1160 q 627 1243 607 1195 q 649 1270 634 1259 q 682 1280 665 1280 q 713 1269 703 1280 q 724 1242 724 1258 z "},"":{"ha":789,"x_min":72,"x_max":725,"o":"m 366 -250 q 452 -236 412 -250 q 520 -198 491 -222 q 566 -145 549 -175 q 582 -83 582 -115 q 562 -24 582 -47 q 510 13 543 -1 q 436 34 477 27 q 350 46 394 41 q 264 55 307 51 q 188 68 222 60 q 103 110 135 82 q 72 178 72 137 q 79 210 72 196 q 99 236 86 224 q 132 258 113 248 q 174 278 151 268 q 216 297 199 289 q 243 313 233 306 l 243 317 q 198 345 217 327 q 165 384 178 362 q 146 430 153 406 q 140 478 140 454 q 164 579 140 538 q 227 647 188 621 q 316 685 266 673 q 419 697 366 697 q 464 694 439 697 q 511 686 488 692 q 556 672 535 680 q 593 654 578 665 q 604 667 600 658 q 609 688 607 676 q 614 714 611 701 q 623 738 616 727 q 642 756 629 749 q 676 764 654 764 q 710 746 696 764 q 725 705 725 729 q 646 614 725 661 q 697 486 697 558 q 675 401 697 439 q 614 335 652 362 q 526 292 576 307 q 421 277 476 277 q 310 289 349 277 q 280 269 294 277 q 255 252 266 260 q 237 235 244 244 q 231 211 231 225 q 237 193 231 201 q 259 176 243 184 q 306 163 276 168 q 385 155 336 157 q 534 135 470 151 q 640 94 597 119 q 704 33 683 68 q 725 -43 725 -1 q 696 -148 725 -100 q 616 -232 668 -197 q 491 -286 564 -267 q 328 -306 418 -306 q 224 -293 271 -306 q 145 -257 178 -280 q 95 -203 113 -235 q 77 -135 77 -172 q 91 -76 77 -102 q 124 -31 105 -50 q 164 -3 144 -13 q 199 7 185 7 q 222 -1 214 7 q 231 -21 231 -9 q 223 -35 231 -26 q 208 -56 216 -43 q 192 -85 199 -68 q 184 -125 184 -102 q 198 -176 184 -153 q 237 -216 212 -199 q 294 -241 261 -233 q 366 -250 328 -250 m 554 489 q 545 551 554 523 q 518 599 536 579 q 476 630 501 619 q 419 642 451 642 q 320 600 356 642 q 283 484 283 557 q 293 421 283 449 q 319 373 302 393 q 361 342 336 353 q 419 332 387 332 q 475 343 450 332 q 517 376 500 355 q 545 426 535 397 q 554 489 554 454 m 610 949 q 595 879 610 911 q 554 823 581 847 q 489 786 527 800 q 406 772 452 772 q 322 786 359 772 q 258 823 285 800 q 217 879 232 847 q 203 949 203 911 q 212 976 203 964 q 240 987 221 987 q 271 977 257 987 q 290 950 284 967 q 313 906 300 923 q 339 880 325 889 q 371 867 354 871 q 406 864 387 864 q 441 867 425 864 q 473 880 458 871 q 500 906 488 889 q 522 950 512 923 q 542 977 528 967 q 572 987 555 987 q 601 976 591 987 q 610 949 610 964 z "},"":{"ha":567,"x_min":28,"x_max":539,"o":"m 497 0 l 69 0 q 28 33 28 0 q 39 63 28 52 q 83 74 51 74 l 208 74 l 208 911 l 83 911 q 39 922 51 911 q 28 951 28 932 q 69 985 28 985 l 497 985 q 539 951 539 985 q 484 911 539 911 l 358 911 l 358 74 l 484 74 q 539 33 539 74 q 497 0 539 0 m 224 1100 q 199 1161 199 1126 q 224 1222 199 1196 q 286 1247 250 1247 q 347 1222 321 1247 q 372 1161 372 1196 q 346 1100 372 1126 q 286 1075 321 1075 q 224 1100 250 1075 z "},"":{"ha":380,"x_min":118,"x_max":262,"o":"m 262 604 l 262 94 q 258 46 262 64 q 242 18 253 28 q 215 4 232 7 q 174 0 198 0 q 130 16 141 0 q 118 65 118 32 l 118 632 q 130 681 118 665 q 174 697 141 697 q 262 604 262 697 z "},"":{"ha":827,"x_min":-3,"x_max":778,"o":"m 589 618 l 322 450 l 322 74 l 637 74 l 637 170 q 657 239 637 218 q 718 260 677 260 q 778 191 778 260 l 778 45 q 758 10 778 20 q 694 0 737 0 l 236 0 q 172 69 172 0 l 172 357 l 53 282 q 45 279 47 279 q 15 297 31 279 q -3 329 -1 315 q 4 342 -3 337 l 172 449 l 172 916 q 186 969 172 954 q 233 985 201 985 q 299 958 277 985 q 322 878 322 930 l 322 545 l 543 685 q 550 686 546 686 q 579 668 564 686 q 596 633 595 650 q 589 618 596 621 z "},"":{"ha":472,"x_min":0,"x_max":472,"o":"m 12 411 l 154 498 l 154 990 q 166 1039 154 1023 q 210 1055 178 1055 q 277 1029 256 1055 q 298 942 298 1003 l 298 589 l 421 665 q 433 668 425 668 q 460 655 448 668 q 472 625 472 642 q 458 600 472 608 l 298 500 l 298 94 q 279 18 298 35 q 210 0 259 0 q 166 16 178 0 q 154 65 154 32 l 154 410 l 53 347 q 39 343 47 343 q 12 357 24 343 q 0 387 0 371 q 12 411 0 403 z "},"":{"ha":1286,"x_min":74,"x_max":1231,"o":"m 510 71 q 608 79 575 71 l 608 905 q 560 912 585 910 q 510 914 535 914 q 407 893 450 914 q 332 837 363 871 q 281 758 301 802 q 250 666 262 713 q 235 573 239 618 q 231 492 231 528 q 234 414 231 458 q 249 323 238 370 q 278 231 259 277 q 329 150 298 186 q 404 93 359 115 q 510 71 449 71 m 1150 743 q 1089 764 1109 743 q 1069 833 1069 785 l 1069 911 l 758 911 l 758 547 l 1032 547 q 1061 536 1050 547 q 1071 509 1071 524 q 1067 495 1071 502 q 1059 483 1064 488 q 1046 474 1053 477 q 1032 471 1039 471 l 758 471 l 758 74 l 1090 74 l 1090 151 q 1110 221 1090 200 q 1171 241 1130 241 q 1216 225 1202 241 q 1231 172 1231 209 l 1231 52 q 1211 11 1231 21 q 1147 0 1191 0 l 510 0 q 343 27 413 0 q 224 97 273 54 q 146 195 176 140 q 101 303 117 249 q 79 408 85 358 q 74 492 74 458 q 80 579 74 528 q 102 685 85 630 q 149 793 119 740 q 228 889 179 847 q 346 958 276 932 q 510 985 415 985 l 1126 985 q 1190 974 1170 985 q 1210 933 1210 964 l 1210 812 q 1195 760 1210 776 q 1150 743 1181 743 z "},"":{"ha":1215,"x_min":69,"x_max":1160,"o":"m 1090 175 q 1106 186 1097 182 q 1125 191 1115 191 q 1147 182 1137 191 q 1157 161 1157 174 q 1152 137 1157 148 q 1139 114 1147 125 q 884 0 1047 0 q 631 98 712 0 q 387 0 551 0 q 253 22 312 0 q 153 87 193 43 q 91 196 112 131 q 69 349 69 261 q 92 503 69 437 q 155 611 114 568 q 255 676 197 654 q 387 697 314 697 q 633 595 551 697 q 880 697 715 697 q 995 679 943 697 q 1083 625 1046 661 q 1140 537 1120 589 q 1160 418 1160 485 q 1080 350 1160 350 l 707 350 q 706 337 706 345 q 705 319 705 329 q 717 212 705 260 q 752 131 728 164 q 812 79 776 97 q 899 61 848 61 q 968 72 939 61 q 1018 97 998 82 q 1053 130 1039 113 q 1078 159 1067 146 l 1090 175 m 387 56 q 455 68 425 56 q 509 113 486 81 q 543 203 531 146 q 555 349 555 260 q 543 491 555 435 q 508 582 530 548 q 455 628 486 615 q 387 642 424 642 q 321 628 352 642 q 268 582 291 615 q 233 491 245 548 q 220 349 220 435 q 231 207 220 263 q 265 116 243 150 q 318 69 287 83 q 387 56 349 56 m 872 642 q 763 585 805 642 q 711 408 720 528 l 971 408 q 1007 417 996 408 q 1018 449 1018 426 q 1006 532 1018 496 q 974 592 994 568 q 928 629 954 616 q 872 642 901 642 z "},"":{"ha":876,"x_min":85,"x_max":793,"o":"m 669 732 q 608 752 628 732 q 589 818 589 772 l 589 889 q 566 896 583 890 q 425 914 498 914 q 341 898 378 914 q 283 857 304 882 q 251 801 262 831 q 240 742 240 772 q 279 636 240 672 q 428 561 318 601 q 526 525 494 537 q 605 493 557 513 q 675 459 654 473 q 724 424 696 446 q 764 381 753 403 q 784 332 775 360 q 793 269 793 303 q 701 83 793 157 q 444 0 609 9 l 444 -58 q 591 -167 591 -58 q 546 -258 591 -224 q 429 -292 500 -292 q 341 -275 385 -292 q 297 -232 297 -259 q 306 -213 297 -221 q 328 -204 314 -204 q 367 -213 337 -204 q 412 -221 396 -221 q 464 -206 447 -221 q 481 -171 481 -191 q 455 -123 481 -134 q 368 -113 429 -113 l 368 0 q 247 17 309 4 q 143 46 184 29 q 100 71 111 59 q 89 113 89 83 l 89 196 q 149 262 89 262 q 209 242 189 262 q 229 175 229 222 l 229 100 q 399 71 319 71 q 574 126 511 71 q 637 254 637 181 q 624 315 637 289 q 579 364 611 341 q 508 404 547 387 q 404 446 470 421 q 342 469 365 460 q 287 491 319 477 q 236 515 254 505 q 193 540 217 525 q 155 568 168 555 q 125 600 141 582 q 102 638 110 618 q 90 682 95 658 q 85 733 85 706 q 172 916 85 847 q 415 985 260 985 q 672 945 533 985 q 718 921 706 934 q 729 879 729 909 l 729 799 q 669 732 729 732 z "},"":{"ha":686,"x_min":68,"x_max":627,"o":"m 485 170 q 479 202 485 186 q 467 228 474 217 q 444 250 460 239 q 417 268 429 261 q 382 285 406 275 q 345 299 358 294 q 302 314 332 304 q 249 332 269 325 q 203 351 229 340 q 160 373 176 363 q 127 398 144 383 q 100 429 109 412 q 84 466 90 445 q 78 513 78 488 q 97 592 78 557 q 145 645 117 626 q 210 677 173 665 q 277 693 247 690 q 335 697 307 697 q 515 663 450 697 q 589 570 589 624 q 572 533 589 547 q 534 519 556 519 q 460 570 482 519 q 336 642 425 642 q 251 616 285 642 q 216 539 216 590 q 221 506 216 521 q 239 478 227 490 q 264 456 252 465 q 300 437 276 447 q 339 421 323 427 q 385 404 354 415 q 435 387 418 393 q 482 368 452 380 q 528 345 512 355 q 566 319 545 335 q 599 288 588 304 q 618 252 610 273 q 627 207 627 231 q 556 64 627 120 q 371 1 486 9 l 371 -53 q 511 -155 511 -53 q 468 -243 511 -211 q 357 -275 425 -275 q 272 -260 314 -275 q 231 -218 231 -245 q 238 -200 231 -208 q 260 -192 246 -192 q 297 -199 269 -192 q 340 -207 325 -207 q 390 -193 374 -207 q 406 -160 406 -179 q 381 -115 406 -125 q 298 -104 356 -104 l 298 1 q 136 45 204 9 q 68 136 68 79 q 85 173 68 158 q 122 187 102 187 q 199 138 176 187 q 223 99 210 115 q 268 69 237 83 q 342 56 298 56 q 444 84 403 56 q 485 170 485 112 z "},"":{"ha":876,"x_min":85,"x_max":793,"o":"m 669 732 q 608 751 628 732 q 589 818 589 771 l 589 889 q 580 891 586 890 q 566 896 574 893 q 497 910 532 905 q 425 914 462 914 q 342 899 377 914 q 285 858 308 883 q 251 803 262 833 q 240 742 240 772 q 249 681 240 706 q 278 636 257 656 q 336 598 300 616 q 428 561 372 581 q 485 540 463 548 q 525 526 507 532 q 561 511 543 519 q 605 493 578 504 q 647 474 631 482 q 675 459 663 467 q 698 444 687 452 q 724 424 709 435 q 775 361 757 399 q 793 269 793 323 q 767 161 793 210 q 691 76 741 111 q 569 20 641 40 q 404 0 496 0 q 316 6 364 0 q 223 23 267 13 q 145 46 179 33 q 100 71 111 58 q 89 113 89 83 l 89 196 q 149 262 89 262 q 209 242 189 262 q 229 175 229 222 l 229 100 q 399 71 317 71 q 499 86 455 71 q 574 127 544 101 q 621 185 605 153 q 637 254 637 218 q 622 318 637 291 q 570 370 606 346 q 478 417 534 394 q 342 469 422 441 l 287 491 q 258 503 270 498 q 236 514 246 509 q 216 526 226 520 q 193 540 205 532 q 145 576 165 557 q 113 620 125 596 q 93 672 100 644 q 85 733 87 700 q 107 837 85 790 q 173 916 130 883 q 277 967 216 949 q 415 985 338 985 q 672 945 532 985 q 700 934 689 939 q 717 921 711 928 q 726 904 724 914 q 729 879 729 894 l 729 799 q 669 732 729 732 m 353 1234 l 430 1158 l 508 1234 q 605 1276 553 1276 q 646 1267 629 1276 q 662 1246 662 1259 q 656 1234 662 1239 l 504 1082 q 435 1055 476 1055 q 358 1082 385 1055 l 205 1234 q 199 1246 199 1239 q 216 1267 199 1259 q 256 1276 232 1276 q 353 1234 309 1276 z "},"":{"ha":686,"x_min":68,"x_max":627,"o":"m 485 170 q 457 238 481 212 q 382 285 433 264 l 302 314 l 249 332 q 183 360 214 345 q 129 395 153 374 q 92 444 106 415 q 78 513 78 472 q 92 581 78 552 q 127 631 105 610 q 178 665 150 652 q 234 685 205 677 q 290 694 263 692 q 335 697 316 697 q 443 687 396 697 q 523 659 490 676 q 572 618 555 641 q 589 570 589 595 q 572 533 589 547 q 534 519 556 519 q 490 532 508 519 q 460 570 471 545 q 336 642 425 642 q 249 614 281 642 q 216 532 216 587 q 223 499 216 514 q 243 473 231 485 q 270 452 255 461 q 300 437 285 443 l 338 420 l 385 404 q 422 392 404 397 q 458 379 440 386 q 493 364 476 372 q 528 345 511 355 q 566 319 548 333 q 597 290 583 306 q 618 253 610 273 q 627 207 627 233 q 606 122 627 161 q 547 57 585 84 q 456 15 509 30 q 339 0 403 0 q 240 9 288 0 q 153 36 191 18 q 91 79 115 54 q 68 136 68 104 q 73 157 68 147 q 85 173 77 166 q 102 183 92 180 q 122 187 112 187 q 199 138 176 187 q 215 109 205 123 q 241 82 225 94 q 282 63 258 71 q 342 56 306 56 q 398 62 372 56 q 444 83 425 69 q 474 119 463 98 q 485 170 485 140 m 273 946 l 345 873 l 418 946 q 460 977 438 966 q 508 987 482 987 q 546 979 530 987 q 561 958 561 970 q 555 946 561 951 l 414 799 q 385 780 401 786 q 345 774 369 774 q 277 799 301 773 l 136 946 q 130 958 130 951 q 145 979 130 970 q 183 987 161 987 q 273 946 234 987 z "},"":{"ha":760,"x_min":25,"x_max":741,"o":"m 372 0 q 307 69 307 0 l 307 372 l 33 901 q 25 936 25 920 q 39 971 25 957 q 75 985 53 985 q 109 981 94 985 q 136 969 123 978 q 160 947 149 961 q 182 913 172 933 l 403 476 l 408 476 l 616 911 q 701 985 652 985 q 731 971 721 985 q 741 939 741 958 q 733 908 741 925 l 457 372 l 457 83 q 437 18 457 35 q 372 0 417 0 m 448 1183 q 476 1250 448 1222 q 542 1278 504 1278 q 609 1250 580 1278 q 638 1183 638 1222 q 609 1117 638 1146 q 542 1088 579 1088 q 476 1117 505 1088 q 448 1183 448 1146 m 160 1184 q 189 1251 160 1222 q 253 1280 217 1280 q 321 1251 292 1280 q 351 1184 351 1223 q 321 1118 351 1147 q 253 1090 292 1090 q 189 1119 218 1090 q 160 1184 160 1147 z "},"":{"ha":822,"x_min":56,"x_max":766,"o":"m 684 0 l 118 0 q 71 20 87 0 q 56 68 56 39 q 66 118 56 101 l 599 911 l 227 911 l 227 833 q 207 764 227 785 q 146 743 187 743 q 101 760 115 743 q 86 812 86 776 l 86 933 q 106 974 86 964 q 170 985 126 985 l 693 985 q 740 964 724 985 q 755 914 755 943 q 745 867 755 883 l 200 74 l 627 74 l 627 151 q 646 221 627 200 q 707 241 666 241 q 752 225 737 241 q 766 172 766 209 l 766 52 q 747 11 766 21 q 684 0 727 0 m 353 1234 l 430 1158 l 508 1234 q 605 1276 553 1276 q 646 1267 629 1276 q 662 1246 662 1259 q 656 1234 662 1239 l 504 1082 q 435 1055 476 1055 q 358 1082 385 1055 l 205 1234 q 199 1246 199 1239 q 216 1267 199 1259 q 256 1276 232 1276 q 353 1234 309 1276 z "},"":{"ha":659,"x_min":41,"x_max":616,"o":"m 115 697 l 566 697 q 604 685 592 697 q 616 657 616 673 q 611 624 616 639 q 596 596 606 609 l 196 65 l 479 65 l 479 98 q 483 144 479 127 q 496 171 487 161 q 519 184 505 180 q 555 187 534 187 q 596 173 585 187 q 607 129 607 159 l 607 43 q 562 0 607 0 l 94 0 q 54 12 66 0 q 41 40 41 24 q 62 102 41 72 l 460 632 l 199 632 l 199 599 q 195 554 199 572 q 183 527 192 537 q 159 514 174 517 q 122 510 144 510 q 82 524 94 510 q 71 568 71 538 l 71 654 q 115 697 71 697 m 279 946 l 351 873 l 424 946 q 466 977 444 966 q 514 987 488 987 q 552 979 536 987 q 567 958 567 970 q 562 946 567 951 l 420 799 q 391 780 408 786 q 351 774 375 774 q 283 799 307 773 l 142 946 q 136 958 136 951 q 152 979 136 970 q 189 987 167 987 q 279 946 240 987 z "},"":{"ha":736,"x_min":-83,"x_max":778,"o":"m 122 660 q 138 689 127 682 q 167 697 149 696 l 267 697 q 317 839 288 780 q 375 929 347 899 q 440 986 402 959 q 657 1055 540 1055 q 745 1035 713 1055 q 778 987 778 1015 q 763 946 778 962 q 724 930 749 930 q 694 938 707 930 q 671 955 681 945 q 652 976 662 966 q 629 993 643 986 q 597 1000 615 1000 q 552 991 574 1000 q 506 962 530 983 q 463 901 483 942 q 432 803 444 861 l 410 697 l 564 697 q 607 671 607 697 q 595 643 607 655 q 561 631 583 631 l 396 631 l 297 168 q 151 -167 252 -44 q 58 -258 116 -211 q -41 -306 1 -306 q -71 -300 -58 -306 q -83 -282 -83 -294 q -39 -225 -81 -248 q -11 -210 -18 -214 q 14 -193 -3 -205 q 56 -148 32 -180 q 100 -51 80 -115 q 131 61 121 14 l 252 631 l 172 631 q 134 637 145 631 q 122 660 122 644 z "},"":{"ha":764,"x_min":174,"x_max":604,"o":"m 461 815 l 389 888 l 317 815 q 274 784 296 794 q 227 774 252 774 q 189 782 204 774 q 174 803 174 791 q 179 815 174 810 l 321 962 q 349 981 333 975 q 389 987 366 987 q 428 981 412 987 q 457 962 445 975 l 599 815 q 604 803 604 810 q 589 782 604 791 q 551 774 574 774 q 461 815 500 774 z "},"":{"ha":821,"x_min":174,"x_max":604,"o":"m 317 946 l 389 873 l 461 946 q 504 977 481 966 q 551 987 526 987 q 589 979 574 987 q 604 958 604 970 q 599 946 604 951 l 457 799 q 429 780 445 786 q 389 774 412 774 q 321 799 345 773 l 179 946 q 174 958 174 951 q 189 979 174 970 q 227 987 204 987 q 317 946 277 987 z "},"":{"ha":754,"x_min":174,"x_max":581,"o":"m 581 949 q 566 879 581 911 q 525 823 551 847 q 460 786 498 800 q 376 772 422 772 q 293 786 330 772 q 229 823 256 800 q 188 879 203 847 q 174 949 174 911 q 183 976 174 964 q 211 987 192 987 q 241 977 228 987 q 261 950 255 967 q 283 906 271 923 q 310 880 296 889 q 341 867 325 871 q 376 864 358 864 q 412 867 395 864 q 444 880 429 871 q 471 906 458 889 q 493 950 483 923 q 513 977 499 967 q 543 987 526 987 q 571 976 562 987 q 581 949 581 964 z "},"":{"ha":755,"x_min":292,"x_max":464,"o":"m 317 812 q 292 873 292 838 q 317 934 292 909 q 378 960 342 960 q 439 934 414 960 q 464 873 464 909 q 438 813 464 838 q 378 787 413 787 q 317 812 342 787 z "},"":{"ha":745,"x_min":222,"x_max":522,"o":"m 372 847 q 399 853 387 847 q 422 869 412 859 q 438 892 432 879 q 444 920 444 905 q 438 947 444 934 q 422 970 432 960 q 399 987 412 981 q 372 993 386 993 q 345 987 358 993 q 321 970 332 981 q 304 947 311 960 q 298 920 298 934 q 304 892 298 905 q 321 869 311 879 q 345 853 331 859 q 372 847 358 847 m 222 920 q 234 979 222 951 q 266 1026 245 1006 q 314 1058 286 1046 q 372 1069 341 1069 q 431 1058 404 1069 q 479 1026 458 1046 q 511 978 499 1006 q 522 920 522 951 q 510 861 522 888 q 478 814 498 834 q 430 782 458 793 q 372 770 403 770 q 314 781 341 770 q 266 813 286 793 q 234 861 245 833 q 222 920 222 888 z "},"":{"ha":762,"x_min":306,"x_max":589,"o":"m 444 28 l 518 28 q 411 -135 411 -60 q 427 -178 411 -161 q 469 -195 444 -195 q 515 -185 499 -195 q 534 -175 532 -176 q 562 -164 553 -164 q 581 -172 574 -164 q 589 -191 589 -179 q 540 -242 589 -222 q 440 -262 491 -262 q 338 -229 371 -262 q 306 -149 306 -196 q 342 -58 306 -107 q 444 28 379 -9 z "},"":{"ha":774,"x_min":171,"x_max":600,"o":"m 293 842 q 262 832 271 842 q 248 812 253 823 q 235 792 242 802 q 210 783 228 783 q 171 811 171 783 q 181 855 171 832 q 210 898 191 878 q 253 929 228 917 q 310 942 279 942 q 384 924 341 940 l 447 901 q 465 898 454 900 q 484 896 475 896 q 525 920 513 896 q 528 927 526 922 q 536 938 531 932 q 548 948 541 944 q 565 953 555 953 q 591 946 582 953 q 600 926 600 939 q 590 889 600 907 q 472 796 549 796 q 429 803 456 796 q 376 819 403 810 q 326 834 349 827 q 293 842 303 842 z "},"":{"ha":909,"x_min":236,"x_max":673,"o":"m 444 993 l 317 814 q 271 791 301 791 q 246 799 256 791 q 236 818 236 806 q 239 831 236 825 l 309 1003 q 335 1030 315 1021 q 380 1039 355 1039 q 430 1029 412 1039 q 449 1006 449 1020 q 444 993 449 998 m 669 993 l 542 814 q 496 791 525 791 q 471 799 481 791 q 461 818 461 806 q 464 831 461 825 l 533 1003 q 561 1030 541 1021 q 606 1039 581 1039 q 655 1029 636 1039 q 673 1006 673 1020 q 669 993 673 997 z "},"":{"ha":835,"x_min":139,"x_max":779,"o":"m 699 743 q 637 764 657 743 q 618 833 618 785 l 618 911 l 289 911 l 289 547 l 581 547 q 609 536 599 547 q 619 509 619 524 q 616 495 619 502 q 607 483 612 488 q 595 474 602 477 q 581 471 588 471 l 289 471 l 289 74 l 639 74 l 639 151 q 659 221 639 200 q 720 241 678 241 q 765 225 750 241 q 779 172 779 209 l 779 52 q 759 11 779 21 q 696 0 739 0 l 203 0 q 139 69 139 0 l 139 916 q 203 985 139 985 l 675 985 q 738 974 718 985 q 758 933 758 964 l 758 812 q 744 760 758 776 q 699 743 729 743 m 490 1182 q 518 1250 490 1221 q 585 1278 547 1278 q 652 1250 623 1278 q 681 1182 681 1221 q 651 1117 681 1145 q 585 1088 622 1088 q 519 1117 547 1088 q 490 1182 490 1145 m 203 1183 q 231 1250 203 1221 q 296 1279 260 1279 q 364 1251 335 1279 q 393 1183 393 1222 q 364 1118 393 1146 q 296 1089 335 1089 q 232 1118 260 1089 q 203 1183 203 1147 z "},"":{"ha":1158,"x_min":28,"x_max":1075,"o":"m 724 530 q 626 516 680 530 q 526 476 572 503 l 526 83 q 506 18 526 36 q 440 0 486 0 q 376 69 376 0 l 376 911 l 168 911 l 168 812 q 148 743 168 764 q 87 722 128 722 q 28 791 28 722 l 28 933 q 48 974 28 963 q 111 985 68 985 l 791 985 q 855 974 835 985 q 875 933 875 963 l 875 799 q 860 746 875 762 q 815 729 846 729 q 754 750 774 729 q 734 819 734 771 l 734 911 l 526 911 l 526 554 q 762 608 644 608 q 1075 314 1075 608 q 1049 185 1075 245 q 981 85 1023 125 q 886 23 939 45 q 781 0 834 0 q 734 33 734 0 q 751 67 734 54 q 794 85 768 81 q 830 94 814 87 q 864 118 847 101 q 892 159 881 134 q 911 223 903 183 q 918 315 918 263 q 870 474 918 418 q 724 530 821 530 z "},"":{"ha":765,"x_min":139,"x_max":745,"o":"m 289 911 l 289 90 q 268 21 289 41 q 203 0 247 0 q 139 69 139 0 l 139 916 q 203 985 139 985 l 661 985 q 725 974 705 985 q 745 933 745 963 l 745 785 q 730 732 745 749 q 685 715 715 715 q 624 736 644 715 q 604 806 604 758 l 604 911 l 289 911 m 602 1291 l 455 1086 q 404 1064 437 1064 q 375 1071 386 1064 q 364 1090 364 1078 q 367 1104 364 1099 l 446 1301 q 477 1328 454 1319 q 528 1337 500 1337 q 586 1328 565 1337 q 606 1304 606 1319 q 602 1291 606 1297 z "},"":{"ha":807,"x_min":74,"x_max":779,"o":"m 619 463 l 231 463 q 253 273 232 351 q 314 152 274 195 q 405 90 354 109 q 526 72 456 72 q 708 113 611 72 l 734 123 q 746 126 744 126 q 769 113 760 126 q 779 85 779 100 q 761 57 779 64 l 737 47 q 488 0 621 0 q 175 125 277 0 q 74 484 74 251 q 106 708 74 610 q 196 865 138 805 q 331 955 254 924 q 498 985 407 985 q 701 956 611 985 q 747 932 735 945 q 758 888 758 919 l 758 804 q 744 751 758 768 q 699 734 729 734 q 638 755 658 734 q 618 825 618 777 l 618 903 q 517 914 564 914 q 319 819 394 914 q 232 539 243 723 l 619 539 q 635 528 629 539 q 640 501 640 517 q 635 474 640 486 q 619 463 629 463 z "},"":{"ha":876,"x_min":85,"x_max":793,"o":"m 669 732 q 608 751 628 732 q 589 818 589 771 l 589 889 q 580 891 586 890 q 566 896 574 893 q 497 910 532 905 q 425 914 462 914 q 342 899 377 914 q 285 858 308 883 q 251 803 262 833 q 240 742 240 772 q 249 681 240 706 q 278 636 257 656 q 336 598 300 616 q 428 561 372 581 q 485 540 463 548 q 525 526 507 532 q 561 511 543 519 q 605 493 578 504 q 647 474 631 482 q 675 459 663 467 q 698 444 687 452 q 724 424 709 435 q 775 361 757 399 q 793 269 793 323 q 767 161 793 210 q 691 76 741 111 q 569 20 641 40 q 404 0 496 0 q 316 6 364 0 q 223 23 267 13 q 145 46 179 33 q 100 71 111 58 q 89 113 89 83 l 89 196 q 149 262 89 262 q 209 242 189 262 q 229 175 229 222 l 229 100 q 399 71 317 71 q 499 86 455 71 q 574 127 544 101 q 621 185 605 153 q 637 254 637 218 q 622 318 637 291 q 570 370 606 346 q 478 417 534 394 q 342 469 422 441 l 287 491 q 258 503 270 498 q 236 514 246 509 q 216 526 226 520 q 193 540 205 532 q 145 576 165 557 q 113 620 125 596 q 93 672 100 644 q 85 733 87 700 q 107 837 85 790 q 173 916 130 883 q 277 967 216 949 q 415 985 338 985 q 672 945 532 985 q 700 934 689 939 q 717 921 711 928 q 726 904 724 914 q 729 879 729 894 l 729 799 q 669 732 729 732 z "},"":{"ha":567,"x_min":28,"x_max":539,"o":"m 497 0 l 69 0 q 28 33 28 0 q 39 63 28 52 q 83 74 51 74 l 208 74 l 208 911 l 83 911 q 39 922 51 911 q 28 951 28 932 q 69 985 28 985 l 497 985 q 539 951 539 985 q 484 911 539 911 l 358 911 l 358 74 l 484 74 q 539 33 539 74 q 497 0 539 0 z "},"":{"ha":567,"x_min":28,"x_max":539,"o":"m 497 0 l 69 0 q 28 33 28 0 q 39 63 28 52 q 83 74 51 74 l 208 74 l 208 911 l 83 911 q 39 922 51 911 q 28 951 28 932 q 69 985 28 985 l 497 985 q 539 951 539 985 q 484 911 539 911 l 358 911 l 358 74 l 484 74 q 539 33 539 74 q 497 0 539 0 m 334 1182 q 362 1250 334 1221 q 428 1278 390 1278 q 495 1250 466 1278 q 524 1182 524 1221 q 495 1117 524 1145 q 428 1088 465 1088 q 362 1117 391 1088 q 334 1182 334 1145 m 46 1183 q 75 1250 46 1221 q 139 1279 103 1279 q 208 1251 178 1279 q 237 1183 237 1222 q 208 1118 237 1146 q 139 1089 178 1089 q 75 1118 104 1089 q 46 1183 46 1147 z "},"":{"ha":672,"x_min":49,"x_max":567,"o":"m 503 985 q 551 968 535 985 q 567 916 567 952 l 567 363 q 564 297 567 335 q 549 219 560 259 q 517 140 538 179 q 460 69 496 100 q 371 19 424 38 q 244 0 318 0 q 201 3 226 0 q 152 9 176 5 q 107 19 128 14 q 77 29 87 24 q 49 72 49 43 l 49 165 q 63 218 49 202 q 109 235 78 235 q 169 214 149 235 q 189 144 189 193 l 189 77 q 218 73 203 74 q 248 72 233 72 q 330 92 297 72 q 381 142 362 111 q 409 212 401 174 q 416 289 416 251 l 416 895 q 437 964 416 943 q 503 985 458 985 z "},"":{"ha":1434,"x_min":28,"x_max":1371,"o":"m 768 0 q 720 17 736 0 q 704 69 704 33 l 704 911 l 385 911 l 385 771 q 372 460 385 587 q 329 239 360 334 q 295 162 317 201 q 242 86 273 123 q 171 24 212 48 q 87 0 130 0 q 45 23 62 0 q 28 75 28 46 q 41 112 28 100 q 103 139 55 123 q 235 288 195 171 q 263 425 254 343 q 274 570 273 506 q 275 766 275 634 l 275 916 q 290 969 275 954 q 336 985 304 985 l 790 985 q 839 968 823 985 q 854 916 854 951 l 854 551 l 1028 551 q 1170 538 1109 551 q 1276 494 1230 525 q 1347 409 1323 463 q 1371 278 1371 355 q 1358 188 1371 229 q 1323 118 1345 146 q 1272 68 1302 90 q 1212 34 1242 47 q 1146 13 1181 21 q 1082 3 1111 5 q 1025 0 1054 0 l 768 0 m 1000 478 l 852 478 l 852 74 l 1007 74 q 1064 79 1037 74 q 1119 98 1091 84 q 1168 134 1147 112 q 1201 193 1188 156 q 1214 278 1214 230 q 1159 433 1214 388 q 1000 478 1104 478 z "},"":{"ha":1459,"x_min":139,"x_max":1397,"o":"m 880 878 l 880 545 l 1054 545 q 1170 537 1119 545 q 1264 510 1220 529 q 1336 461 1308 492 q 1381 385 1365 431 q 1397 275 1397 338 q 1384 185 1397 226 q 1350 116 1371 144 q 1299 67 1329 88 q 1238 33 1269 45 q 1173 13 1208 20 q 1109 3 1137 5 q 1051 0 1080 0 l 794 0 q 730 69 730 0 l 730 471 l 289 471 l 289 90 q 268 21 289 41 q 203 0 247 0 q 139 69 139 0 l 139 916 q 153 969 139 954 q 200 985 168 985 q 266 958 243 985 q 289 878 289 930 l 289 547 l 730 547 l 730 916 q 745 969 730 954 q 791 985 759 985 q 858 958 835 985 q 880 878 880 930 m 1026 471 l 879 471 l 879 74 l 1034 74 q 1090 79 1063 74 q 1145 97 1117 83 q 1194 132 1174 111 q 1227 191 1215 154 q 1240 275 1240 227 q 1225 371 1240 332 q 1181 432 1211 410 q 1114 462 1152 453 q 1026 471 1077 471 z "},"":{"ha":1174,"x_min":28,"x_max":1055,"o":"m 729 530 q 627 516 681 530 q 526 476 572 503 l 526 83 q 506 18 526 36 q 440 0 486 0 q 376 69 376 0 l 376 911 l 168 911 l 168 812 q 148 743 168 764 q 87 722 128 722 q 28 791 28 722 l 28 933 q 48 974 28 963 q 111 985 68 985 l 791 985 q 855 974 835 985 q 875 933 875 963 l 875 799 q 860 746 875 762 q 815 729 846 729 q 754 750 774 729 q 734 819 734 771 l 734 911 l 526 911 l 526 554 q 649 595 596 583 q 770 608 703 608 q 888 595 838 608 q 978 551 939 581 q 1036 471 1016 522 q 1055 349 1055 420 l 1055 69 q 1042 16 1055 31 q 996 0 1028 0 q 911 107 911 0 l 911 345 q 867 484 911 437 q 729 530 823 530 z "},"":{"ha":842,"x_min":139,"x_max":848,"o":"m 667 1291 l 520 1086 q 469 1064 502 1064 q 440 1071 451 1064 q 429 1090 429 1078 q 432 1104 429 1099 l 511 1301 q 543 1328 519 1319 q 593 1337 566 1337 q 651 1328 630 1337 q 671 1304 671 1319 q 667 1291 671 1297 m 289 878 l 289 541 l 318 541 l 726 957 q 782 985 752 985 q 818 971 803 985 q 832 940 832 957 q 825 924 832 930 l 429 532 l 829 92 q 848 52 848 71 q 833 15 848 31 q 791 0 817 0 q 731 14 760 0 q 667 68 703 28 l 318 464 l 289 464 l 289 90 q 268 21 289 41 q 203 0 247 0 q 139 69 139 0 l 139 916 q 153 969 139 954 q 200 985 168 985 q 266 958 243 985 q 289 878 289 930 z "},"":{"ha":854,"x_min":65,"x_max":806,"o":"m 492 424 l 682 911 q 762 985 709 985 q 794 971 782 985 q 806 939 806 958 q 799 908 806 923 l 541 301 q 488 197 517 245 q 419 101 458 148 q 330 27 380 55 q 227 0 280 0 q 176 19 195 0 q 157 77 157 37 q 176 116 157 105 q 250 134 195 127 q 351 172 313 140 q 416 271 390 205 l 74 901 q 65 936 65 916 q 79 971 65 957 q 115 985 93 985 q 176 970 152 985 q 222 913 201 955 l 484 424 l 492 424 m 547 1215 q 633 1280 559 1280 q 682 1269 661 1280 q 703 1234 703 1257 q 631 1106 703 1151 q 436 1061 560 1061 q 243 1104 313 1061 q 170 1229 174 1147 q 189 1268 170 1255 q 239 1280 209 1280 q 325 1215 313 1280 q 358 1144 333 1171 q 436 1118 384 1118 q 547 1215 529 1118 z "},"":{"ha":1026,"x_min":139,"x_max":888,"o":"m 514 -253 q 443 -184 443 -253 l 443 0 l 203 0 q 139 69 139 0 l 139 916 q 153 969 139 954 q 200 985 168 985 q 266 958 243 985 q 289 878 289 930 l 289 74 l 737 74 l 737 895 q 758 964 737 943 q 823 985 779 985 q 872 968 856 985 q 888 916 888 951 l 888 69 q 873 16 888 31 q 827 0 859 0 l 583 0 l 583 -183 q 567 -236 583 -220 q 514 -253 551 -253 z "},"":{"ha":937,"x_min":58,"x_max":873,"o":"m 252 264 l 180 74 q 142 15 163 30 q 96 0 121 0 q 67 11 76 0 q 58 39 58 22 q 65 72 58 53 l 392 951 q 419 976 398 968 q 468 985 439 985 q 522 975 498 985 q 553 947 546 965 l 871 66 q 873 46 873 55 q 861 13 873 26 q 819 0 848 0 q 715 74 742 0 l 642 264 l 252 264 m 621 336 l 453 821 l 444 821 l 273 336 l 621 336 z "},"":{"ha":897,"x_min":139,"x_max":833,"o":"m 710 743 q 649 764 669 743 q 629 833 629 785 l 629 911 l 289 911 l 289 578 l 490 578 q 632 563 570 578 q 739 515 693 547 q 809 426 785 482 q 833 293 833 370 q 821 202 833 243 q 786 131 808 160 q 735 78 765 101 q 675 40 706 54 q 609 17 644 26 q 545 4 574 7 q 488 0 515 0 l 203 0 q 139 69 139 0 l 139 916 q 203 985 139 985 l 686 985 q 750 974 730 985 q 770 933 770 963 l 770 812 q 755 760 770 777 q 710 743 741 743 m 463 504 l 289 504 l 289 74 l 469 74 q 541 85 506 74 q 607 120 575 96 q 657 189 638 144 q 676 293 676 233 q 463 504 676 504 z "},"":{"ha":930,"x_min":139,"x_max":847,"o":"m 139 916 q 203 985 139 985 l 488 985 q 796 737 796 985 q 785 670 796 703 q 753 608 774 636 q 704 559 733 580 q 639 529 675 538 l 639 522 q 733 490 694 512 q 798 439 772 469 q 835 372 823 409 q 847 294 847 335 q 830 184 847 231 q 784 105 812 138 q 718 52 755 73 q 642 20 681 31 q 565 4 603 8 q 494 0 526 0 l 203 0 q 139 69 139 0 l 139 916 m 461 479 l 289 479 l 289 74 l 475 74 q 544 83 507 74 q 614 115 582 92 q 669 178 647 138 q 690 281 690 218 q 669 373 690 335 q 614 434 648 410 q 540 469 581 458 q 461 479 500 479 m 437 911 l 289 911 l 289 553 l 449 553 q 514 563 480 553 q 575 596 548 573 q 621 654 603 618 q 639 742 639 690 q 619 823 639 791 q 569 875 600 855 q 504 903 539 895 q 437 911 469 911 z "},"":{"ha":765,"x_min":139,"x_max":745,"o":"m 289 911 l 289 90 q 268 21 289 41 q 203 0 247 0 q 139 69 139 0 l 139 916 q 203 985 139 985 l 661 985 q 725 974 705 985 q 745 933 745 963 l 745 785 q 730 732 745 749 q 685 715 715 715 q 624 736 644 715 q 604 806 604 758 l 604 911 l 289 911 z "},"":{"ha":982,"x_min":0,"x_max":946,"o":"m 806 0 l 140 0 l 140 -142 q 120 -211 140 -190 q 60 -232 100 -232 q 0 -163 0 -232 l 0 22 q 19 62 0 51 q 79 74 38 73 l 93 74 q 205 316 176 156 q 235 766 235 477 l 235 916 q 249 969 235 954 q 296 985 263 985 l 757 985 q 805 968 789 985 q 821 916 821 951 l 821 74 l 863 74 q 926 63 906 74 q 946 22 946 52 l 946 -163 q 886 -232 946 -232 q 826 -211 846 -232 q 806 -142 806 -190 l 806 0 m 345 771 q 319 355 345 522 q 222 74 294 189 l 671 74 l 671 911 l 345 911 l 345 771 z "},"":{"ha":835,"x_min":139,"x_max":779,"o":"m 699 743 q 637 764 657 743 q 618 833 618 785 l 618 911 l 289 911 l 289 547 l 581 547 q 609 536 599 547 q 619 509 619 524 q 616 495 619 502 q 607 483 612 488 q 595 474 602 477 q 581 471 588 471 l 289 471 l 289 74 l 639 74 l 639 151 q 659 221 639 200 q 720 241 678 241 q 765 225 750 241 q 779 172 779 209 l 779 52 q 759 11 779 21 q 696 0 739 0 l 203 0 q 139 69 139 0 l 139 916 q 203 985 139 985 l 675 985 q 738 974 718 985 q 758 933 758 964 l 758 812 q 744 760 758 776 q 699 743 729 743 z "},"":{"ha":1231,"x_min":65,"x_max":1223,"o":"m 571 541 l 571 916 q 586 969 571 954 q 639 985 602 985 q 699 968 679 985 q 718 903 718 952 l 718 541 l 742 541 l 1097 957 q 1152 985 1120 985 q 1186 971 1173 985 q 1200 940 1200 957 q 1193 924 1200 930 l 848 532 l 1204 92 q 1223 52 1223 71 q 1207 16 1223 31 q 1166 0 1191 0 q 1104 13 1133 0 q 1044 68 1076 26 l 742 465 l 718 465 l 718 83 q 699 18 718 36 q 642 0 680 0 q 588 16 604 0 q 571 69 571 33 l 571 465 l 547 465 l 244 68 q 185 13 213 26 q 122 0 157 0 q 81 16 98 0 q 65 52 65 31 q 85 92 65 69 l 440 532 l 96 924 q 89 940 89 930 q 103 971 89 957 q 138 985 117 985 q 192 957 169 985 l 547 541 l 571 541 z "},"":{"ha":835,"x_min":56,"x_max":745,"o":"m 196 98 q 275 77 241 83 q 359 71 309 71 q 446 83 407 71 q 511 118 485 96 q 554 168 536 139 q 579 227 572 197 q 587 288 587 256 q 578 356 587 326 q 545 414 568 387 q 477 456 522 441 q 367 471 432 471 l 237 471 q 222 482 228 471 q 216 509 216 493 q 222 536 216 524 q 237 547 228 547 l 368 547 q 559 741 559 547 q 507 866 559 818 q 363 914 454 914 q 215 899 286 914 l 215 821 q 195 751 215 772 q 135 730 176 730 q 90 747 104 730 q 75 800 75 764 l 75 879 q 87 923 75 910 q 132 947 98 937 q 390 985 253 985 q 515 971 459 985 q 607 936 570 958 q 667 882 643 913 q 702 815 692 850 q 713 741 713 781 q 541 518 713 573 l 541 510 q 745 288 745 477 q 732 207 745 246 q 691 129 720 167 q 620 63 662 91 q 512 17 577 35 q 367 0 447 0 q 110 45 222 0 q 66 70 77 58 q 56 111 56 82 l 56 195 q 115 261 56 261 q 176 241 156 261 q 196 174 196 220 l 196 98 z "},"":{"ha":1028,"x_min":139,"x_max":889,"o":"m 825 985 q 889 916 889 985 l 889 69 q 875 16 889 31 q 828 0 861 0 q 762 27 785 0 q 739 107 739 54 l 739 791 l 289 49 q 274 26 281 35 q 248 8 267 17 q 203 0 229 0 q 139 69 139 0 l 139 916 q 153 969 139 954 q 200 985 168 985 q 266 958 243 985 q 289 878 289 930 l 289 193 l 739 936 q 751 955 747 948 q 766 969 756 961 q 790 981 776 977 q 825 985 805 985 z "},"":{"ha":1028,"x_min":139,"x_max":889,"o":"m 825 985 q 889 916 889 985 l 889 69 q 875 16 889 31 q 828 0 861 0 q 762 27 785 0 q 739 107 739 54 l 739 791 l 289 49 q 273 25 279 33 q 248 8 267 17 q 203 0 229 0 q 139 69 139 0 l 139 916 q 153 969 139 954 q 200 985 168 985 q 266 958 243 985 q 289 878 289 930 l 289 193 l 739 936 q 751 955 747 948 q 766 969 756 961 q 790 981 776 977 q 825 985 805 985 m 625 1215 q 711 1280 637 1280 q 760 1269 739 1280 q 781 1234 781 1257 q 709 1106 781 1151 q 514 1061 638 1061 q 321 1104 391 1061 q 248 1229 252 1147 q 267 1268 248 1255 q 317 1280 287 1280 q 403 1215 391 1280 q 436 1144 411 1171 q 514 1118 462 1118 q 591 1144 566 1118 q 625 1215 616 1171 z "},"":{"ha":842,"x_min":139,"x_max":848,"o":"m 289 878 l 289 541 l 318 541 l 726 957 q 782 985 752 985 q 818 971 803 985 q 832 940 832 957 q 825 924 832 930 l 429 532 l 829 92 q 848 52 848 71 q 833 15 848 31 q 791 0 817 0 q 731 14 760 0 q 667 68 703 28 l 318 464 l 289 464 l 289 90 q 268 21 289 41 q 203 0 247 0 q 139 69 139 0 l 139 916 q 153 969 139 954 q 200 985 168 985 q 266 958 243 985 q 289 878 289 930 z "},"":{"ha":1000,"x_min":28,"x_max":861,"o":"m 798 985 q 861 916 861 985 l 861 69 q 847 16 861 31 q 800 0 833 0 q 734 27 757 0 q 711 107 711 54 l 711 911 l 385 911 l 385 771 q 372 460 385 587 q 329 239 360 334 q 295 162 317 201 q 242 86 273 123 q 171 24 212 48 q 87 0 130 0 q 45 23 62 0 q 28 75 28 46 q 41 112 28 100 q 103 139 55 123 q 235 288 195 171 q 263 425 254 343 q 274 570 273 506 q 275 766 275 634 l 275 916 q 290 969 275 954 q 336 985 304 985 l 798 985 z "},"":{"ha":1218,"x_min":139,"x_max":1072,"o":"m 1010 0 q 953 25 968 0 q 937 107 937 51 l 937 664 l 939 815 l 929 815 q 893 664 912 711 l 653 52 q 587 0 631 0 q 524 52 545 0 l 285 664 q 254 815 262 721 l 244 815 q 249 664 249 766 l 249 78 q 232 19 249 37 q 192 0 214 0 q 154 15 170 0 q 139 62 139 31 l 139 911 q 161 965 139 946 q 218 985 183 985 q 309 918 282 985 l 593 170 l 600 170 l 888 911 q 994 985 915 985 q 1049 966 1027 985 q 1072 911 1072 947 l 1072 69 q 1010 0 1072 0 z "},"":{"ha":1031,"x_min":139,"x_max":892,"o":"m 828 985 q 892 916 892 985 l 892 69 q 878 15 892 31 q 831 0 863 0 q 765 27 787 0 q 742 107 742 54 l 742 471 l 289 471 l 289 90 q 268 21 289 41 q 203 0 248 0 q 139 69 139 0 l 139 916 q 153 969 139 954 q 200 985 168 985 q 266 958 243 985 q 289 878 289 930 l 289 547 l 742 547 l 742 895 q 763 964 742 943 q 828 985 783 985 z "},"":{"ha":994,"x_min":74,"x_max":921,"o":"m 921 492 q 916 407 921 456 q 897 302 911 357 q 853 193 882 247 q 778 96 825 139 q 662 27 731 54 q 496 0 593 0 q 329 27 398 0 q 213 98 260 54 q 138 196 166 142 q 96 306 111 251 q 78 409 82 360 q 74 492 74 458 q 79 578 74 528 q 98 684 83 629 q 141 792 113 739 q 216 889 170 846 q 332 958 263 932 q 496 985 400 985 q 660 958 591 985 q 777 888 729 931 q 852 790 824 844 q 896 681 881 736 q 916 576 911 627 q 921 492 921 526 m 496 914 q 394 893 437 914 q 322 838 352 872 q 275 759 293 804 q 247 668 257 715 q 234 575 237 621 q 231 492 231 529 q 233 416 231 460 q 245 326 236 372 q 271 233 254 279 q 318 151 288 187 q 391 93 347 115 q 496 71 434 71 q 598 92 555 72 q 671 146 642 113 q 719 222 701 179 q 747 312 737 265 q 760 405 757 358 q 764 492 764 451 q 761 568 764 524 q 750 660 759 612 q 724 752 741 707 q 677 834 707 798 q 603 892 647 870 q 496 914 558 914 z "},"":{"ha":1026,"x_min":139,"x_max":888,"o":"m 289 985 l 823 985 q 872 968 856 985 q 888 916 888 951 l 888 69 q 873 16 888 31 q 827 0 859 0 q 760 27 783 0 q 737 107 737 54 l 737 911 l 289 911 l 289 90 q 268 21 289 41 q 203 0 247 0 q 139 69 139 0 l 139 916 q 153 969 139 954 q 200 985 168 985 l 289 985 z "},"":{"ha":857,"x_min":139,"x_max":808,"o":"m 433 382 l 289 382 l 289 90 q 268 21 289 41 q 203 0 248 0 q 139 69 139 0 l 139 916 q 153 969 139 954 q 200 985 168 985 l 432 985 q 486 984 456 985 q 550 978 516 983 q 621 962 584 973 q 694 928 657 950 q 739 892 718 913 q 775 843 760 871 q 800 779 791 815 q 808 697 808 743 q 785 573 808 631 q 715 473 762 516 q 598 406 669 431 q 433 382 528 382 m 432 911 l 289 911 l 289 456 l 432 456 q 594 514 536 456 q 652 697 652 573 q 640 789 652 749 q 601 856 627 829 q 533 897 574 883 q 432 911 491 911 z "},"":{"ha":807,"x_min":74,"x_max":779,"o":"m 699 734 q 638 755 658 734 q 618 825 618 777 l 618 903 q 517 914 562 914 q 398 886 451 914 q 308 804 345 859 q 251 668 271 749 q 231 481 231 587 q 251 285 231 363 q 309 159 271 206 q 401 92 347 111 q 526 72 456 72 q 614 82 569 71 q 708 113 659 93 l 734 123 q 746 126 743 126 q 769 113 760 126 q 779 85 779 100 q 761 57 779 64 l 737 47 q 617 12 678 24 q 488 0 555 0 q 304 32 382 0 q 175 125 226 64 q 99 277 124 187 q 74 484 74 368 q 106 707 74 612 q 195 863 138 802 q 330 955 252 925 q 498 985 408 985 q 572 981 533 985 q 646 971 611 978 q 709 955 682 964 q 747 932 736 945 q 758 888 758 918 l 758 804 q 744 751 758 768 q 699 734 729 734 z "},"":{"ha":903,"x_min":28,"x_max":875,"o":"m 734 911 l 526 911 l 526 83 q 506 18 526 36 q 440 0 486 0 q 376 69 376 0 l 376 911 l 168 911 l 168 812 q 148 743 168 764 q 87 722 128 722 q 28 791 28 722 l 28 933 q 48 974 28 964 q 111 985 68 985 l 791 985 q 855 974 835 985 q 875 933 875 964 l 875 791 q 860 739 875 755 q 815 722 846 722 q 754 743 774 722 q 734 812 734 764 l 734 911 z "},"":{"ha":854,"x_min":65,"x_max":806,"o":"m 492 424 l 682 911 q 762 985 709 985 q 794 971 782 985 q 806 939 806 958 q 799 908 806 923 l 541 301 q 488 197 517 245 q 419 101 458 148 q 330 27 380 55 q 227 0 280 0 q 176 19 195 0 q 157 77 157 37 q 176 116 157 105 q 250 134 195 127 q 351 172 313 140 q 416 271 390 205 l 74 901 q 65 936 65 916 q 79 971 65 957 q 115 985 93 985 q 176 970 152 985 q 222 913 201 955 l 484 424 l 492 424 z "},"":{"ha":1165,"x_min":62,"x_max":1103,"o":"m 657 916 l 657 821 q 734 817 696 821 q 818 805 772 814 q 903 781 863 795 q 980 740 942 766 q 1044 682 1017 715 q 1086 600 1070 648 q 1103 494 1103 552 q 990 249 1103 338 q 657 160 878 160 l 657 85 q 638 19 657 38 q 581 0 619 0 q 526 17 543 0 q 509 71 509 35 l 509 160 q 175 249 288 160 q 62 494 62 338 q 79 600 62 552 q 121 682 95 648 q 185 740 148 715 q 262 781 223 766 q 347 805 301 795 q 430 817 392 814 q 507 821 468 821 l 507 901 q 527 967 507 949 q 587 985 547 985 q 641 968 624 985 q 657 916 657 951 m 656 750 l 656 231 q 769 245 718 231 q 861 290 821 260 q 925 373 902 321 q 947 494 947 425 q 874 679 947 608 q 656 750 801 750 m 510 231 l 510 750 q 292 679 365 750 q 218 494 218 608 q 241 373 218 425 q 304 290 263 321 q 396 245 345 260 q 510 231 448 231 z "},"":{"ha":818,"x_min":41,"x_max":777,"o":"m 432 603 l 610 911 q 653 967 632 950 q 699 985 674 985 q 728 976 715 985 q 741 951 741 966 q 725 909 741 932 l 492 530 l 765 83 q 773 65 770 74 q 777 45 777 56 q 762 13 777 26 q 722 0 747 0 q 686 4 702 0 q 657 17 670 8 q 632 39 644 25 q 610 72 621 52 l 401 427 l 396 427 l 178 75 q 152 38 164 52 q 129 15 140 23 q 106 3 117 6 q 83 0 96 0 q 52 9 62 0 q 41 31 41 18 q 57 75 41 48 l 335 509 l 97 904 q 87 937 87 918 q 103 970 87 956 q 142 985 119 985 q 203 966 176 985 q 250 911 229 947 l 424 603 l 432 603 z "},"":{"ha":1019,"x_min":139,"x_max":983,"o":"m 843 0 l 203 0 q 139 69 139 0 l 139 916 q 153 969 139 954 q 200 985 168 985 q 266 958 243 985 q 289 878 289 930 l 289 74 l 708 74 l 708 895 q 729 964 708 943 q 794 985 750 985 q 843 968 827 985 q 859 916 859 951 l 859 74 l 900 74 q 963 63 943 74 q 983 22 983 52 l 983 -163 q 924 -232 983 -232 q 863 -211 883 -232 q 843 -142 843 -190 l 843 0 z "},"":{"ha":922,"x_min":97,"x_max":783,"o":"m 722 0 q 656 27 679 0 q 633 107 633 54 l 633 416 q 510 376 566 389 q 386 363 454 363 q 172 424 247 363 q 97 623 97 484 l 97 916 q 111 969 97 954 q 157 985 124 985 q 241 878 241 985 l 241 627 q 427 440 241 440 q 531 454 475 440 q 633 494 587 469 l 633 895 q 654 964 633 943 q 720 985 675 985 q 783 916 783 985 l 783 69 q 769 16 783 31 q 722 0 755 0 z "},"":{"ha":1397,"x_min":139,"x_max":1258,"o":"m 1194 0 l 203 0 q 139 69 139 0 l 139 916 q 153 969 139 954 q 200 985 168 985 q 266 958 243 985 q 289 878 289 930 l 289 74 l 624 74 l 624 901 q 644 967 624 949 q 710 985 665 985 q 774 916 774 985 l 774 74 l 1108 74 l 1108 895 q 1129 964 1108 943 q 1194 985 1150 985 q 1242 968 1227 985 q 1258 916 1258 951 l 1258 69 q 1242 17 1258 33 q 1194 0 1227 0 z "},"":{"ha":1419,"x_min":139,"x_max":1383,"o":"m 774 916 l 774 74 l 1108 74 l 1108 895 q 1129 964 1108 943 q 1194 985 1150 985 q 1242 968 1227 985 q 1258 916 1258 951 l 1258 74 l 1300 74 q 1363 63 1343 74 q 1383 22 1383 52 l 1383 -163 q 1324 -232 1383 -232 q 1263 -211 1283 -232 q 1243 -142 1243 -190 l 1243 0 l 203 0 q 139 69 139 0 l 139 916 q 153 969 139 954 q 200 985 168 985 q 266 958 243 985 q 289 878 289 930 l 289 74 l 624 74 l 624 901 q 644 967 624 949 q 710 985 665 985 q 774 916 774 985 z "},"":{"ha":1053,"x_min":11,"x_max":1004,"o":"m 330 911 l 151 911 l 151 812 q 131 743 151 764 q 71 722 111 722 q 11 791 11 722 l 11 933 q 31 974 11 963 q 94 985 51 985 l 416 985 q 465 968 449 985 q 481 916 481 951 l 481 551 l 661 551 q 803 538 743 551 q 910 494 863 525 q 980 410 956 464 q 1004 278 1004 355 q 991 188 1004 229 q 957 118 979 146 q 906 68 936 90 q 845 34 876 47 q 780 13 814 21 q 716 3 745 5 q 659 0 687 0 l 395 0 q 346 17 362 0 q 330 69 330 33 l 330 911 m 633 478 l 479 478 l 479 74 l 640 74 q 697 79 670 74 q 752 98 724 84 q 801 134 781 112 q 834 193 821 156 q 847 278 847 230 q 792 433 847 388 q 633 478 737 478 z "},"":{"ha":1235,"x_min":139,"x_max":1096,"o":"m 289 878 l 289 551 l 456 551 q 597 538 537 551 q 704 494 658 525 q 775 410 751 464 q 799 278 799 355 q 786 188 799 229 q 752 118 773 146 q 701 68 730 90 q 640 34 671 47 q 574 13 609 21 q 510 3 539 5 q 453 0 481 0 l 203 0 q 139 69 139 0 l 139 916 q 153 969 139 954 q 200 985 168 985 q 266 958 243 985 q 289 878 289 930 m 428 478 l 288 478 l 288 74 l 435 74 q 492 79 465 74 q 547 98 519 84 q 595 134 575 112 q 629 193 616 156 q 642 278 642 230 q 587 433 642 388 q 428 478 532 478 m 1032 985 q 1096 916 1096 985 l 1096 69 q 1082 16 1096 31 q 1035 0 1067 0 q 969 27 991 0 q 946 107 946 54 l 946 895 q 967 964 946 943 q 1032 985 988 985 z "},"":{"ha":875,"x_min":139,"x_max":812,"o":"m 289 878 l 289 551 l 469 551 q 611 538 551 551 q 718 494 671 525 q 788 410 764 464 q 812 278 812 355 q 800 188 812 229 q 765 118 787 146 q 714 68 744 90 q 653 34 684 47 q 588 13 623 21 q 524 3 553 5 q 467 0 495 0 l 203 0 q 139 69 139 0 l 139 916 q 153 969 139 954 q 200 985 168 985 q 266 958 243 985 q 289 878 289 930 m 441 478 l 288 478 l 288 74 l 449 74 q 506 79 479 74 q 561 98 533 84 q 610 134 589 112 q 643 193 630 156 q 656 278 656 230 q 601 433 656 388 q 441 478 545 478 z "},"":{"ha":854,"x_min":56,"x_max":781,"o":"m 196 98 q 343 71 260 71 q 544 173 470 71 q 624 471 617 275 l 235 471 q 219 482 225 471 q 214 509 214 493 q 219 536 214 524 q 235 547 225 547 l 621 547 q 598 692 616 629 q 556 797 581 756 q 496 865 531 838 q 424 902 461 891 q 343 914 387 913 q 207 899 280 914 l 207 821 q 187 751 207 772 q 126 730 167 730 q 66 800 66 730 l 66 879 q 78 923 66 910 q 123 947 90 936 q 353 985 252 985 q 781 514 781 985 q 765 350 781 426 q 715 209 749 274 q 631 98 682 144 q 508 26 581 52 q 345 0 435 0 q 110 45 208 0 q 66 70 77 58 q 56 111 56 82 l 56 195 q 115 261 56 261 q 176 241 156 261 q 196 174 196 220 l 196 98 z "},"":{"ha":1369,"x_min":139,"x_max":1296,"o":"m 1296 492 q 1293 416 1296 454 q 1279 329 1290 379 q 1251 234 1268 278 q 1201 146 1234 191 q 1126 71 1169 102 q 1020 20 1084 39 q 878 0 956 0 q 740 18 802 0 q 636 65 678 36 q 563 136 595 94 q 512 218 530 177 q 483 308 494 260 q 467 394 471 357 q 463 471 463 431 l 289 471 l 289 90 q 268 21 289 41 q 203 0 247 0 q 139 69 139 0 l 139 916 q 153 969 139 954 q 200 985 168 985 q 266 958 243 985 q 289 878 289 930 l 289 547 l 464 547 q 472 624 466 587 q 491 705 477 661 q 524 788 505 750 q 576 864 544 827 q 650 927 609 901 q 749 969 690 953 q 878 985 808 985 q 1020 965 956 985 q 1126 913 1084 945 q 1201 837 1169 882 q 1251 748 1234 792 q 1279 654 1268 705 q 1293 566 1290 603 q 1296 492 1296 529 m 1139 492 q 878 914 1139 914 q 788 898 828 914 q 721 855 747 881 q 675 791 695 829 q 645 717 656 753 q 629 636 635 681 q 621 559 623 591 q 619 492 619 528 q 878 71 619 71 q 1139 492 1139 71 z "},"":{"ha":893,"x_min":79,"x_max":754,"o":"m 754 916 l 754 69 q 690 0 754 0 q 625 21 646 0 q 604 90 604 41 l 604 436 l 478 436 l 244 53 q 150 0 213 0 q 97 13 115 0 q 79 46 79 25 q 92 82 79 62 l 322 446 q 207 484 261 453 q 116 571 153 515 q 79 696 79 627 q 98 809 79 759 q 149 891 117 859 q 227 945 181 924 q 322 976 272 966 q 431 985 372 985 l 693 985 q 740 969 726 985 q 754 916 754 954 m 604 911 l 444 911 q 392 906 418 911 q 337 887 366 901 q 286 851 308 873 q 250 791 264 829 q 236 704 236 753 q 255 608 236 648 q 307 548 274 568 q 376 519 340 528 q 456 510 412 510 l 604 510 l 604 911 z "},"":{"ha":758,"x_min":60,"x_max":657,"o":"m 518 131 l 514 132 q 410 32 469 63 q 269 0 351 0 q 178 13 218 0 q 113 51 139 26 q 73 110 86 75 q 60 187 60 144 q 75 276 60 232 q 130 354 90 319 q 237 410 169 389 q 410 431 304 431 l 511 431 l 511 469 q 503 550 511 517 q 478 603 495 583 q 435 632 462 623 q 372 642 409 642 q 250 583 303 642 q 165 534 205 534 q 129 548 142 534 q 117 582 117 562 q 142 630 117 608 q 207 666 167 651 q 298 689 248 681 q 400 697 349 697 q 525 682 475 697 q 604 635 574 666 q 645 556 633 604 q 657 446 657 509 l 657 65 q 646 16 657 32 q 603 0 634 0 q 538 31 557 0 q 518 131 518 62 m 513 372 l 432 372 q 204 207 204 372 q 325 93 204 93 q 384 103 351 93 q 445 134 416 113 q 493 184 474 154 q 513 256 513 215 l 513 372 z "},"":{"ha":782,"x_min":77,"x_max":713,"o":"m 713 349 q 625 89 713 177 q 395 0 537 0 q 266 20 321 0 q 167 84 211 39 q 100 209 123 129 q 77 403 77 290 q 106 708 77 589 q 201 894 136 827 q 372 987 265 961 q 427 1002 389 992 q 495 1019 465 1011 q 530 1028 525 1026 q 561 1039 540 1031 q 600 1051 583 1046 q 633 1055 616 1055 q 657 1048 647 1055 q 668 1023 668 1040 q 656 976 668 997 q 624 940 644 955 q 571 914 604 926 q 502 894 537 902 q 416 878 467 886 q 273 823 327 863 q 193 708 220 783 q 167 510 167 632 l 176 510 q 421 697 244 697 q 536 678 485 697 q 628 619 587 659 q 691 510 669 579 q 713 349 713 441 m 225 349 q 264 129 225 202 q 395 56 302 56 q 459 70 431 56 q 506 109 488 84 q 535 163 523 134 q 553 227 547 191 q 560 291 558 263 q 562 349 562 318 q 561 394 562 372 q 554 450 559 416 q 538 513 549 485 q 510 568 527 542 q 464 610 493 595 q 399 625 435 625 q 307 585 347 625 q 246 481 267 544 q 225 349 225 418 z "},"":{"ha":721,"x_min":111,"x_max":671,"o":"m 111 632 q 123 681 111 665 q 167 697 135 697 l 403 697 q 473 692 439 697 q 537 674 506 686 q 592 643 569 661 q 629 595 615 624 q 643 530 643 566 q 605 426 643 470 q 498 371 567 382 l 498 363 q 624 314 577 359 q 671 205 671 269 q 652 121 671 158 q 605 61 633 83 q 537 25 576 39 q 461 5 498 11 q 386 0 425 0 l 167 0 q 123 16 135 0 q 111 65 111 32 l 111 632 m 253 330 l 253 62 l 370 62 q 441 75 410 62 q 488 107 471 87 q 513 150 505 127 q 521 199 521 173 q 482 296 521 262 q 367 330 444 330 l 253 330 m 253 389 l 372 389 q 461 420 426 389 q 497 517 497 452 q 462 603 497 572 q 366 635 427 635 l 253 635 l 253 389 z "},"":{"ha":616,"x_min":111,"x_max":599,"o":"m 111 632 q 123 681 111 665 q 167 697 135 697 l 554 697 q 599 654 599 697 l 599 536 q 587 492 599 507 q 547 478 576 478 q 487 495 503 478 q 471 567 471 512 l 471 632 l 256 632 l 256 98 q 236 20 256 39 q 167 0 216 0 q 123 16 135 0 q 111 65 111 32 l 111 632 z "},"":{"ha":762,"x_min":0,"x_max":742,"o":"m 45 65 l 85 65 q 155 225 132 127 q 178 494 178 322 l 178 632 q 190 682 178 666 q 235 697 203 697 l 581 697 q 624 681 612 697 q 636 632 636 665 l 636 65 l 697 65 q 742 22 742 65 l 742 -107 q 730 -151 742 -137 q 690 -165 719 -165 q 630 -148 646 -165 q 614 -77 614 -131 l 614 0 l 127 0 l 127 -77 q 112 -148 127 -131 q 52 -165 96 -165 q 11 -151 22 -165 q 0 -107 0 -137 l 0 22 q 45 65 0 65 m 187 65 l 492 65 l 492 632 l 269 632 l 269 494 q 250 241 269 340 q 187 65 231 142 z "},"":{"ha":729,"x_min":69,"x_max":673,"o":"m 604 175 q 620 186 610 182 q 639 191 629 191 q 661 182 651 191 q 671 161 671 174 q 653 114 671 136 q 397 0 560 0 q 254 23 316 0 q 152 89 193 45 q 90 193 111 132 q 69 332 69 254 q 152 604 69 511 q 395 697 235 697 q 509 679 458 697 q 597 625 560 661 q 653 537 633 589 q 673 418 673 485 q 595 350 673 350 l 221 350 q 220 337 220 345 q 220 319 220 329 q 231 212 220 260 q 267 131 243 164 q 327 79 290 97 q 412 61 363 61 q 482 72 453 61 q 532 97 511 82 q 567 130 553 113 q 591 159 581 146 l 604 175 m 386 642 q 276 585 319 642 q 225 408 234 528 l 485 408 q 520 417 509 408 q 532 449 532 426 q 520 532 532 496 q 488 592 508 568 q 441 629 468 616 q 386 642 415 642 z "},"":{"ha":1029,"x_min":28,"x_max":1002,"o":"m 444 396 l 444 632 q 459 680 444 662 q 513 697 473 697 q 568 681 551 697 q 585 612 585 665 l 585 396 l 625 396 l 844 640 q 946 697 896 697 q 985 663 985 697 q 961 619 985 641 q 892 563 938 597 q 814 494 846 528 q 765 442 795 475 q 715 390 735 410 l 978 71 q 1002 26 1002 45 q 989 7 1002 14 q 936 0 977 0 q 871 10 892 0 q 833 43 850 20 l 614 334 l 585 334 l 585 85 q 567 18 585 36 q 513 0 549 0 q 458 16 473 0 q 444 65 444 31 l 444 334 l 415 334 l 196 43 q 158 10 179 20 q 93 0 137 0 q 40 7 52 0 q 28 26 28 14 q 52 71 28 45 l 314 390 q 266 441 296 408 q 215 494 236 473 q 138 563 184 528 q 68 619 92 597 q 45 663 45 641 q 83 697 45 697 q 184 640 134 697 l 404 396 l 444 396 z "},"":{"ha":660,"x_min":28,"x_max":606,"o":"m 158 138 q 207 78 175 100 q 301 56 238 56 q 456 201 456 56 q 293 328 456 328 l 210 328 q 190 338 197 328 q 183 363 183 349 q 210 392 183 392 l 296 392 q 403 427 365 392 q 441 526 441 461 q 407 611 441 580 q 313 642 373 642 q 180 567 225 642 q 148 527 165 541 q 103 514 131 514 q 67 528 81 514 q 53 564 53 541 q 127 657 53 615 q 214 686 158 674 q 314 697 269 697 q 587 530 587 697 q 548 428 587 472 q 429 367 509 383 l 429 361 q 558 314 511 356 q 606 204 606 271 q 526 55 606 110 q 289 0 447 0 q 96 47 173 0 q 28 142 28 90 q 45 178 28 163 q 82 193 62 193 q 158 138 134 193 z "},"":{"ha":815,"x_min":111,"x_max":704,"o":"m 704 632 l 704 65 q 692 16 704 32 q 648 0 680 0 q 581 26 602 0 q 559 114 559 52 l 559 511 l 245 36 q 215 8 233 16 q 167 0 197 0 q 123 16 135 0 q 111 65 111 32 l 111 632 q 123 681 111 665 q 167 697 135 697 q 235 671 214 697 q 256 583 256 645 l 256 180 l 568 656 q 600 688 583 679 q 648 697 617 697 q 692 681 680 697 q 704 632 704 665 z "},"":{"ha":815,"x_min":111,"x_max":704,"o":"m 704 632 l 704 65 q 692 16 704 32 q 648 0 680 0 q 581 26 602 0 q 559 114 559 52 l 559 511 l 245 36 q 215 8 233 16 q 167 0 197 0 q 123 16 135 0 q 111 65 111 32 l 111 632 q 123 681 111 665 q 167 697 135 697 q 235 671 214 697 q 256 583 256 645 l 256 180 l 568 656 q 600 688 583 679 q 648 697 617 697 q 692 681 680 697 q 704 632 704 665 m 488 904 q 516 951 493 937 q 570 966 538 966 q 611 950 593 966 q 629 905 629 934 q 570 809 629 846 q 406 772 511 772 q 243 810 302 772 q 184 907 184 847 q 203 950 184 935 q 245 966 222 966 q 298 951 276 966 q 326 904 321 937 q 350 846 332 866 q 406 825 367 825 q 464 846 445 825 q 488 904 482 867 z "},"":{"ha":720,"x_min":111,"x_max":692,"o":"m 256 583 l 256 399 l 301 399 l 545 640 q 599 684 576 671 q 647 697 623 697 q 686 663 686 697 q 665 616 686 637 q 593 562 644 595 q 510 500 543 528 q 393 393 479 473 l 667 71 q 692 26 692 42 q 688 13 692 18 q 669 4 685 8 q 625 0 654 0 q 558 10 579 0 q 519 43 538 20 l 289 334 l 256 334 l 256 98 q 236 20 256 39 q 167 0 216 0 q 123 16 135 0 q 111 65 111 32 l 111 632 q 123 681 111 665 q 167 697 135 697 q 235 671 214 697 q 256 583 256 645 z "},"":{"ha":778,"x_min":14,"x_max":667,"o":"m 667 632 l 667 65 q 655 16 667 32 q 611 0 643 0 q 543 26 564 0 q 522 114 522 52 l 522 632 l 300 632 l 300 486 q 283 259 300 355 q 224 96 267 162 q 158 24 193 49 q 74 0 123 0 q 30 13 47 0 q 14 54 14 26 q 31 91 14 73 q 74 114 49 109 q 122 134 101 120 q 157 166 143 149 q 181 214 171 184 q 196 270 191 243 q 204 338 201 296 q 208 412 207 380 q 208 494 208 444 l 208 632 q 220 681 208 665 q 267 697 232 697 l 611 697 q 655 681 643 697 q 667 632 667 665 z "},"":{"ha":961,"x_min":111,"x_max":850,"o":"m 111 60 l 111 632 q 172 697 111 697 q 235 688 215 697 q 269 656 254 680 l 485 150 l 488 150 l 703 656 q 794 697 721 697 q 838 681 826 697 q 850 632 850 665 l 850 65 q 838 16 850 32 q 794 0 826 0 q 726 26 747 0 q 705 114 705 52 l 705 444 l 700 444 l 524 45 q 465 0 505 0 q 410 37 427 0 l 216 475 l 211 475 l 211 114 q 201 23 211 47 q 158 0 192 0 q 111 60 111 0 z "},"":{"ha":815,"x_min":111,"x_max":704,"o":"m 704 632 l 704 65 q 692 16 704 32 q 648 0 680 0 q 581 26 602 0 q 559 114 559 52 l 559 323 l 256 323 l 256 98 q 236 20 256 39 q 167 0 216 0 q 123 16 135 0 q 111 65 111 32 l 111 632 q 123 681 111 665 q 167 697 135 697 q 235 671 214 697 q 256 583 256 645 l 256 392 l 559 392 l 559 597 q 579 677 559 657 q 648 697 600 697 q 692 681 680 697 q 704 632 704 665 z "},"":{"ha":775,"x_min":69,"x_max":705,"o":"m 387 0 q 253 22 312 0 q 153 87 193 43 q 91 196 112 131 q 69 349 69 261 q 92 503 69 437 q 155 611 114 568 q 255 676 197 654 q 387 697 314 697 q 520 676 461 697 q 621 611 579 654 q 684 502 662 568 q 705 349 705 437 q 684 196 705 261 q 623 87 663 131 q 523 22 582 43 q 387 0 463 0 m 387 56 q 455 68 425 56 q 509 113 486 81 q 543 203 531 146 q 555 349 555 260 q 543 491 555 435 q 508 582 530 548 q 455 628 486 615 q 387 642 424 642 q 321 628 352 642 q 268 582 291 615 q 233 491 245 548 q 220 349 220 435 q 231 207 220 263 q 265 116 243 150 q 318 69 287 83 q 387 56 349 56 z "},"":{"ha":811,"x_min":111,"x_max":700,"o":"m 700 632 l 700 65 q 688 16 700 32 q 644 0 676 0 q 576 26 597 0 q 555 114 555 52 l 555 632 l 256 632 l 256 98 q 236 20 256 39 q 167 0 216 0 q 123 16 135 0 q 111 65 111 32 l 111 632 q 123 681 111 665 q 167 697 135 697 l 644 697 q 688 681 676 697 q 700 632 700 665 z "},"":{"ha":786,"x_min":111,"x_max":713,"o":"m 111 -240 l 111 637 q 165 697 111 697 q 231 669 210 697 q 253 578 252 641 l 253 567 l 254 567 q 295 622 273 597 q 343 663 317 646 q 402 688 370 680 q 475 697 435 697 q 713 383 713 697 q 690 216 713 288 q 625 96 667 144 q 520 24 582 48 q 382 0 459 0 q 256 26 311 0 l 256 -207 q 251 -256 256 -237 q 236 -287 246 -275 q 208 -302 225 -298 q 167 -306 191 -306 q 123 -290 134 -306 q 111 -240 111 -275 m 562 372 q 552 486 562 441 q 522 557 541 531 q 477 594 503 583 q 419 604 450 604 q 361 590 391 604 q 309 553 332 576 q 270 501 285 530 q 254 441 254 472 l 254 140 q 263 110 254 125 q 289 82 272 94 q 329 63 305 71 q 382 56 353 56 q 456 71 422 56 q 513 124 490 87 q 549 221 536 161 q 562 372 562 282 z "},"":{"ha":681,"x_min":69,"x_max":653,"o":"m 586 175 q 621 191 602 191 q 643 182 633 191 q 653 161 653 174 q 635 114 653 136 q 383 0 542 0 q 237 26 297 0 q 140 98 177 52 q 86 208 102 144 q 69 347 69 272 q 95 510 69 444 q 165 618 120 577 q 270 679 210 660 q 399 697 330 697 q 490 685 446 697 q 566 652 533 673 q 618 605 599 631 q 637 549 637 578 q 632 526 637 536 q 619 509 627 516 q 601 498 611 502 q 579 494 590 494 q 531 509 549 494 q 504 553 513 524 q 488 589 496 573 q 466 617 479 606 q 436 635 453 629 q 396 642 419 642 q 320 628 353 642 q 265 580 288 614 q 231 489 243 546 q 220 347 220 433 q 229 222 220 276 q 260 133 239 168 q 316 79 281 97 q 399 61 350 61 q 456 68 431 61 q 501 88 481 75 q 537 118 521 101 q 568 153 553 134 l 586 175 z "},"":{"ha":689,"x_min":18,"x_max":671,"o":"m 543 632 l 415 632 l 415 90 q 397 17 415 35 q 336 0 378 0 q 284 16 298 0 q 271 65 271 31 l 271 632 l 146 632 l 146 581 q 130 509 146 526 q 69 492 114 492 q 30 506 41 492 q 18 550 18 520 l 18 654 q 62 697 18 697 l 627 697 q 671 654 671 697 l 671 550 q 660 506 671 520 q 619 492 648 492 q 559 509 575 492 q 543 581 543 526 l 543 632 z "},"":{"ha":711,"x_min":41,"x_max":669,"o":"m 663 628 l 422 11 q 386 -76 404 -37 q 340 -160 368 -115 q 283 -235 312 -205 q 217 -286 255 -265 q 138 -306 178 -306 q 90 -291 109 -306 q 71 -256 71 -277 q 146 -193 71 -193 q 265 -142 227 -193 q 323 -12 297 -98 l 49 628 q 41 660 41 643 q 93 697 41 697 q 158 674 127 697 q 207 604 188 652 l 389 150 l 396 150 l 479 393 q 545 610 500 455 q 573 674 555 650 q 625 697 591 697 q 669 665 669 697 q 663 628 669 648 z "},"":{"ha":1065,"x_min":74,"x_max":991,"o":"m 604 960 l 604 614 l 606 614 q 678 676 635 656 q 766 697 722 697 q 991 364 991 697 q 920 95 991 190 q 730 0 849 0 q 604 47 652 0 l 604 -218 q 586 -288 604 -270 q 528 -306 568 -306 q 475 -290 488 -306 q 461 -240 461 -275 l 461 61 q 302 0 408 0 q 134 85 193 0 q 74 343 74 171 q 88 482 74 420 q 125 583 102 544 q 180 649 149 623 q 243 686 211 675 q 309 697 275 697 q 398 682 361 697 q 460 624 435 667 l 461 624 l 461 990 q 474 1040 461 1024 q 526 1055 488 1055 q 586 1037 568 1055 q 604 960 604 1019 m 463 170 l 463 500 q 355 603 463 603 q 252 538 285 603 q 218 343 218 474 q 247 132 218 199 q 350 65 275 65 q 426 99 390 65 q 463 170 463 132 m 603 486 l 603 167 q 633 92 603 119 q 708 65 664 65 q 814 135 781 65 q 847 353 847 205 q 818 542 847 481 q 720 603 788 603 q 636 575 669 603 q 603 486 603 547 z "},"":{"ha":671,"x_min":49,"x_max":623,"o":"m 66 69 l 269 339 l 93 610 q 78 638 83 625 q 74 664 74 652 q 87 689 74 681 q 118 697 100 697 q 185 681 160 697 q 232 628 211 664 l 353 427 l 358 427 l 497 652 q 531 688 513 678 q 576 697 548 697 q 611 671 611 697 q 596 628 611 653 l 411 371 l 606 77 q 623 36 623 49 q 571 0 623 0 q 532 4 548 0 q 504 16 516 8 q 482 37 492 24 q 461 66 472 50 l 326 277 l 323 277 l 167 40 q 135 9 152 18 q 86 0 117 0 q 49 28 49 0 q 66 69 49 46 z "},"":{"ha":803,"x_min":111,"x_max":782,"o":"m 654 0 l 167 0 q 123 16 135 0 q 111 65 111 32 l 111 632 q 123 681 111 665 q 167 697 135 697 q 235 671 214 697 q 256 583 256 645 l 256 65 l 532 65 l 532 599 q 552 678 532 659 q 621 697 572 697 q 664 681 652 697 q 676 632 676 665 l 676 65 l 737 65 q 782 22 782 65 l 782 -107 q 771 -151 782 -137 q 730 -165 760 -165 q 670 -148 686 -165 q 654 -77 654 -131 l 654 0 z "},"":{"ha":737,"x_min":69,"x_max":627,"o":"m 208 583 l 208 428 q 236 331 208 363 q 328 300 264 300 q 482 334 416 300 l 482 597 q 502 677 482 657 q 571 697 522 697 q 614 681 602 697 q 627 632 627 665 l 627 65 q 614 16 627 32 q 571 0 602 0 q 503 26 524 0 q 482 114 482 52 l 482 273 q 388 243 446 256 q 278 231 330 231 q 118 276 167 231 q 69 416 69 321 l 69 632 q 81 681 69 665 q 125 697 94 697 q 190 671 171 697 q 208 583 208 646 z "},"":{"ha":1084,"x_min":111,"x_max":974,"o":"m 918 0 l 167 0 q 123 16 135 0 q 111 65 111 32 l 111 632 q 123 681 111 665 q 167 697 135 697 q 235 671 214 697 q 256 583 256 645 l 256 65 l 471 65 l 471 610 q 488 679 471 661 q 542 697 505 697 q 597 680 581 697 q 614 610 614 662 l 614 65 l 829 65 l 829 599 q 849 678 829 659 q 918 697 869 697 q 962 681 949 697 q 974 632 974 665 l 974 65 q 962 16 974 32 q 918 0 949 0 z "},"":{"ha":1100,"x_min":111,"x_max":1079,"o":"m 951 0 l 167 0 q 123 16 135 0 q 111 65 111 32 l 111 632 q 123 681 111 665 q 167 697 135 697 q 235 671 214 697 q 256 583 256 645 l 256 65 l 471 65 l 471 610 q 488 679 471 661 q 542 697 505 697 q 597 680 581 697 q 614 610 614 662 l 614 65 l 829 65 l 829 599 q 849 678 829 659 q 918 697 869 697 q 962 681 949 697 q 974 632 974 665 l 974 65 l 1035 65 q 1079 22 1079 65 l 1079 -107 q 1068 -151 1079 -137 q 1028 -165 1057 -165 q 968 -148 984 -165 q 951 -77 951 -131 l 951 0 z "},"":{"ha":833,"x_min":18,"x_max":794,"o":"m 62 697 l 350 697 q 394 685 383 697 q 406 639 406 673 l 406 401 l 534 401 q 733 353 673 401 q 794 211 794 305 q 717 54 794 109 q 496 0 640 0 l 317 0 q 273 16 285 0 q 261 65 261 32 l 261 635 l 146 635 l 146 583 q 130 512 146 529 q 69 494 113 494 q 30 509 41 494 q 18 553 18 523 l 18 654 q 62 697 18 697 m 404 62 l 490 62 q 606 96 568 62 q 644 205 644 129 q 605 310 644 281 q 490 339 566 339 l 404 339 l 404 62 z "},"":{"ha":978,"x_min":111,"x_max":867,"o":"m 256 583 l 256 401 l 372 401 q 570 353 510 401 q 629 211 629 305 q 553 54 629 109 q 334 0 477 0 l 167 0 q 123 16 135 0 q 111 65 111 32 l 111 632 q 123 681 111 665 q 167 697 135 697 q 235 671 214 697 q 256 583 256 645 m 254 62 l 328 62 q 444 96 406 62 q 482 205 482 129 q 443 310 482 281 q 328 339 403 339 l 254 339 l 254 62 m 867 632 l 867 65 q 855 16 867 32 q 811 0 843 0 q 743 26 764 0 q 722 114 722 52 l 722 597 q 742 677 722 657 q 811 697 762 697 q 855 681 843 697 q 867 632 867 665 z "},"":{"ha":684,"x_min":111,"x_max":644,"o":"m 256 583 l 256 401 l 385 401 q 584 353 523 401 q 644 211 644 305 q 567 54 644 109 q 346 0 490 0 l 167 0 q 123 16 135 0 q 111 65 111 32 l 111 632 q 123 681 111 665 q 167 697 135 697 q 235 671 214 697 q 256 583 256 645 m 254 62 l 340 62 q 456 96 418 62 q 494 205 494 129 q 455 310 494 281 q 340 339 416 339 l 254 339 l 254 62 z "},"":{"ha":704,"x_min":28,"x_max":635,"o":"m 485 328 l 208 328 q 190 337 197 328 q 183 359 183 347 q 190 382 183 372 q 208 392 197 392 l 485 392 q 306 642 485 642 q 229 622 256 642 q 180 567 201 602 q 148 527 165 541 q 103 514 131 514 q 67 528 81 514 q 53 564 53 541 q 127 657 53 615 q 214 686 158 674 q 314 697 269 697 q 635 363 635 697 q 608 197 635 268 q 533 83 581 125 q 424 20 486 41 q 289 0 363 0 q 96 47 173 0 q 28 142 28 90 q 45 178 28 163 q 82 193 62 193 q 158 138 134 193 q 207 78 175 100 q 301 56 238 56 q 374 72 342 58 q 431 116 406 86 q 471 200 457 146 q 485 328 485 253 z "}}}
